SplineFontDB: 3.2
FontName: Almouzios
FullName: Almouzios
FamilyName: Almouzios
Weight: Regular
Copyright: SIL OPEN FONT LICENSE Version 1.1
UComments: "2022-3-8: Created with FontForge (http://fontforge.org)"
Version: 1.0.3
ItalicAngle: 0
UnderlinePosition: 0
UnderlineWidth: 0
Ascent: 800
Descent: 200
InvalidEm: 0
LayerCount: 2
Layer: 0 0 "Back" 1
Layer: 1 0 "Fore" 0
XUID: [1021 151 880831689 20337]
FSType: 0
OS2Version: 0
OS2_WeightWidthSlopeOnly: 0
OS2_UseTypoMetrics: 0
CreationTime: 1646795337
ModificationTime: 1754141629
PfmFamily: 17
TTFWeight: 400
TTFWidth: 5
LineGap: 0
VLineGap: 0
OS2TypoAscent: 880
OS2TypoAOffset: 0
OS2TypoDescent: -440
OS2TypoDOffset: 0
OS2TypoLinegap: 0
OS2WinAscent: 880
OS2WinAOffset: 0
OS2WinDescent: 440
OS2WinDOffset: 0
HheadAscent: 880
HheadAOffset: 0
HheadDescent: -440
HheadDOffset: 0
OS2Vendor: 'PfEd'
Lookup: 3 0 0 "'salt' Stylistic Alternatives in Byzantine Music lookup 4" { "'salt' Stylistic Alternatives in Byzantine Music lookup 4-1"  } ['salt' ('DFLT' <'dflt' > 'byzm' <'dflt' > ) ]
Lookup: 6 0 0 "'rclt' Required Contextual Alternates lookup 3" { "'rclt' Required Contextual Alternates lookup 3-1"  } ['rclt' ('DFLT' <'dflt' > 'byzm' <'dflt' > 'latn' <'dflt' > ) ]
Lookup: 4 0 0 "'ccmp' Glyph Composition/Decomposition lookup 2" { "'ccmp' Glyph Composition/Decomposition lookup 2-1"  } ['ccmp' ('DFLT' <'dflt' > 'byzm' <'dflt' > 'latn' <'dflt' > ) ]
Lookup: 1 0 0 "subs" { "subs-1"  } []
Lookup: 5 0 0 "'rclt' Required Contextual Alternates lookup 1" { "'rclt' Required Contextual Alternates lookup 1-1"  } ['rclt' ('DFLT' <'dflt' > 'byzm' <'dflt' > 'latn' <'dflt' > ) ]
Lookup: 260 0 0 "'mark' Mark Positioning lookup 0" { "'mark' Mark Positioning lookup 0-1"  } ['mark' ('DFLT' <'dflt' > 'byzm' <'dflt' > 'latn' <'dflt' > ) ]
Lookup: 262 0 0 "'mkmk' Mark to Mark lookup 1" { "'mkmk' Mark to Mark lookup 1-1"  } ['mkmk' ('DFLT' <'dflt' > 'byzm' <'dflt' > 'latn' <'dflt' > ) ]
MarkAttachClasses: 1
DEI: 91125

StartChar: u1D046
Encoding: 118854 118854 0
Width: 1524
VWidth: 345
Flags: W
HStem: 246 123<1036.67 1330.87>
LayerCount: 2
Back
SplineSet
108 443 m 1
 82.6666666667 489 75.8333333333 528.5 87.5 561.5 c 0
 99.1666666667 594.5 120 612 150 614 c 0
 169.333333333 615.333333333 184.166666667 613.833333333 194.5 609.5 c 0
 204.833333333 605.166666667 213.833333333 600.833333333 221.5 596.5 c 0
 229.166666667 592.166666667 236.5 587.5 243.5 582.5 c 0
 250.5 577.5 257.166666667 572.333333333 263.5 567 c 0
 269.833333333 561.666666667 274.166666667 556.833333333 276.5 552.5 c 0
 278.833333333 548.166666667 279.833333333 544.166666667 279.5 540.5 c 0
 279.166666667 536.833333333 277.833333333 534.333333333 275.5 533 c 0
 273.166666667 531.666666667 266.166666667 528.666666667 254.5 524 c 0
 242.833333333 519.333333333 227.666666667 511.833333333 209 501.5 c 0
 190.333333333 491.166666667 181.333333333 473.666666667 182 449 c 0
 182 423.666666667 208.333333333 399.833333333 261 377.5 c 0
 313.666666667 355.166666667 392 346 496 350 c 1
 1230 369 l 2
 1252 369 1269.66666667 367.5 1283 364.5 c 0
 1296.33333333 361.5 1308.16666667 357.666666667 1318.5 353 c 0
 1328.83333333 348.333333333 1337.83333333 343.833333333 1345.5 339.5 c 0
 1353.16666667 335.166666667 1362 328.5 1372 319.5 c 0
 1382 310.5 1393.5 299 1406.5 285 c 0
 1419.5 271 1428 260.666666667 1432 254 c 0
 1436 247.333333333 1438 240.833333333 1438 234.5 c 0
 1438 228.166666667 1436 224 1432 222 c 0
 1428 220 1423.66666667 219 1419 219 c 0
 1414.33333333 219 1409.33333333 220 1404 222 c 0
 1398.66666667 224 1392.16666667 226.333333333 1384.5 229 c 0
 1376.83333333 231.666666667 1368.33333333 234.333333333 1359 237 c 0
 1349.66666667 239.666666667 1341 241.666666667 1333 243 c 0
 1325 244.333333333 1314 245.333333333 1300 246 c 2
 905 252 l 2
 843.666666667 252 779.166666667 254.5 711.5 259.5 c 0
 643.833333333 264.5 580 271 520 279 c 0
 460 287 407.333333333 295.666666667 362 305 c 0
 316.666666667 314.333333333 285.666666667 322 269 328 c 0
 240.333333333 340 214.833333333 351.833333333 192.5 363.5 c 0
 170.166666667 375.166666667 142 401.666666667 108 443 c 1
EndSplineSet
Fore
SplineSet
108 443 m 1
 82.6666666667 489 75.8333333333 528.5 87.5 561.5 c 0
 99.1666666667 594.5 120 612 150 614 c 0
 169.333333333 615.333333333 184.166666667 613.833333333 194.5 609.5 c 0
 204.833333333 605.166666667 213.833333333 600.833333333 221.5 596.5 c 0
 229.166666667 592.166666667 236.5 587.5 243.5 582.5 c 0
 250.5 577.5 257.166666667 572.333333333 263.5 567 c 0
 269.833333333 561.666666667 274.166666667 556.833333333 276.5 552.5 c 0
 278.833333333 548.166666667 279.833333333 544.166666667 279.5 540.5 c 0
 279.166666667 536.833333333 277.833333333 534.333333333 275.5 533 c 0
 273.166666667 531.666666667 266.166666667 528.666666667 254.5 524 c 0
 242.833333333 519.333333333 227.666666667 511.833333333 209 501.5 c 0
 190.333333333 491.166666667 181.333333333 473.666666667 182 449 c 0
 182 423.666666667 208.333333333 399.833333333 261 377.5 c 0
 313.666666667 355.166666667 392 346 496 350 c 1
 1230 369 l 2
 1252 369 1269.66666667 367.5 1283 364.5 c 0
 1296.33333333 361.5 1308.16666667 357.666666667 1318.5 353 c 0
 1328.83333333 348.333333333 1337.83333333 343.833333333 1345.5 339.5 c 0
 1353.16666667 335.166666667 1362 328.5 1372 319.5 c 0
 1382 310.5 1393.5 299 1406.5 285 c 0
 1419.5 271 1428 260.666666667 1432 254 c 0
 1436 247.333333333 1438 240.833333333 1438 234.5 c 0
 1438 228.166666667 1436 224 1432 222 c 0
 1428 220 1423.66666667 219 1419 219 c 0
 1414.33333333 219 1409.33333333 220 1404 222 c 0
 1398.66666667 224 1392.16666667 226.333333333 1384.5 229 c 0
 1376.83333333 231.666666667 1368.33333333 234.333333333 1359 237 c 0
 1349.66666667 239.666666667 1341 241.666666667 1333 243 c 0
 1325 244.333333333 1314 245.333333333 1300 246 c 2
 905 252 l 2
 843.666666667 252 779.166666667 254.5 711.5 259.5 c 0
 643.833333333 264.5 580 271 520 279 c 0
 460 287 407.333333333 295.666666667 362 305 c 0
 316.666666667 314.333333333 285.666666667 322 269 328 c 0
 240.333333333 340 214.833333333 351.833333333 192.5 363.5 c 0
 170.166666667 375.166666667 142 401.666666667 108 443 c 1
EndSplineSet
Validated: 33
EndChar

StartChar: u1D047
Encoding: 118855 118855 1
Width: 1515
VWidth: 345
Flags: W
HStem: 246 121<182.719 1326.04>
LayerCount: 2
Back
SplineSet
85 384 m 0
 88.3333333333 389.333333333 92.1666666667 392.166666667 96.5 392.5 c 0
 100.833333333 392.833333333 105.333333333 391.666666667 110 389 c 0
 114.666666667 386.333333333 120.666666667 383.166666667 128 379.5 c 0
 135.333333333 375.833333333 144.666666667 372.833333333 156 370.5 c 0
 167.333333333 368.166666667 183.333333333 367 204 367 c 2
 1228 367 l 2
 1246.66666667 367 1263.66666667 365.5 1279 362.5 c 0
 1294.33333333 359.5 1308.33333333 354.666666667 1321 348 c 0
 1333.66666667 341.333333333 1343.5 335.333333333 1350.5 330 c 0
 1357.5 324.666666667 1367 315.5 1379 302.5 c 0
 1391 289.5 1401.5 277 1410.5 265 c 0
 1419.5 253 1421.33333333 241.333333333 1416 230 c 1
 1410.66666667 222 1404.5 220.333333333 1397.5 225 c 0
 1390.5 229.666666667 1382.33333333 233.666666667 1373 237 c 0
 1363.66666667 240.333333333 1353.5 242.666666667 1342.5 244 c 0
 1331.5 245.333333333 1314.33333333 246 1291 246 c 2
 282 246 l 2
 266.666666667 246 252.666666667 247 240 249 c 0
 227.333333333 251 217.5 253.166666667 210.5 255.5 c 0
 203.5 257.833333333 196 261 188 265 c 0
 180 269 171.5 273.833333333 162.5 279.5 c 0
 153.5 285.166666667 144 293.166666667 134 303.5 c 0
 124 313.833333333 113.833333333 325.833333333 103.5 339.5 c 0
 93.1666666667 353.166666667 86.6666666667 362.666666667 84 368 c 0
 81.3333333333 373.333333333 81.6666666667 378.666666667 85 384 c 0
EndSplineSet
Fore
SplineSet
85 384 m 0
 88.3333333333 389.333333333 92.1666666667 392.166666667 96.5 392.5 c 0
 100.833333333 392.833333333 105.333333333 391.666666667 110 389 c 0
 114.666666667 386.333333333 120.666666667 383.166666667 128 379.5 c 0
 135.333333333 375.833333333 144.666666667 372.833333333 156 370.5 c 0
 167.333333333 368.166666667 183.333333333 367 204 367 c 2
 1228 367 l 2
 1246.66666667 367 1263.66666667 365.5 1279 362.5 c 0
 1294.33333333 359.5 1308.33333333 354.666666667 1321 348 c 0
 1333.66666667 341.333333333 1343.5 335.333333333 1350.5 330 c 0
 1357.5 324.666666667 1367 315.5 1379 302.5 c 0
 1391 289.5 1401.5 277 1410.5 265 c 0
 1419.5 253 1421.33333333 241.333333333 1416 230 c 1
 1410.66666667 222 1404.5 220.333333333 1397.5 225 c 0
 1390.5 229.666666667 1382.33333333 233.666666667 1373 237 c 0
 1363.66666667 240.333333333 1353.5 242.666666667 1342.5 244 c 0
 1331.5 245.333333333 1314.33333333 246 1291 246 c 2
 282 246 l 2
 266.666666667 246 252.666666667 247 240 249 c 0
 227.333333333 251 217.5 253.166666667 210.5 255.5 c 0
 203.5 257.833333333 196 261 188 265 c 0
 180 269 171.5 273.833333333 162.5 279.5 c 0
 153.5 285.166666667 144 293.166666667 134 303.5 c 0
 124 313.833333333 113.833333333 325.833333333 103.5 339.5 c 0
 93.1666666667 353.166666667 86.6666666667 362.666666667 84 368 c 0
 81.3333333333 373.333333333 81.6666666667 378.666666667 85 384 c 0
EndSplineSet
Validated: 33
EndChar

StartChar: u1D049
Encoding: 118857 118857 2
Width: 1243
VWidth: 345
Flags: W
HStem: 133.5 38<688.719 920.029> 469.5 28.5<333.041 373.656 876.611 981.738>
VStem: 1030.5 149.5<261.308 407.941>
LayerCount: 2
Back
SplineSet
885 498 m 5
 910.333333333 507.333333333 953.333333333 506.666666667 1014 496 c 5
 1049.33333333 486.666666667 1080.5 474.833333333 1107.5 460.5 c 4
 1134.5 446.166666667 1155.33333333 420.666666667 1170 384 c 5
 1180 348.666666667 1183.33333333 320.333333333 1180 299 c 4
 1176.66666667 277.666666667 1165 253.333333333 1145 226 c 5
 1125.66666667 202.666666667 1103.16666667 185.166666667 1077.5 173.5 c 4
 1051.83333333 161.833333333 1020 152 982 144 c 4
 944.666666667 136.666666667 914.333333333 133.166666667 891 133.5 c 4
 867.666666667 133.833333333 842.666666667 134.333333333 816 135 c 4
 789.333333333 136.333333333 764.5 138.5 741.5 141.5 c 4
 718.5 144.5 690.666666667 151 658 161 c 4
 604 175.666666667 550.666666667 196 498 222 c 4
 468.666666667 236.666666667 437.333333333 252.5 404 269.5 c 4
 370.666666667 286.5 333.666666667 306.666666667 293 330 c 4
 274.333333333 341.333333333 254 353.5 232 366.5 c 4
 210 379.5 186.333333333 392.666666667 161 406 c 5
 141.666666667 418 122.5 430.166666667 103.5 442.5 c 4
 84.5 454.833333333 76.5 467.166666667 79.5 479.5 c 4
 82.5 491.833333333 89.6666666667 497.666666667 101 497 c 4
 112.333333333 496.333333333 148 496.5 208 497.5 c 4
 268 498.5 320.666666667 498.666666667 366 498 c 5
 384 484.666666667 383.666666667 475.166666667 365 469.5 c 4
 346.333333333 463.833333333 332.666666667 456.666666667 324 448 c 4
 307.333333333 430.666666667 300 416.833333333 302 406.5 c 4
 304 396.166666667 306.666666667 388.166666667 310 382.5 c 4
 313.333333333 376.833333333 318.666666667 370.833333333 326 364.5 c 4
 333.333333333 358.166666667 351.5 345 380.5 325 c 4
 409.5 305 445.666666667 284 489 262 c 5
 527.666666667 245.333333333 558 231.666666667 580 221 c 4
 602 210.333333333 637.666666667 198.333333333 687 185 c 5
 723.666666667 177.666666667 761 173.166666667 799 171.5 c 4
 837 169.833333333 875.666666667 175.333333333 915 188 c 5
 942.333333333 200 961.5 210.333333333 972.5 219 c 4
 983.5 227.666666667 996 242.333333333 1010 263 c 4
 1022 283 1028.83333333 300 1030.5 314 c 4
 1032.16666667 328 1032.33333333 344 1031 362 c 4
 1030.33333333 380.666666667 1028.16666667 394.166666667 1024.5 402.5 c 4
 1020.83333333 410.833333333 1016 419.333333333 1010 428 c 4
 1004 436.666666667 996.666666667 444.5 988 451.5 c 4
 979.333333333 458.5 965.666666667 463.333333333 947 466 c 4
 928.333333333 468.666666667 910 471 892 473 c 4
 884 474.333333333 878.833333333 477.666666667 876.5 483 c 4
 874.166666667 488.333333333 877 493.333333333 885 498 c 5
EndSplineSet
Fore
SplineSet
885 498 m 5
 910.333333333 507.333333333 953.333333333 506.666666667 1014 496 c 5
 1049.33333333 486.666666667 1080.5 474.833333333 1107.5 460.5 c 4
 1134.5 446.166666667 1155.33333333 420.666666667 1170 384 c 5
 1180 348.666666667 1183.33333333 320.333333333 1180 299 c 4
 1176.66666667 277.666666667 1165 253.333333333 1145 226 c 5
 1125.66666667 202.666666667 1103.16666667 185.166666667 1077.5 173.5 c 4
 1051.83333333 161.833333333 1020 152 982 144 c 4
 944.666666667 136.666666667 914.333333333 133.166666667 891 133.5 c 4
 867.666666667 133.833333333 842.666666667 134.333333333 816 135 c 4
 789.333333333 136.333333333 764.5 138.5 741.5 141.5 c 4
 718.5 144.5 690.666666667 151 658 161 c 4
 604 175.666666667 550.666666667 196 498 222 c 4
 468.666666667 236.666666667 437.333333333 252.5 404 269.5 c 4
 370.666666667 286.5 333.666666667 306.666666667 293 330 c 4
 274.333333333 341.333333333 254 353.5 232 366.5 c 4
 210 379.5 186.333333333 392.666666667 161 406 c 5
 141.666666667 418 122.5 430.166666667 103.5 442.5 c 4
 84.5 454.833333333 76.5 467.166666667 79.5 479.5 c 4
 82.5 491.833333333 89.6666666667 497.666666667 101 497 c 4
 112.333333333 496.333333333 148 496.5 208 497.5 c 4
 268 498.5 320.666666667 498.666666667 366 498 c 5
 384 484.666666667 383.666666667 475.166666667 365 469.5 c 4
 346.333333333 463.833333333 332.666666667 456.666666667 324 448 c 4
 307.333333333 430.666666667 300 416.833333333 302 406.5 c 4
 304 396.166666667 306.666666667 388.166666667 310 382.5 c 4
 313.333333333 376.833333333 318.666666667 370.833333333 326 364.5 c 4
 333.333333333 358.166666667 351.5 345 380.5 325 c 4
 409.5 305 445.666666667 284 489 262 c 5
 527.666666667 245.333333333 558 231.666666667 580 221 c 4
 602 210.333333333 637.666666667 198.333333333 687 185 c 5
 723.666666667 177.666666667 761 173.166666667 799 171.5 c 4
 837 169.833333333 875.666666667 175.333333333 915 188 c 5
 942.333333333 200 961.5 210.333333333 972.5 219 c 4
 983.5 227.666666667 996 242.333333333 1010 263 c 4
 1022 283 1028.83333333 300 1030.5 314 c 4
 1032.16666667 328 1032.33333333 344 1031 362 c 4
 1030.33333333 380.666666667 1028.16666667 394.166666667 1024.5 402.5 c 4
 1020.83333333 410.833333333 1016 419.333333333 1010 428 c 4
 1004 436.666666667 996.666666667 444.5 988 451.5 c 4
 979.333333333 458.5 965.666666667 463.333333333 947 466 c 4
 928.333333333 468.666666667 910 471 892 473 c 4
 884 474.333333333 878.833333333 477.666666667 876.5 483 c 4
 874.166666667 488.333333333 877 493.333333333 885 498 c 5
EndSplineSet
Validated: 33
EndChar

StartChar: u1D08F
Encoding: 118927 118927 3
Width: 0
Flags: W
HStem: 1149.5 38<-84.5 162.174>
VStem: -148.5 66.5<1000.5 1149.5>
LayerCount: 2
Back
SplineSet
-137.5 1187.5 m 0
 -88.1669921875 1187.5 -38.6669921875 1187.66699219 11 1188 c 0
 60.6669921875 1188.33300781 109.833007812 1188.83300781 158.5 1189.5 c 1
 161.833007812 1184.83300781 163.166992188 1178.83300781 162.5 1171.5 c 0
 161.833007812 1164.16699219 160.833007812 1157.83300781 159.5 1152.5 c 1
 149.5 1150.5 116.666992188 1149.5 61 1149.5 c 0
 -22.5 1149.5 -22.5 1149.5 -84.5 1149.5 c 1
 -84.5 1114.83300781 -83.6669921875 1079.5 -82 1043.5 c 0
 -80.3330078125 1007.5 -81.5 989.166992188 -85.5 988.5 c 0
 -95.5 988.5 -106.333007812 987.666992188 -118 986 c 0
 -129.666992188 984.333007812 -139.833007812 985.166992188 -148.5 988.5 c 0
 -149.166992188 988.5 -149.833007812 991.833007812 -150.5 998.5 c 0
 -150.5 998.5 -150.5 998.5 -149.5 999.5 c 0
 -148.5 1000.5 -148.5 1000.5 -148.5 1000.5 c 0
 -148.5 1035.83300781 -148.333007812 1064.5 -148 1086.5 c 0
 -147.666992188 1108.5 -147.5 1136.83300781 -147.5 1171.5 c 0
 -147.5 1181.5 -144.166992188 1186.83300781 -137.5 1187.5 c 0
EndSplineSet
Fore
SplineSet
-137.5 1187.5 m 0
 -88.1669921875 1187.5 -38.6669921875 1187.66699219 11 1188 c 0
 60.6669921875 1188.33300781 109.833007812 1188.83300781 158.5 1189.5 c 1
 161.833007812 1184.83300781 163.166992188 1178.83300781 162.5 1171.5 c 0
 161.833007812 1164.16699219 160.833007812 1157.83300781 159.5 1152.5 c 1
 149.5 1150.5 116.666992188 1149.5 61 1149.5 c 0
 -22.5 1149.5 -22.5 1149.5 -84.5 1149.5 c 1
 -84.5 1114.83300781 -83.6669921875 1079.5 -82 1043.5 c 0
 -80.3330078125 1007.5 -81.5 989.166992188 -85.5 988.5 c 0
 -95.5 988.5 -106.333007812 987.666992188 -118 986 c 0
 -129.666992188 984.333007812 -139.833007812 985.166992188 -148.5 988.5 c 0
 -149.166992188 988.5 -149.833007812 991.833007812 -150.5 998.5 c 0
 -150.5 998.5 -150.5 998.5 -149.5 999.5 c 0
 -148.5 1000.5 -148.5 1000.5 -148.5 1000.5 c 0
 -148.5 1035.83300781 -148.333007812 1064.5 -148 1086.5 c 0
 -147.666992188 1108.5 -147.5 1136.83300781 -147.5 1171.5 c 0
 -147.5 1181.5 -144.166992188 1186.83300781 -137.5 1187.5 c 0
EndSplineSet
Validated: 33
EndChar

StartChar: u1D04E
Encoding: 118862 118862 5
Width: 738
VWidth: 345
Flags: W
HStem: 423 29<85.7838 128.574 394.26 436.917>
LayerCount: 2
Back
SplineSet
107 452 m 4
 129.666666667 452 153.666666667 451.666666667 179 451 c 4
 204.333333333 450.333333333 227 448.333333333 247 445 c 5
 261 445 276.5 417.5 293.5 362.5 c 4
 310.5 307.5 330.666666667 259.333333333 354 218 c 4
 362 204 369.333333333 196 376 194 c 4
 382 192 386.666666667 188.5 390 183.5 c 4
 393.333333333 178.5 390 174 380 170 c 5
 356.666666667 166 333.166666667 164.333333333 309.5 165 c 4
 285.833333333 165.666666667 263.333333333 167.333333333 242 170 c 5
 222 178 205.5 203.666666667 192.5 247 c 4
 179.5 290.333333333 161.333333333 340.666666667 138 398 c 4
 136 401.333333333 131.833333333 405.833333333 125.5 411.5 c 4
 119.166666667 417.166666667 112 421 104 423 c 4
 93.3333333333 425 87.1666666667 430.166666667 85.5 438.5 c 4
 83.8333333333 446.833333333 91 451.333333333 107 452 c 4
416 452 m 4
 438.666666667 452 462.5 451.666666667 487.5 451 c 4
 512.5 450.333333333 535.333333333 448.333333333 556 445 c 5
 570 445 585.333333333 417.5 602 362.5 c 4
 618.666666667 307.5 639 259.333333333 663 218 c 4
 671 204 678.333333333 196 685 194 c 4
 691 192 695.5 188.5 698.5 183.5 c 4
 701.5 178.5 698 174 688 170 c 5
 664.666666667 166 641.333333333 164.333333333 618 165 c 4
 594.666666667 165.666666667 572.333333333 167.333333333 551 170 c 5
 531 178 514.333333333 203.666666667 501 247 c 4
 487.666666667 290.333333333 469.333333333 340.666666667 446 398 c 4
 444 401.333333333 440 405.833333333 434 411.5 c 4
 428 417.166666667 420.666666667 421 412 423 c 4
 401.333333333 425 395.333333333 430.166666667 394 438.5 c 4
 392.666666667 446.833333333 400 451.333333333 416 452 c 4
EndSplineSet
Fore
SplineSet
107 452 m 4
 129.666666667 452 153.666666667 451.666666667 179 451 c 4
 204.333333333 450.333333333 227 448.333333333 247 445 c 5
 261 445 276.5 417.5 293.5 362.5 c 4
 310.5 307.5 330.666666667 259.333333333 354 218 c 4
 362 204 369.333333333 196 376 194 c 4
 382 192 386.666666667 188.5 390 183.5 c 4
 393.333333333 178.5 390 174 380 170 c 5
 356.666666667 166 333.166666667 164.333333333 309.5 165 c 4
 285.833333333 165.666666667 263.333333333 167.333333333 242 170 c 5
 222 178 205.5 203.666666667 192.5 247 c 4
 179.5 290.333333333 161.333333333 340.666666667 138 398 c 4
 136 401.333333333 131.833333333 405.833333333 125.5 411.5 c 4
 119.166666667 417.166666667 112 421 104 423 c 4
 93.3333333333 425 87.1666666667 430.166666667 85.5 438.5 c 4
 83.8333333333 446.833333333 91 451.333333333 107 452 c 4
416 452 m 4
 438.666666667 452 462.5 451.666666667 487.5 451 c 4
 512.5 450.333333333 535.333333333 448.333333333 556 445 c 5
 570 445 585.333333333 417.5 602 362.5 c 4
 618.666666667 307.5 639 259.333333333 663 218 c 4
 671 204 678.333333333 196 685 194 c 4
 691 192 695.5 188.5 698.5 183.5 c 4
 701.5 178.5 698 174 688 170 c 5
 664.666666667 166 641.333333333 164.333333333 618 165 c 4
 594.666666667 165.666666667 572.333333333 167.333333333 551 170 c 5
 531 178 514.333333333 203.666666667 501 247 c 4
 487.666666667 290.333333333 469.333333333 340.666666667 446 398 c 4
 444 401.333333333 440 405.833333333 434 411.5 c 4
 428 417.166666667 420.666666667 421 412 423 c 4
 401.333333333 425 395.333333333 430.166666667 394 438.5 c 4
 392.666666667 446.833333333 400 451.333333333 416 452 c 4
EndSplineSet
Validated: 33
EndChar

StartChar: u1D04F
Encoding: 118863 118863 6
Width: 279
VWidth: 345
Flags: W
HStem: 418 29<-41.6787 0.88916>
VStem: -42 303
LayerCount: 2
Back
SplineSet
-21 447 m 0
 1.66666666667 447 25.5 446.666666667 50.5 446 c 0
 75.5 445.333333333 98 443.666666667 118 441 c 1
 132 441 147.5 413.333333333 164.5 358 c 0
 181.5 302.666666667 201.666666667 254.333333333 225 213 c 0
 233 199 240.333333333 191 247 189 c 0
 253 187 257.666666667 183.666666667 261 179 c 0
 264.333333333 174.333333333 261 170 251 166 c 1
 227.666666667 162 204.333333333 160.166666667 181 160.5 c 0
 157.666666667 160.833333333 135 162.666666667 113 166 c 1
 93 174 76.5 199.5 63.5 242.5 c 0
 50.5 285.5 32.3333333333 336 9 394 c 0
 7 397.333333333 3 401.833333333 -3 407.5 c 0
 -9 413.166666667 -16 416.666666667 -24 418 c 0
 -34.6666666667 420 -40.6666666667 425.333333333 -42 434 c 0
 -43.3333333333 442.666666667 -36.3333333333 447 -21 447 c 0
EndSplineSet
Fore
SplineSet
-21 447 m 0
 1.66666666667 447 25.5 446.666666667 50.5 446 c 0
 75.5 445.333333333 98 443.666666667 118 441 c 1
 132 441 147.5 413.333333333 164.5 358 c 0
 181.5 302.666666667 201.666666667 254.333333333 225 213 c 0
 233 199 240.333333333 191 247 189 c 0
 253 187 257.666666667 183.666666667 261 179 c 0
 264.333333333 174.333333333 261 170 251 166 c 1
 227.666666667 162 204.333333333 160.166666667 181 160.5 c 0
 157.666666667 160.833333333 135 162.666666667 113 166 c 1
 93 174 76.5 199.5 63.5 242.5 c 0
 50.5 285.5 32.3333333333 336 9 394 c 0
 7 397.333333333 3 401.833333333 -3 407.5 c 0
 -9 413.166666667 -16 416.666666667 -24 418 c 0
 -34.6666666667 420 -40.6666666667 425.333333333 -42 434 c 0
 -43.3333333333 442.666666667 -36.3333333333 447 -21 447 c 0
EndSplineSet
Validated: 33
EndChar

StartChar: u1D050
Encoding: 118864 118864 7
Width: 1515
VWidth: 345
Flags: W
HStem: 595 22<627.535 706.586> 1132 31<1043.3 1080.93>
LayerCount: 2
Back
SplineSet
1067 1163 m 5
 1077.66699219 1161 1082.33300781 1155.5 1081 1146.5 c 4
 1079.66699219 1137.5 1073 1132.66699219 1061 1132 c 5
 1047 1127.33300781 1035.83300781 1109.66699219 1027.5 1079 c 4
 1019.16699219 1048.33300781 1010 1016 1000 982 c 4
 977.333007812 902.666992188 956.666992188 838.333007812 938 789 c 4
 919.333007812 739.666992188 901.666992188 705.166992188 885 685.5 c 4
 868.333007812 665.833007812 848.333007812 650.666992188 825 640 c 4
 789 624.666992188 753.333007812 613.333007812 718 606 c 4
 682.666992188 598.666992188 652.333007812 595 627 595 c 5
 639.666992188 565 661 544 691 532 c 4
 721 520 729.666992188 507.333007812 717 494 c 4
 709.666992188 486.666992188 686.5 496.333007812 647.5 523 c 4
 608.5 549.666992188 582 576 568 602 c 5
 568 618.666992188 574.666992188 625.666992188 588 623 c 4
 601.333007812 620.333007812 616 618.333007812 632 617 c 260
 647.333007812 616.333007812 663.166992188 617.333007812 679.5 620 c 4
 695.833007812 622.666992188 717.666992188 631 745 645 c 4
 758.333007812 651.666992188 771 666.833007812 783 690.5 c 4
 795 714.166992188 805.666992188 740.333007812 815 769 c 4
 824.333007812 797.666992188 832.333007812 826.166992188 839 854.5 c 4
 845.666992188 882.833007812 854.5 923.666992188 865.5 977 c 4
 876.5 1030.33300781 886 1066 894 1084 c 4
 902 1102 913.166992188 1116.66699219 927.5 1128 c 4
 941.833007812 1139.33300781 955.5 1146.66699219 968.5 1150 c 4
 981.5 1153.33300781 995.833007812 1155.66699219 1011.5 1157 c 4
 1027.16699219 1158.33300781 1045.66699219 1160.33300781 1067 1163 c 5
EndSplineSet
Fore
SplineSet
1067 1163 m 5
 1077.66699219 1161 1082.33300781 1155.5 1081 1146.5 c 4
 1079.66699219 1137.5 1073 1132.66699219 1061 1132 c 5
 1047 1127.33300781 1035.83300781 1109.66699219 1027.5 1079 c 4
 1019.16699219 1048.33300781 1010 1016 1000 982 c 4
 977.333007812 902.666992188 956.666992188 838.333007812 938 789 c 4
 919.333007812 739.666992188 901.666992188 705.166992188 885 685.5 c 4
 868.333007812 665.833007812 848.333007812 650.666992188 825 640 c 4
 789 624.666992188 753.333007812 613.333007812 718 606 c 4
 682.666992188 598.666992188 652.333007812 595 627 595 c 5
 639.666992188 565 661 544 691 532 c 4
 721 520 729.666992188 507.333007812 717 494 c 4
 709.666992188 486.666992188 686.5 496.333007812 647.5 523 c 4
 608.5 549.666992188 582 576 568 602 c 5
 568 618.666992188 574.666992188 625.666992188 588 623 c 4
 601.333007812 620.333007812 616 618.333007812 632 617 c 260
 647.333007812 616.333007812 663.166992188 617.333007812 679.5 620 c 4
 695.833007812 622.666992188 717.666992188 631 745 645 c 4
 758.333007812 651.666992188 771 666.833007812 783 690.5 c 4
 795 714.166992188 805.666992188 740.333007812 815 769 c 4
 824.333007812 797.666992188 832.333007812 826.166992188 839 854.5 c 4
 845.666992188 882.833007812 854.5 923.666992188 865.5 977 c 4
 876.5 1030.33300781 886 1066 894 1084 c 4
 902 1102 913.166992188 1116.66699219 927.5 1128 c 4
 941.833007812 1139.33300781 955.5 1146.66699219 968.5 1150 c 4
 981.5 1153.33300781 995.833007812 1155.66699219 1011.5 1157 c 4
 1027.16699219 1158.33300781 1045.66699219 1160.33300781 1067 1163 c 5
EndSplineSet
Validated: 33
EndChar

StartChar: u1D055
Encoding: 118869 118869 8
Width: 1243
VWidth: 345
Flags: W
HStem: 140 25<292.995 383.389> 466.5 38.5<340.132 569.561>
VStem: 80 149<230.031 375.995>
LayerCount: 2
Back
SplineSet
375 140 m 1
 349.666666667 130.666666667 306.666666667 131.333333333 246 142 c 1
 210.666666667 150.666666667 179.5 162.333333333 152.5 177 c 0
 125.5 191.666666667 104.666666667 217.333333333 90 254 c 1
 80 289.333333333 76.6666666667 317.5 80 338.5 c 0
 83.3333333333 359.5 95 384 115 412 c 1
 134.333333333 435.333333333 156.833333333 453 182.5 465 c 0
 208.166666667 477 239.666666667 486.666666667 277 494 c 0
 314.333333333 501.333333333 344.666666667 505 368 505 c 0
 391.333333333 505 416.666666667 504.333333333 444 503 c 0
 470.666666667 501.666666667 495.5 499.5 518.5 496.5 c 0
 541.5 493.5 569.333333333 487 602 477 c 0
 656 462.333333333 709.333333333 442 762 416 c 0
 791.333333333 401.333333333 822.5 385.5 855.5 368.5 c 0
 888.5 351.5 925.333333333 331.333333333 966 308 c 0
 984.666666667 296.666666667 1005.16666667 284.666666667 1027.5 272 c 0
 1049.83333333 259.333333333 1073.66666667 246.333333333 1099 233 c 1
 1118.33333333 221 1137.5 208.833333333 1156.5 196.5 c 0
 1175.5 184.166666667 1183.5 171.833333333 1180.5 159.5 c 0
 1177.5 147.166666667 1170.33333333 141.333333333 1159 142 c 0
 1147.66666667 142.666666667 1111.83333333 142.333333333 1051.5 141 c 0
 991.166666667 139.666666667 938.666666667 139.333333333 894 140 c 1
 876 153.333333333 876.166666667 163 894.5 169 c 0
 912.833333333 175 926.666666667 182.333333333 936 191 c 0
 952.666666667 208.333333333 960 222 958 232 c 0
 956 242 953.166666667 249.833333333 949.5 255.5 c 0
 945.833333333 261.166666667 940.333333333 267.166666667 933 273.5 c 0
 925.666666667 279.833333333 907.5 293 878.5 313 c 0
 849.5 333 813.666666667 354 771 376 c 1
 732.333333333 392.666666667 702 406.333333333 680 417 c 0
 658 427.666666667 622.333333333 439.666666667 573 453 c 1
 536.333333333 460.333333333 499 464.833333333 461 466.5 c 0
 423 468.166666667 384.333333333 462.666666667 345 450 c 1
 317.666666667 438 298.5 427.833333333 287.5 419.5 c 0
 276.5 411.166666667 264 396.333333333 250 375 c 0
 238 355 231.166666667 338 229.5 324 c 0
 227.833333333 310 227.666666667 294 229 276 c 0
 229.666666667 257.333333333 231.833333333 243.833333333 235.5 235.5 c 0
 239.166666667 227.166666667 243.833333333 218.833333333 249.5 210.5 c 0
 255.166666667 202.166666667 262.5 194.5 271.5 187.5 c 0
 280.5 180.5 294.333333333 175.5 313 172.5 c 0
 331.666666667 169.5 350 167 368 165 c 0
 376 163.666666667 381.166666667 160.333333333 383.5 155 c 0
 385.833333333 149.666666667 383 144.666666667 375 140 c 1
EndSplineSet
Fore
SplineSet
375 140 m 1
 349.666666667 130.666666667 306.666666667 131.333333333 246 142 c 1
 210.666666667 150.666666667 179.5 162.333333333 152.5 177 c 0
 125.5 191.666666667 104.666666667 217.333333333 90 254 c 1
 80 289.333333333 76.6666666667 317.5 80 338.5 c 0
 83.3333333333 359.5 95 384 115 412 c 1
 134.333333333 435.333333333 156.833333333 453 182.5 465 c 0
 208.166666667 477 239.666666667 486.666666667 277 494 c 0
 314.333333333 501.333333333 344.666666667 505 368 505 c 0
 391.333333333 505 416.666666667 504.333333333 444 503 c 0
 470.666666667 501.666666667 495.5 499.5 518.5 496.5 c 0
 541.5 493.5 569.333333333 487 602 477 c 0
 656 462.333333333 709.333333333 442 762 416 c 0
 791.333333333 401.333333333 822.5 385.5 855.5 368.5 c 0
 888.5 351.5 925.333333333 331.333333333 966 308 c 0
 984.666666667 296.666666667 1005.16666667 284.666666667 1027.5 272 c 0
 1049.83333333 259.333333333 1073.66666667 246.333333333 1099 233 c 1
 1118.33333333 221 1137.5 208.833333333 1156.5 196.5 c 0
 1175.5 184.166666667 1183.5 171.833333333 1180.5 159.5 c 0
 1177.5 147.166666667 1170.33333333 141.333333333 1159 142 c 0
 1147.66666667 142.666666667 1111.83333333 142.333333333 1051.5 141 c 0
 991.166666667 139.666666667 938.666666667 139.333333333 894 140 c 1
 876 153.333333333 876.166666667 163 894.5 169 c 0
 912.833333333 175 926.666666667 182.333333333 936 191 c 0
 952.666666667 208.333333333 960 222 958 232 c 0
 956 242 953.166666667 249.833333333 949.5 255.5 c 0
 945.833333333 261.166666667 940.333333333 267.166666667 933 273.5 c 0
 925.666666667 279.833333333 907.5 293 878.5 313 c 0
 849.5 333 813.666666667 354 771 376 c 1
 732.333333333 392.666666667 702 406.333333333 680 417 c 0
 658 427.666666667 622.333333333 439.666666667 573 453 c 1
 536.333333333 460.333333333 499 464.833333333 461 466.5 c 0
 423 468.166666667 384.333333333 462.666666667 345 450 c 1
 317.666666667 438 298.5 427.833333333 287.5 419.5 c 0
 276.5 411.166666667 264 396.333333333 250 375 c 0
 238 355 231.166666667 338 229.5 324 c 0
 227.833333333 310 227.666666667 294 229 276 c 0
 229.666666667 257.333333333 231.833333333 243.833333333 235.5 235.5 c 0
 239.166666667 227.166666667 243.833333333 218.833333333 249.5 210.5 c 0
 255.166666667 202.166666667 262.5 194.5 271.5 187.5 c 0
 280.5 180.5 294.333333333 175.5 313 172.5 c 0
 331.666666667 169.5 350 167 368 165 c 0
 376 163.666666667 381.166666667 160.333333333 383.5 155 c 0
 385.833333333 149.666666667 383 144.666666667 375 140 c 1
EndSplineSet
Validated: 33
EndChar

StartChar: u1D056
Encoding: 118870 118870 9
Width: 1113
VWidth: 345
Flags: W
HStem: 290 30<594.953 788 905 1044.16>
LayerCount: 2
Back
SplineSet
905 290 m 5
 914 252 l 6
 914.666666667 249.333333333 918.333333333 242.833333333 925 232.5 c 4
 931.666666667 222.166666667 935 215.666666667 935 213 c 260
 935 210.333333333 929.5 208 918.5 206 c 4
 907.5 204 900 203 896 203 c 6
 835 203 l 6
 827 203 819.5 208.666666667 812.5 220 c 4
 805.5 231.333333333 801 242 799 252 c 6
 791 290 l 5
 713 290 641.5 293.166666667 576.5 299.5 c 4
 512.166666667 305.833333333 466 311.333333333 438 316 c 4
 335.333333333 332 271.333333333 368.666666667 246 426 c 4
 240 438.666666667 230 464 216 502 c 4
 202 540 187.166666667 579.333333333 171.5 620 c 4
 155.833333333 660.666666667 141 697.5 127 730.5 c 4
 113 763.5 103.333333333 781.333333333 98 784 c 4
 70.6666666667 793.333333333 64.6666666667 803.666666667 80 815 c 5
 114 817.666666667 146.166666667 819.333333333 176.5 820 c 4
 206.833333333 820.666666667 238.333333333 819.666666667 271 817 c 4
 287 816.333333333 300.5 804.666666667 311.5 782 c 4
 322.5 759.333333333 332.166666667 732 340.5 700 c 4
 348.833333333 668 356.333333333 634 363 598 c 4
 369.666666667 562 376.333333333 530 383 502 c 4
 397 446 414.333333333 407.833333333 435 387.5 c 4
 455.666666667 367.166666667 491 350.333333333 541 337 c 4
 591.666666667 323.666666667 674 318 788 320 c 5
 775 389 l 6
 774.333333333 392.333333333 771 396.666666667 765 402 c 4
 759 407.333333333 756 411.666666667 756 415 c 4
 756 419 761.5 421.666666667 772.5 423 c 4
 783.5 424.333333333 791 425 795 425 c 6
 856 425 l 6
 863.333333333 425 870.5 419.833333333 877.5 409.5 c 4
 884.5 399.166666667 889.333333333 388 892 376 c 6
 902 321 l 5
 946.666666667 321.666666667 977.166666667 323.166666667 993.5 325.5 c 4
 1009.83333333 327.833333333 1027 330.333333333 1045 333 c 5
 1052.33333333 332.333333333 1056.83333333 329 1058.5 323 c 4
 1060.16666667 317 1058.66666667 311.333333333 1054 306 c 4
 1047.33333333 300.666666667 1033.66666667 296.666666667 1013 294 c 4
 992.333333333 291.333333333 956.333333333 290 905 290 c 5
EndSplineSet
Fore
SplineSet
905 290 m 5
 914 252 l 6
 914.666666667 249.333333333 918.333333333 242.833333333 925 232.5 c 4
 931.666666667 222.166666667 935 215.666666667 935 213 c 260
 935 210.333333333 929.5 208 918.5 206 c 4
 907.5 204 900 203 896 203 c 6
 835 203 l 6
 827 203 819.5 208.666666667 812.5 220 c 4
 805.5 231.333333333 801 242 799 252 c 6
 791 290 l 5
 713 290 641.5 293.166666667 576.5 299.5 c 4
 512.166666667 305.833333333 466 311.333333333 438 316 c 4
 335.333333333 332 271.333333333 368.666666667 246 426 c 4
 240 438.666666667 230 464 216 502 c 4
 202 540 187.166666667 579.333333333 171.5 620 c 4
 155.833333333 660.666666667 141 697.5 127 730.5 c 4
 113 763.5 103.333333333 781.333333333 98 784 c 4
 70.6666666667 793.333333333 64.6666666667 803.666666667 80 815 c 5
 114 817.666666667 146.166666667 819.333333333 176.5 820 c 4
 206.833333333 820.666666667 238.333333333 819.666666667 271 817 c 4
 287 816.333333333 300.5 804.666666667 311.5 782 c 4
 322.5 759.333333333 332.166666667 732 340.5 700 c 4
 348.833333333 668 356.333333333 634 363 598 c 4
 369.666666667 562 376.333333333 530 383 502 c 4
 397 446 414.333333333 407.833333333 435 387.5 c 4
 455.666666667 367.166666667 491 350.333333333 541 337 c 4
 591.666666667 323.666666667 674 318 788 320 c 5
 775 389 l 6
 774.333333333 392.333333333 771 396.666666667 765 402 c 4
 759 407.333333333 756 411.666666667 756 415 c 4
 756 419 761.5 421.666666667 772.5 423 c 4
 783.5 424.333333333 791 425 795 425 c 6
 856 425 l 6
 863.333333333 425 870.5 419.833333333 877.5 409.5 c 4
 884.5 399.166666667 889.333333333 388 892 376 c 6
 902 321 l 5
 946.666666667 321.666666667 977.166666667 323.166666667 993.5 325.5 c 4
 1009.83333333 327.833333333 1027 330.333333333 1045 333 c 5
 1052.33333333 332.333333333 1056.83333333 329 1058.5 323 c 4
 1060.16666667 317 1058.66666667 311.333333333 1054 306 c 4
 1047.33333333 300.666666667 1033.66666667 296.666666667 1013 294 c 4
 992.333333333 291.333333333 956.333333333 290 905 290 c 5
EndSplineSet
Validated: 33
EndChar

StartChar: u1D051
Encoding: 118865 118865 10
Width: 703
VWidth: 345
Flags: W
HStem: 145 32<416.995 469.781> 465 29.5<85.6115 279.594>
LayerCount: 2
Back
SplineSet
416 153 m 1
 408.666666667 159 408.166666667 164.5 414.5 169.5 c 0
 420.833333333 174.5 429 177 439 177 c 0
 449.666666667 177 464.833333333 186.833333333 484.5 206.5 c 0
 504.166666667 226.166666667 517 250.333333333 523 279 c 0
 533 327.666666667 507.666666667 367.333333333 447 398 c 0
 381 430.666666667 296 452.333333333 192 463 c 0
 174 464.333333333 154.333333333 465 133 465 c 0
 111.666666667 465 99.3333333333 465.666666667 96 467 c 0
 86.6666666667 470.333333333 83.1666666667 475.833333333 85.5 483.5 c 0
 87.8333333333 491.166666667 93 495.333333333 101 496 c 0
 108.333333333 496.666666667 126.333333333 496.166666667 155 494.5 c 0
 183.666666667 492.833333333 215.333333333 489.666666667 250 485 c 0
 289.333333333 479 329.166666667 471.166666667 369.5 461.5 c 0
 409.833333333 451.833333333 447.333333333 440 482 426 c 0
 521.333333333 410.666666667 552.666666667 395.166666667 576 379.5 c 0
 599.333333333 363.833333333 621 343.333333333 641 318 c 0
 660.333333333 291.333333333 668.5 265 665.5 239 c 0
 662.5 213 651 192.666666667 631 178 c 0
 613 164.666666667 592.5 155.833333333 569.5 151.5 c 0
 546.5 147.166666667 524.333333333 145 503 145 c 256
 481.666666667 145 467.166666667 145.166666667 459.5 145.5 c 0
 451.833333333 145.833333333 437.333333333 148.333333333 416 153 c 1
EndSplineSet
Fore
SplineSet
416 153 m 1
 408.666666667 159 408.166666667 164.5 414.5 169.5 c 0
 420.833333333 174.5 429 177 439 177 c 0
 449.666666667 177 464.833333333 186.833333333 484.5 206.5 c 0
 504.166666667 226.166666667 517 250.333333333 523 279 c 0
 533 327.666666667 507.666666667 367.333333333 447 398 c 0
 381 430.666666667 296 452.333333333 192 463 c 0
 174 464.333333333 154.333333333 465 133 465 c 0
 111.666666667 465 99.3333333333 465.666666667 96 467 c 0
 86.6666666667 470.333333333 83.1666666667 475.833333333 85.5 483.5 c 0
 87.8333333333 491.166666667 93 495.333333333 101 496 c 0
 108.333333333 496.666666667 126.333333333 496.166666667 155 494.5 c 0
 183.666666667 492.833333333 215.333333333 489.666666667 250 485 c 0
 289.333333333 479 329.166666667 471.166666667 369.5 461.5 c 0
 409.833333333 451.833333333 447.333333333 440 482 426 c 0
 521.333333333 410.666666667 552.666666667 395.166666667 576 379.5 c 0
 599.333333333 363.833333333 621 343.333333333 641 318 c 0
 660.333333333 291.333333333 668.5 265 665.5 239 c 0
 662.5 213 651 192.666666667 631 178 c 0
 613 164.666666667 592.5 155.833333333 569.5 151.5 c 0
 546.5 147.166666667 524.333333333 145 503 145 c 256
 481.666666667 145 467.166666667 145.166666667 459.5 145.5 c 0
 451.833333333 145.833333333 437.333333333 148.333333333 416 153 c 1
EndSplineSet
Validated: 33
EndChar

StartChar: u1D053
Encoding: 118867 118867 11
Width: 400
VWidth: 345
Flags: W
HStem: 417 30<334.051 380.419>
VStem: 75 305.5
LayerCount: 2
Back
SplineSet
358 447 m 0
 373.333333333 447 380.833333333 442.333333333 380.5 433 c 0
 380.166666667 423.666666667 374.666666667 418.333333333 364 417 c 0
 346 413 334 405.333333333 328 394 c 0
 304 336.666666667 285.5 286.333333333 272.5 243 c 0
 259.5 199.666666667 243 174 223 166 c 1
 201.666666667 163.333333333 179.166666667 161.666666667 155.5 161 c 0
 131.833333333 160.333333333 108.333333333 162 85 166 c 1
 75 170 71.6666666667 174.333333333 75 179 c 0
 78.3333333333 183.666666667 83.3333333333 187 90 189 c 0
 96.6666666667 190.333333333 103.666666667 198.333333333 111 213 c 0
 134.333333333 254.333333333 153.833333333 301.166666667 169.5 353.5 c 0
 185.166666667 405.833333333 201.666666667 435 219 441 c 0
 241.666666667 447.666666667 264.666666667 450.333333333 288 449 c 0
 311.333333333 447.666666667 334.666666667 447 358 447 c 0
EndSplineSet
Fore
SplineSet
358 447 m 0
 373.333333333 447 380.833333333 442.333333333 380.5 433 c 0
 380.166666667 423.666666667 374.666666667 418.333333333 364 417 c 0
 346 413 334 405.333333333 328 394 c 0
 304 336.666666667 285.5 286.333333333 272.5 243 c 0
 259.5 199.666666667 243 174 223 166 c 1
 201.666666667 163.333333333 179.166666667 161.666666667 155.5 161 c 0
 131.833333333 160.333333333 108.333333333 162 85 166 c 1
 75 170 71.6666666667 174.333333333 75 179 c 0
 78.3333333333 183.666666667 83.3333333333 187 90 189 c 0
 96.6666666667 190.333333333 103.666666667 198.333333333 111 213 c 0
 134.333333333 254.333333333 153.833333333 301.166666667 169.5 353.5 c 0
 185.166666667 405.833333333 201.666666667 435 219 441 c 0
 241.666666667 447.666666667 264.666666667 450.333333333 288 449 c 0
 311.333333333 447.666666667 334.666666667 447 358 447 c 0
EndSplineSet
Validated: 33
EndChar

StartChar: u1D058
Encoding: 118872 118872 12
Width: 534
VWidth: 345
Flags: W
HStem: -72 15<533.252 579.418>
LayerCount: 2
Back
SplineSet
74 697 m 1
 78 705 99.3333333333 704.166666667 138 694.5 c 0
 176.666666667 684.833333333 208.666666667 674.333333333 234 663 c 0
 246.666666667 657 254 647.5 256 634.5 c 0
 258 621.5 259.333333333 601 260 573 c 0
 260.666666667 493 263.5 429.666666667 268.5 383 c 0
 273.5 336.333333333 278.666666667 296.666666667 284 264 c 0
 292 212 302 168.5 314 133.5 c 0
 326 98.5 344.666666667 68 370 42 c 0
 395.333333333 16 418.833333333 -3.83333333333 440.5 -17.5 c 0
 462.166666667 -31.1666666667 504 -44.3333333333 566 -57 c 1
 576.666666667 -57 581.166666667 -59.5 579.5 -64.5 c 0
 577.833333333 -69.5 571.333333333 -72 560 -72 c 1
 522 -64 503.666666667 -60.6666666667 505 -62 c 0
 506.333333333 -63.3333333333 491 -59 459 -49 c 1
 401.666666667 -25.6666666667 356.666666667 7 324 49 c 0
 291.333333333 91 263.333333333 132 240 172 c 1
 206 235.333333333 178.333333333 301.333333333 157 370 c 0
 135.666666667 438.666666667 120.333333333 528 111 638 c 0
 107.666666667 668 100.333333333 682.333333333 89 681 c 0
 77.6666666667 679.666666667 72.6666666667 685 74 697 c 1
EndSplineSet
Fore
SplineSet
74 697 m 1
 78 705 99.3333333333 704.166666667 138 694.5 c 0
 176.666666667 684.833333333 208.666666667 674.333333333 234 663 c 0
 246.666666667 657 254 647.5 256 634.5 c 0
 258 621.5 259.333333333 601 260 573 c 0
 260.666666667 493 263.5 429.666666667 268.5 383 c 0
 273.5 336.333333333 278.666666667 296.666666667 284 264 c 0
 292 212 302 168.5 314 133.5 c 0
 326 98.5 344.666666667 68 370 42 c 0
 395.333333333 16 418.833333333 -3.83333333333 440.5 -17.5 c 0
 462.166666667 -31.1666666667 504 -44.3333333333 566 -57 c 1
 576.666666667 -57 581.166666667 -59.5 579.5 -64.5 c 0
 577.833333333 -69.5 571.333333333 -72 560 -72 c 1
 522 -64 503.666666667 -60.6666666667 505 -62 c 0
 506.333333333 -63.3333333333 491 -59 459 -49 c 1
 401.666666667 -25.6666666667 356.666666667 7 324 49 c 0
 291.333333333 91 263.333333333 132 240 172 c 1
 206 235.333333333 178.333333333 301.333333333 157 370 c 0
 135.666666667 438.666666667 120.333333333 528 111 638 c 0
 107.666666667 668 100.333333333 682.333333333 89 681 c 0
 77.6666666667 679.666666667 72.6666666667 685 74 697 c 1
EndSplineSet
Validated: 33
EndChar

StartChar: u1D05B
Encoding: 118875 118875 13
Width: 0
VWidth: 345
Flags: W
HStem: -88 45<-579.5 380> 38 29<569.591 612.201>
LayerCount: 2
Back
SplineSet
397 -43 m 1
 407.666992188 -15 417.333007812 9.1669921875 426 29.5 c 0
 434.666992188 49.8330078125 443 60 451 60 c 0
 471 62.6669921875 493.666992188 64.5 519 65.5 c 0
 544.333007812 66.5 568.333007812 67 591 67 c 0
 606.333007812 67 613.5 62.6669921875 612.5 54 c 0
 611.5 45.3330078125 605.333007812 40 594 38 c 0
 586 36.6669921875 579 33 573 27 c 0
 567 21 563 16.3330078125 561 13 c 0
 537.666992188 -45 519.5 -95.5 506.5 -138.5 c 0
 493.5 -181.5 476.666992188 -207 456 -215 c 1
 434.666992188 -217.666992188 412.166992188 -219.333007812 388.5 -220 c 0
 364.833007812 -220.666992188 341.333007812 -219 318 -215 c 1
 308 -211 304.666992188 -206.5 308 -201.5 c 0
 311.333007812 -196.5 316.333007812 -193 323 -191 c 0
 329.666992188 -189.666992188 336.666992188 -182 344 -168 c 0
 350.666992188 -156 357 -143.166992188 363 -129.5 c 0
 369 -115.833007812 374.666992188 -102 380 -88 c 1
 -458 -88 l 1
 -510 -91 l 2
 -528 -91.6669921875 -544.333007812 -91 -559 -89 c 0
 -573 -87.6669921875 -579.833007812 -79.6669921875 -579.5 -65 c 0
 -579.166992188 -50.3330078125 -571.666992188 -43 -557 -43 c 2
 397 -43 l 1
EndSplineSet
Fore
SplineSet
397 -43 m 1
 407.666992188 -15 417.333007812 9.1669921875 426 29.5 c 0
 434.666992188 49.8330078125 443 60 451 60 c 0
 471 62.6669921875 493.666992188 64.5 519 65.5 c 0
 544.333007812 66.5 568.333007812 67 591 67 c 0
 606.333007812 67 613.5 62.6669921875 612.5 54 c 0
 611.5 45.3330078125 605.333007812 40 594 38 c 0
 586 36.6669921875 579 33 573 27 c 0
 567 21 563 16.3330078125 561 13 c 0
 537.666992188 -45 519.5 -95.5 506.5 -138.5 c 0
 493.5 -181.5 476.666992188 -207 456 -215 c 1
 434.666992188 -217.666992188 412.166992188 -219.333007812 388.5 -220 c 0
 364.833007812 -220.666992188 341.333007812 -219 318 -215 c 1
 308 -211 304.666992188 -206.5 308 -201.5 c 0
 311.333007812 -196.5 316.333007812 -193 323 -191 c 0
 329.666992188 -189.666992188 336.666992188 -182 344 -168 c 0
 350.666992188 -156 357 -143.166992188 363 -129.5 c 0
 369 -115.833007812 374.666992188 -102 380 -88 c 1
 -458 -88 l 1
 -510 -91 l 2
 -528 -91.6669921875 -544.333007812 -91 -559 -89 c 0
 -573 -87.6669921875 -579.833007812 -79.6669921875 -579.5 -65 c 0
 -579.166992188 -50.3330078125 -571.666992188 -43 -557 -43 c 2
 397 -43 l 1
EndSplineSet
Validated: 33
EndChar

StartChar: u1D05C
Encoding: 118876 118876 14
Width: 0
VWidth: 345
Flags: W
HStem: -205 14.5<378.546 399.316> 54 28<-352.079 -158.376 16.624 248.825>
LayerCount: 2
Back
SplineSet
-649.375976562 64 m 0
 -549.375976562 68.6669921875 -431.708984375 74.6669921875 -296.375976562 82 c 0
 -161.041992188 89.3330078125 -43.708984375 91.3330078125 55.6240234375 88 c 0
 142.291015625 86 225.624023438 80.8330078125 305.624023438 72.5 c 0
 385.624023438 64.1669921875 446.624023438 55.3330078125 488.624023438 46 c 0
 531.291015625 36 570.458007812 19.5 606.124023438 -3.5 c 0
 641.791015625 -26.5 662.291015625 -49.6669921875 667.624023438 -73 c 256
 672.958007812 -96.3330078125 673.291015625 -116 668.624023438 -132 c 0
 663.958007812 -148 637.958007812 -166.666992188 590.624023438 -188 c 1
 557.291015625 -195.333007812 522.124023438 -200.166992188 485.124023438 -202.5 c 0
 448.124023438 -204.833007812 415.624023438 -205.666992188 387.624023438 -205 c 1
 376.291015625 -200.333007812 375.458007812 -195.5 385.124023438 -190.5 c 0
 394.791015625 -185.5 408.124023438 -178.833007812 425.124023438 -170.5 c 0
 442.124023438 -162.166992188 459.624023438 -151.5 477.624023438 -138.5 c 0
 495.624023438 -125.5 507.624023438 -109 513.624023438 -89 c 0
 524.291015625 -52.3330078125 508.124023438 -24.3330078125 465.124023438 -5 c 0
 422.124023438 14.3330078125 370.791015625 28.3330078125 311.124023438 37 c 0
 251.458007812 45.6669921875 192.458007812 50.5 134.124023438 51.5 c 0
 75.791015625 52.5 36.6240234375 53.6669921875 16.6240234375 55 c 0
 -25.3759765625 57 -83.708984375 56.6669921875 -158.375976562 54 c 0
 -233.041992188 51.3330078125 -306.708984375 47.8330078125 -379.375976562 43.5 c 0
 -452.041992188 39.1669921875 -515.208984375 35.3330078125 -568.875976562 32 c 0
 -649.375976562 27 -649.375976562 27 -649.375976562 27 c 1
 -660.041992188 29 -665.208984375 35.3330078125 -664.875976562 46 c 0
 -664.541992188 56.6669921875 -659.375976562 62.6669921875 -649.375976562 64 c 0
EndSplineSet
Fore
SplineSet
-649.375976562 64 m 0
 -549.375976562 68.6669921875 -431.708984375 74.6669921875 -296.375976562 82 c 0
 -161.041992188 89.3330078125 -43.708984375 91.3330078125 55.6240234375 88 c 0
 142.291015625 86 225.624023438 80.8330078125 305.624023438 72.5 c 0
 385.624023438 64.1669921875 446.624023438 55.3330078125 488.624023438 46 c 0
 531.291015625 36 570.458007812 19.5 606.124023438 -3.5 c 0
 641.791015625 -26.5 662.291015625 -49.6669921875 667.624023438 -73 c 256
 672.958007812 -96.3330078125 673.291015625 -116 668.624023438 -132 c 0
 663.958007812 -148 637.958007812 -166.666992188 590.624023438 -188 c 1
 557.291015625 -195.333007812 522.124023438 -200.166992188 485.124023438 -202.5 c 0
 448.124023438 -204.833007812 415.624023438 -205.666992188 387.624023438 -205 c 1
 376.291015625 -200.333007812 375.458007812 -195.5 385.124023438 -190.5 c 0
 394.791015625 -185.5 408.124023438 -178.833007812 425.124023438 -170.5 c 0
 442.124023438 -162.166992188 459.624023438 -151.5 477.624023438 -138.5 c 0
 495.624023438 -125.5 507.624023438 -109 513.624023438 -89 c 0
 524.291015625 -52.3330078125 508.124023438 -24.3330078125 465.124023438 -5 c 0
 422.124023438 14.3330078125 370.791015625 28.3330078125 311.124023438 37 c 0
 251.458007812 45.6669921875 192.458007812 50.5 134.124023438 51.5 c 0
 75.791015625 52.5 36.6240234375 53.6669921875 16.6240234375 55 c 0
 -25.3759765625 57 -83.708984375 56.6669921875 -158.375976562 54 c 0
 -233.041992188 51.3330078125 -306.708984375 47.8330078125 -379.375976562 43.5 c 0
 -452.041992188 39.1669921875 -515.208984375 35.3330078125 -568.875976562 32 c 0
 -649.375976562 27 -649.375976562 27 -649.375976562 27 c 1
 -660.041992188 29 -665.208984375 35.3330078125 -664.875976562 46 c 0
 -664.541992188 56.6669921875 -659.375976562 62.6669921875 -649.375976562 64 c 0
EndSplineSet
Validated: 33
EndChar

StartChar: u1D05A
Encoding: 118874 118874 15
Width: 0
VWidth: 345
Flags: W
HStem: 101.5 48.5<-157.168 128.104> 426 31<664.058 728.401>
LayerCount: 2
Back
SplineSet
497.950195312 449 m 1
 537.950195312 451.666992188 574.1171875 454 606.450195312 456 c 0
 638.783203125 458 675.6171875 458.333007812 716.950195312 457 c 1
 725.6171875 454.333007812 729.450195312 448.333007812 728.450195312 439 c 0
 727.450195312 429.666992188 722.950195312 425.333007812 714.950195312 426 c 0
 710.950195312 425.333007812 708.6171875 425.166992188 707.950195312 425.5 c 0
 707.283203125 425.833007812 704.283203125 426 698.950195312 426 c 0
 683.6171875 424.666992188 658.783203125 410.166992188 624.450195312 382.5 c 0
 590.1171875 354.833007812 552.6171875 324.166992188 511.950195312 290.5 c 0
 471.283203125 256.833007812 440.1171875 232.333007812 418.450195312 217 c 0
 396.783203125 201.666992188 378.450195312 189.166992188 363.450195312 179.5 c 0
 348.450195312 169.833007812 323.950195312 157 289.950195312 141 c 0
 251.283203125 122.333007812 200.283203125 110.333007812 136.950195312 105 c 0
 73.6171875 99.6669921875 19.4501953125 98.5 -25.5498046875 101.5 c 0
 -70.5498046875 104.5 -109.3828125 110.166992188 -142.049804688 118.5 c 0
 -174.716796875 126.833007812 -213.716796875 138.833007812 -259.049804688 154.5 c 0
 -304.3828125 170.166992188 -368.049804688 201.666992188 -450.049804688 249 c 0
 -550.716796875 307.666992188 -614.216796875 346.333007812 -640.549804688 365 c 0
 -666.8828125 383.666992188 -695.049804688 403.333007812 -725.049804688 424 c 1
 -730.3828125 434 -729.716796875 443.833007812 -723.049804688 453.5 c 0
 -716.3828125 463.166992188 -704.716796875 463.333007812 -688.049804688 454 c 0
 -671.3828125 444 -637.216796875 421 -585.549804688 385 c 0
 -533.8828125 349 -467.716796875 308.333007812 -387.049804688 263 c 0
 -329.049804688 229.666992188 -265.8828125 202.833007812 -197.549804688 182.5 c 0
 -129.216796875 162.166992188 -71.0498046875 151.333007812 -23.0498046875 150 c 0
 19.6171875 149.333007812 61.9501953125 154 103.950195312 164 c 0
 145.950195312 174 192.950195312 197.333007812 244.950195312 234 c 1
 304.950195312 288 354.6171875 335.833007812 393.950195312 377.5 c 0
 433.283203125 419.166992188 467.950195312 443 497.950195312 449 c 1
EndSplineSet
Fore
SplineSet
497.950195312 449 m 1
 537.950195312 451.666992188 574.1171875 454 606.450195312 456 c 0
 638.783203125 458 675.6171875 458.333007812 716.950195312 457 c 1
 725.6171875 454.333007812 729.450195312 448.333007812 728.450195312 439 c 0
 727.450195312 429.666992188 722.950195312 425.333007812 714.950195312 426 c 0
 710.950195312 425.333007812 708.6171875 425.166992188 707.950195312 425.5 c 0
 707.283203125 425.833007812 704.283203125 426 698.950195312 426 c 0
 683.6171875 424.666992188 658.783203125 410.166992188 624.450195312 382.5 c 0
 590.1171875 354.833007812 552.6171875 324.166992188 511.950195312 290.5 c 0
 471.283203125 256.833007812 440.1171875 232.333007812 418.450195312 217 c 0
 396.783203125 201.666992188 378.450195312 189.166992188 363.450195312 179.5 c 0
 348.450195312 169.833007812 323.950195312 157 289.950195312 141 c 0
 251.283203125 122.333007812 200.283203125 110.333007812 136.950195312 105 c 0
 73.6171875 99.6669921875 19.4501953125 98.5 -25.5498046875 101.5 c 0
 -70.5498046875 104.5 -109.3828125 110.166992188 -142.049804688 118.5 c 0
 -174.716796875 126.833007812 -213.716796875 138.833007812 -259.049804688 154.5 c 0
 -304.3828125 170.166992188 -368.049804688 201.666992188 -450.049804688 249 c 0
 -550.716796875 307.666992188 -614.216796875 346.333007812 -640.549804688 365 c 0
 -666.8828125 383.666992188 -695.049804688 403.333007812 -725.049804688 424 c 1
 -730.3828125 434 -729.716796875 443.833007812 -723.049804688 453.5 c 0
 -716.3828125 463.166992188 -704.716796875 463.333007812 -688.049804688 454 c 0
 -671.3828125 444 -637.216796875 421 -585.549804688 385 c 0
 -533.8828125 349 -467.716796875 308.333007812 -387.049804688 263 c 0
 -329.049804688 229.666992188 -265.8828125 202.833007812 -197.549804688 182.5 c 0
 -129.216796875 162.166992188 -71.0498046875 151.333007812 -23.0498046875 150 c 0
 19.6171875 149.333007812 61.9501953125 154 103.950195312 164 c 0
 145.950195312 174 192.950195312 197.333007812 244.950195312 234 c 1
 304.950195312 288 354.6171875 335.833007812 393.950195312 377.5 c 0
 433.283203125 419.166992188 467.950195312 443 497.950195312 449 c 1
EndSplineSet
Validated: 33
EndChar

StartChar: u1D07E
Encoding: 118910 118910 16
Width: 457
VWidth: 345
Flags: W
HStem: 276 45<90 240 286 436>
VStem: 240 46<126.035 276 321 471>
LayerCount: 2
Back
SplineSet
286 276 m 1
 286 140 l 2
 286 130 281 125.333333333 271 126 c 2
 254 126 l 2
 244.666666667 126 240 130.666666667 240 140 c 2
 240 276 l 1
 105 276 l 2
 95 276 90 280.666666667 90 290 c 2
 90 307 l 2
 90 316.333333333 95 321 105 321 c 2
 241 321 l 1
 240 456 l 2
 240 466 244.666666667 471 254 471 c 2
 271 471 l 2
 280.333333333 471 285.333333333 466 286 456 c 2
 286 321 l 1
 421 321 l 2
 431 321 436 316.333333333 436 307 c 2
 436 290 l 2
 436 280.666666667 431 276 421 276 c 2
 286 276 l 1
EndSplineSet
Fore
SplineSet
286 276 m 1
 286 140 l 2
 286 130 281 125.333333333 271 126 c 2
 254 126 l 2
 244.666666667 126 240 130.666666667 240 140 c 2
 240 276 l 1
 105 276 l 2
 95 276 90 280.666666667 90 290 c 2
 90 307 l 2
 90 316.333333333 95 321 105 321 c 2
 241 321 l 1
 240 456 l 2
 240 466 244.666666667 471 254 471 c 2
 271 471 l 2
 280.333333333 471 285.333333333 466 286 456 c 2
 286 321 l 1
 421 321 l 2
 431 321 436 316.333333333 436 307 c 2
 436 290 l 2
 436 280.666666667 431 276 421 276 c 2
 286 276 l 1
EndSplineSet
Validated: 1
EndChar

StartChar: u1D07F
Encoding: 118911 118911 17
Width: 0
VWidth: 345
Flags: W
LayerCount: 2
Back
SplineSet
-206.377929688 768 m 0
 -200.377929688 765.333007812 -193.7109375 761.166992188 -186.377929688 755.5 c 0
 -179.044921875 749.833007812 -173.044921875 745.333007812 -168.377929688 742 c 0
 -140.377929688 722.666992188 -115.377929688 706.166992188 -93.3779296875 692.5 c 0
 -71.3779296875 678.833007812 -44.7109375 669 -13.3779296875 663 c 0
 1.955078125 660.333007812 18.6220703125 659.5 36.6220703125 660.5 c 0
 54.6220703125 661.5 66.955078125 663.666992188 73.6220703125 667 c 0
 92.955078125 673.666992188 103.455078125 685.5 105.122070312 702.5 c 0
 106.7890625 719.5 104.955078125 733.333007812 99.6220703125 744 c 0
 95.6220703125 751.333007812 94.1220703125 759.5 95.1220703125 768.5 c 0
 96.1220703125 777.5 100.622070312 782.666992188 108.622070312 784 c 1
 143.955078125 781.333007812 173.622070312 770.5 197.622070312 751.5 c 0
 221.622070312 732.5 234.2890625 715.666992188 235.622070312 701 c 1
 235.622070312 693 l 2
 235.622070312 681 229.2890625 666.333007812 216.622070312 649 c 0
 203.955078125 631.666992188 183.955078125 619.666992188 156.622070312 613 c 0
 91.955078125 598.333007812 28.6220703125 603 -33.3779296875 627 c 0
 -68.7109375 641 -103.044921875 657 -136.377929688 675 c 0
 -169.7109375 693 -200.044921875 713 -227.377929688 735 c 0
 -236.044921875 741.666992188 -237.877929688 750.333007812 -232.877929688 761 c 0
 -227.877929688 771.666992188 -219.044921875 774 -206.377929688 768 c 0
EndSplineSet
Fore
SplineSet
-206.377929688 768 m 0
 -200.377929688 765.333007812 -193.7109375 761.166992188 -186.377929688 755.5 c 0
 -179.044921875 749.833007812 -173.044921875 745.333007812 -168.377929688 742 c 0
 -140.377929688 722.666992188 -115.377929688 706.166992188 -93.3779296875 692.5 c 0
 -71.3779296875 678.833007812 -44.7109375 669 -13.3779296875 663 c 0
 1.955078125 660.333007812 18.6220703125 659.5 36.6220703125 660.5 c 0
 54.6220703125 661.5 66.955078125 663.666992188 73.6220703125 667 c 0
 92.955078125 673.666992188 103.455078125 685.5 105.122070312 702.5 c 0
 106.7890625 719.5 104.955078125 733.333007812 99.6220703125 744 c 0
 95.6220703125 751.333007812 94.1220703125 759.5 95.1220703125 768.5 c 0
 96.1220703125 777.5 100.622070312 782.666992188 108.622070312 784 c 1
 143.955078125 781.333007812 173.622070312 770.5 197.622070312 751.5 c 0
 221.622070312 732.5 234.2890625 715.666992188 235.622070312 701 c 1
 235.622070312 693 l 2
 235.622070312 681 229.2890625 666.333007812 216.622070312 649 c 0
 203.955078125 631.666992188 183.955078125 619.666992188 156.622070312 613 c 0
 91.955078125 598.333007812 28.6220703125 603 -33.3779296875 627 c 0
 -68.7109375 641 -103.044921875 657 -136.377929688 675 c 0
 -169.7109375 693 -200.044921875 713 -227.377929688 735 c 0
 -236.044921875 741.666992188 -237.877929688 750.333007812 -232.877929688 761 c 0
 -227.877929688 771.666992188 -219.044921875 774 -206.377929688 768 c 0
EndSplineSet
Validated: 33
EndChar

StartChar: u1D085
Encoding: 118917 118917 18
Width: 0
VWidth: 345
Flags: W
HStem: -109 108<-48.6037 48.9475> -108 30<-61.6676 -54.635>
VStem: -68.3418 135
LayerCount: 2
Back
SplineSet
-22.341796875 -1 m 2xa0
 36.658203125 -1 l 2
 41.658203125 -1 41.658203125 -1 52.658203125 -1 c 0xa0
 59.9912109375 -1 64.658203125 -2 66.658203125 -4 c 0
 69.32421875 -6.6669921875 68.82421875 -8.1669921875 65.158203125 -8.5 c 0
 61.4912109375 -8.8330078125 58.658203125 -16.3330078125 56.658203125 -31 c 2
 50.658203125 -78 l 2x60
 48.658203125 -98 38.9912109375 -108.333007812 21.658203125 -109 c 2
 -37.341796875 -109 l 2xa0
 -40.0087890625 -109 -45.841796875 -108.666992188 -54.841796875 -108 c 0
 -63.841796875 -107.333007812 -68.341796875 -105.333007812 -68.341796875 -102 c 0
 -68.341796875 -98 -66.67578125 -95.3330078125 -63.341796875 -94 c 0
 -60.0087890625 -92.6669921875 -58.0087890625 -87.3330078125 -57.341796875 -78 c 2x60
 -56.67578125 -78 -54.341796875 -62.3330078125 -50.341796875 -31 c 2
 -47.67578125 -11 -38.341796875 -1 -22.341796875 -1 c 2xa0
EndSplineSet
Fore
SplineSet
-22.341796875 -1 m 2xa0
 36.658203125 -1 l 2
 41.658203125 -1 41.658203125 -1 52.658203125 -1 c 0xa0
 59.9912109375 -1 64.658203125 -2 66.658203125 -4 c 0
 69.32421875 -6.6669921875 68.82421875 -8.1669921875 65.158203125 -8.5 c 0
 61.4912109375 -8.8330078125 58.658203125 -16.3330078125 56.658203125 -31 c 2
 50.658203125 -78 l 2x60
 48.658203125 -98 38.9912109375 -108.333007812 21.658203125 -109 c 2
 -37.341796875 -109 l 2xa0
 -40.0087890625 -109 -45.841796875 -108.666992188 -54.841796875 -108 c 0
 -63.841796875 -107.333007812 -68.341796875 -105.333007812 -68.341796875 -102 c 0
 -68.341796875 -98 -66.67578125 -95.3330078125 -63.341796875 -94 c 0
 -60.0087890625 -92.6669921875 -58.0087890625 -87.3330078125 -57.341796875 -78 c 2x60
 -56.67578125 -78 -54.341796875 -62.3330078125 -50.341796875 -31 c 2
 -47.67578125 -11 -38.341796875 -1 -22.341796875 -1 c 2xa0
EndSplineSet
Validated: 1
EndChar

StartChar: u1D086
Encoding: 118918 118918 19
Width: 8
VWidth: 345
Flags: W
HStem: -109 108<-157.561 -59.558 67.4638 165.727>
LayerCount: 2
Back
SplineSet
-131.5625 -1 m 2
 -71.5625 -1 l 2
 -66.5625 -1 -66.5625 -1 -55.5625 -1 c 0
 -48.2294921875 -1 -43.5625 -2 -41.5625 -4 c 0
 -38.8955078125 -6.6669921875 -39.3955078125 -8.1669921875 -43.0625 -8.5 c 0
 -46.7294921875 -8.8330078125 -49.5625 -16.3330078125 -51.5625 -31 c 2
 -57.5625 -78 l 2
 -60.2294921875 -98 -69.8955078125 -108.333007812 -86.5625 -109 c 2
 -145.5625 -109 l 2
 -148.895507812 -109 -154.729492188 -108.666992188 -163.0625 -108 c 0
 -171.395507812 -107.333007812 -175.895507812 -105.333007812 -176.5625 -102 c 0
 -176.5625 -98 -175.0625 -95.3330078125 -172.0625 -94 c 0
 -169.0625 -92.6669921875 -166.895507812 -87.3330078125 -165.5625 -78 c 2
 -159.5625 -31 l 2
 -156.229492188 -11 -146.895507812 -1 -131.5625 -1 c 2
94.4375 -1 m 2
 153.4375 -1 l 2
 158.4375 -1 158.4375 -1 168.9375 -1 c 0
 175.9375 -1 180.770507812 -2 183.4375 -4 c 0
 185.4375 -6.6669921875 184.770507812 -8.1669921875 181.4375 -8.5 c 0
 178.104492188 -8.8330078125 175.4375 -16.3330078125 173.4375 -31 c 2
 167.4375 -78 l 2
 165.4375 -98 155.770507812 -108.333007812 138.4375 -109 c 2
 79.4375 -109 l 2
 76.1044921875 -109 70.2705078125 -108.666992188 61.9375 -108 c 0
 53.6044921875 -107.333007812 49.1044921875 -105.333007812 48.4375 -102 c 0
 48.4375 -98 50.1044921875 -95.3330078125 53.4375 -94 c 0
 56.7705078125 -92.6669921875 58.7705078125 -87.3330078125 59.4375 -78 c 2
 65.4375 -31 l 2
 68.7705078125 -11 78.4375 -1 94.4375 -1 c 2
EndSplineSet
Fore
SplineSet
-131.5625 -1 m 2
 -71.5625 -1 l 2
 -66.5625 -1 -66.5625 -1 -55.5625 -1 c 0
 -48.2294921875 -1 -43.5625 -2 -41.5625 -4 c 0
 -38.8955078125 -6.6669921875 -39.3955078125 -8.1669921875 -43.0625 -8.5 c 0
 -46.7294921875 -8.8330078125 -49.5625 -16.3330078125 -51.5625 -31 c 2
 -57.5625 -78 l 2
 -60.2294921875 -98 -69.8955078125 -108.333007812 -86.5625 -109 c 2
 -145.5625 -109 l 2
 -148.895507812 -109 -154.729492188 -108.666992188 -163.0625 -108 c 0
 -171.395507812 -107.333007812 -175.895507812 -105.333007812 -176.5625 -102 c 0
 -176.5625 -98 -175.0625 -95.3330078125 -172.0625 -94 c 0
 -169.0625 -92.6669921875 -166.895507812 -87.3330078125 -165.5625 -78 c 2
 -159.5625 -31 l 2
 -156.229492188 -11 -146.895507812 -1 -131.5625 -1 c 2
94.4375 -1 m 2
 153.4375 -1 l 2
 158.4375 -1 158.4375 -1 168.9375 -1 c 0
 175.9375 -1 180.770507812 -2 183.4375 -4 c 0
 185.4375 -6.6669921875 184.770507812 -8.1669921875 181.4375 -8.5 c 0
 178.104492188 -8.8330078125 175.4375 -16.3330078125 173.4375 -31 c 2
 167.4375 -78 l 2
 165.4375 -98 155.770507812 -108.333007812 138.4375 -109 c 2
 79.4375 -109 l 2
 76.1044921875 -109 70.2705078125 -108.666992188 61.9375 -108 c 0
 53.6044921875 -107.333007812 49.1044921875 -105.333007812 48.4375 -102 c 0
 48.4375 -98 50.1044921875 -95.3330078125 53.4375 -94 c 0
 56.7705078125 -92.6669921875 58.7705078125 -87.3330078125 59.4375 -78 c 2
 65.4375 -31 l 2
 68.7705078125 -11 78.4375 -1 94.4375 -1 c 2
EndSplineSet
Validated: 1
EndChar

StartChar: u1D0A3
Encoding: 118947 118947 20
Width: 0
VWidth: 345
Flags: W
VStem: -163 55.5<449.226 565.713> 38.5 60<150.096 415.891> 70 44<592 645.235>
LayerCount: 2
Back
SplineSet
3 613 m 4x80
 -15 621 -33 618.5 -51 605.5 c 4
 -69 592.5 -84 572.666992188 -96 546 c 4
 -108 519.333007812 -111.833007812 494 -107.5 470 c 4
 -103.166992188 446 -92 430 -74 422 c 5
 -51.3330078125 414 -29.8330078125 414.666992188 -9.5 424 c 4
 10.8330078125 433.333007812 25.3330078125 455 34 489 c 4
 51.3330078125 555.666992188 41 597 3 613 c 4x80
65 592 m 5
 70 646 l 5
 84 650 98.6669921875 649 114 643 c 5xa0
 114.666992188 619 113.333007812 578.333007812 110 521 c 4
 106.666992188 463.666992188 103.666992188 354.333007812 101 193 c 4
 101 184.333007812 100.166992188 175.5 98.5 166.5 c 4
 96.8330078125 157.5 94.6669921875 152 92 150 c 4
 78.6669921875 140 64 139 48 147 c 4
 43.3330078125 149 40.1669921875 155.166992188 38.5 165.5 c 4xc0
 36.8330078125 175.833007812 36 185 36 193 c 4
 36 216.333007812 37.1669921875 232.166992188 39.5 240.5 c 4
 41.8330078125 248.833007812 43.3330078125 256 44 262 c 4
 48.6669921875 298 52 328.666992188 54 354 c 4
 56 379.333007812 58 410.333007812 60 447 c 5
 34 411.666992188 -4.6669921875 396.333007812 -56 401 c 4
 -92 404.333007812 -119.666992188 419.166992188 -139 445.5 c 4
 -158.333007812 471.833007812 -166.333007812 501.666992188 -163 535 c 260
 -159.666992188 568.333007812 -145.666992188 595.166992188 -121 615.5 c 4
 -96.3330078125 635.833007812 -66 644.666992188 -30 642 c 4
 14.6669921875 637.333007812 46.3330078125 620.666992188 65 592 c 5
EndSplineSet
Fore
SplineSet
3 613 m 4x80
 -15 621 -33 618.5 -51 605.5 c 4
 -69 592.5 -84 572.666992188 -96 546 c 4
 -108 519.333007812 -111.833007812 494 -107.5 470 c 4
 -103.166992188 446 -92 430 -74 422 c 5
 -51.3330078125 414 -29.8330078125 414.666992188 -9.5 424 c 4
 10.8330078125 433.333007812 25.3330078125 455 34 489 c 4
 51.3330078125 555.666992188 41 597 3 613 c 4x80
65 592 m 5
 70 646 l 5
 84 650 98.6669921875 649 114 643 c 5xa0
 114.666992188 619 113.333007812 578.333007812 110 521 c 4
 106.666992188 463.666992188 103.666992188 354.333007812 101 193 c 4
 101 184.333007812 100.166992188 175.5 98.5 166.5 c 4
 96.8330078125 157.5 94.6669921875 152 92 150 c 4
 78.6669921875 140 64 139 48 147 c 4
 43.3330078125 149 40.1669921875 155.166992188 38.5 165.5 c 4xc0
 36.8330078125 175.833007812 36 185 36 193 c 4
 36 216.333007812 37.1669921875 232.166992188 39.5 240.5 c 4
 41.8330078125 248.833007812 43.3330078125 256 44 262 c 4
 48.6669921875 298 52 328.666992188 54 354 c 4
 56 379.333007812 58 410.333007812 60 447 c 5
 34 411.666992188 -4.6669921875 396.333007812 -56 401 c 4
 -92 404.333007812 -119.666992188 419.166992188 -139 445.5 c 4
 -158.333007812 471.833007812 -166.333007812 501.666992188 -163 535 c 260
 -159.666992188 568.333007812 -145.666992188 595.166992188 -121 615.5 c 4
 -96.3330078125 635.833007812 -66 644.666992188 -30 642 c 4
 14.6669921875 637.333007812 46.3330078125 620.666992188 65 592 c 5
EndSplineSet
Validated: 33
EndChar

StartChar: u1D0A7
Encoding: 118951 118951 21
Width: 652
VWidth: 345
Flags: W
HStem: 170 34.5<304.556 352.757 587.419 634.938>
VStem: 195.945 93<239.048 514.724> 476.945 95<240.412 513.875>
LayerCount: 2
Back
SplineSet
356.9453125 176 m 5
 354.278320312 170.666992188 343.4453125 168.666992188 324.4453125 170 c 4
 305.4453125 171.333007812 285.612304688 178.5 264.9453125 191.5 c 4
 244.278320312 204.5 226.278320312 223.833007812 210.9453125 249.5 c 4
 195.612304688 275.166992188 190.612304688 309.666992188 195.9453125 353 c 4
 203.9453125 423 205.112304688 480.5 199.4453125 525.5 c 4
 193.778320312 570.5 170.9453125 588.666992188 130.9453125 580 c 4
 105.612304688 574 98.9453125 559.666992188 110.9453125 537 c 4
 122.9453125 514.333007812 115.278320312 498.666992188 87.9453125 490 c 4
 75.9453125 486 64.7783203125 488.666992188 54.4453125 498 c 4
 44.1123046875 507.333007812 38.9453125 518.333007812 38.9453125 531 c 4
 38.9453125 561.666992188 52.2783203125 582 78.9453125 592 c 4
 93.6123046875 597.333007812 113.278320312 600 137.9453125 600 c 4
 162.612304688 600 183.9453125 594.333007812 201.9453125 583 c 4
 238.612304688 559 262.278320312 532.333007812 272.9453125 503 c 4
 283.612304688 473.666992188 288.9453125 405 288.9453125 297 c 4
 288.9453125 244.333007812 300.612304688 213.5 323.9453125 204.5 c 4
 347.278320312 195.5 358.278320312 186 356.9453125 176 c 5
638.9453125 176 m 5
 636.278320312 170.666992188 625.4453125 168.666992188 606.4453125 170 c 4
 587.4453125 171.333007812 567.4453125 178.5 546.4453125 191.5 c 4
 525.4453125 204.5 507.4453125 223.833007812 492.4453125 249.5 c 4
 477.4453125 275.166992188 472.278320312 309.666992188 476.9453125 353 c 4
 484.9453125 423 486.278320312 480.5 480.9453125 525.5 c 4
 475.612304688 570.5 452.9453125 588.666992188 412.9453125 580 c 4
 387.612304688 574 380.9453125 559.666992188 392.9453125 537 c 4
 404.9453125 514.333007812 397.278320312 498.666992188 369.9453125 490 c 4
 357.9453125 486 346.9453125 488.666992188 336.9453125 498 c 4
 326.9453125 507.333007812 321.9453125 518.333007812 321.9453125 531 c 4
 321.9453125 561.666992188 334.9453125 582 360.9453125 592 c 4
 375.612304688 597.333007812 395.278320312 600 419.9453125 600 c 4
 444.612304688 600 466.278320312 594.333007812 484.9453125 583 c 4
 520.9453125 559 544.278320312 532.333007812 554.9453125 503 c 4
 565.612304688 473.666992188 571.278320312 405 571.9453125 297 c 4
 571.9453125 244.333007812 583.4453125 213.5 606.4453125 204.5 c 4
 629.4453125 195.5 640.278320312 186 638.9453125 176 c 5
EndSplineSet
Fore
SplineSet
356.9453125 176 m 5
 354.278320312 170.666992188 343.4453125 168.666992188 324.4453125 170 c 4
 305.4453125 171.333007812 285.612304688 178.5 264.9453125 191.5 c 4
 244.278320312 204.5 226.278320312 223.833007812 210.9453125 249.5 c 4
 195.612304688 275.166992188 190.612304688 309.666992188 195.9453125 353 c 4
 203.9453125 423 205.112304688 480.5 199.4453125 525.5 c 4
 193.778320312 570.5 170.9453125 588.666992188 130.9453125 580 c 4
 105.612304688 574 98.9453125 559.666992188 110.9453125 537 c 4
 122.9453125 514.333007812 115.278320312 498.666992188 87.9453125 490 c 4
 75.9453125 486 64.7783203125 488.666992188 54.4453125 498 c 4
 44.1123046875 507.333007812 38.9453125 518.333007812 38.9453125 531 c 4
 38.9453125 561.666992188 52.2783203125 582 78.9453125 592 c 4
 93.6123046875 597.333007812 113.278320312 600 137.9453125 600 c 4
 162.612304688 600 183.9453125 594.333007812 201.9453125 583 c 4
 238.612304688 559 262.278320312 532.333007812 272.9453125 503 c 4
 283.612304688 473.666992188 288.9453125 405 288.9453125 297 c 4
 288.9453125 244.333007812 300.612304688 213.5 323.9453125 204.5 c 4
 347.278320312 195.5 358.278320312 186 356.9453125 176 c 5
638.9453125 176 m 5
 636.278320312 170.666992188 625.4453125 168.666992188 606.4453125 170 c 4
 587.4453125 171.333007812 567.4453125 178.5 546.4453125 191.5 c 4
 525.4453125 204.5 507.4453125 223.833007812 492.4453125 249.5 c 4
 477.4453125 275.166992188 472.278320312 309.666992188 476.9453125 353 c 4
 484.9453125 423 486.278320312 480.5 480.9453125 525.5 c 4
 475.612304688 570.5 452.9453125 588.666992188 412.9453125 580 c 4
 387.612304688 574 380.9453125 559.666992188 392.9453125 537 c 4
 404.9453125 514.333007812 397.278320312 498.666992188 369.9453125 490 c 4
 357.9453125 486 346.9453125 488.666992188 336.9453125 498 c 4
 326.9453125 507.333007812 321.9453125 518.333007812 321.9453125 531 c 4
 321.9453125 561.666992188 334.9453125 582 360.9453125 592 c 4
 375.612304688 597.333007812 395.278320312 600 419.9453125 600 c 4
 444.612304688 600 466.278320312 594.333007812 484.9453125 583 c 4
 520.9453125 559 544.278320312 532.333007812 554.9453125 503 c 4
 565.612304688 473.666992188 571.278320312 405 571.9453125 297 c 4
 571.9453125 244.333007812 583.4453125 213.5 606.4453125 204.5 c 4
 629.4453125 195.5 640.278320312 186 638.9453125 176 c 5
EndSplineSet
Validated: 33
EndChar

StartChar: u1D0A5
Encoding: 118949 118949 22
Width: 826
VWidth: 345
Flags: W
VStem: 65 89<462.719 550.274>
LayerCount: 2
Back
SplineSet
65 528 m 4
 73.666015625 551.333007812 98 559.333007812 138 552 c 4
 146.666015625 550.666992188 152 541.333007812 154 524 c 4
 156 506.666992188 150 488 136 468 c 4
 125.333007812 454 121.833007812 439.333007812 125.5 424 c 4
 129.166015625 408.666992188 149 398.666992188 185 394 c 5
 262.333007812 389.333007812 323 389.333007812 367 394 c 4
 411 398.666992188 470.333007812 404.666992188 545 412 c 4
 589 415.333007812 637.333007812 417.333007812 690 418 c 4
 724 417.333007812 747.5 404.666992188 760.5 380 c 4
 773.5 355.333007812 778.333007812 329.333007812 775 302 c 4
 769.666015625 256 749 234.666992188 713 238 c 4
 704.333007812 238.666992188 695.833007812 244.833007812 687.5 256.5 c 4
 679.166015625 268.166992188 678.666015625 281.666992188 686 297 c 4
 692.666015625 312.333007812 700.833007812 320.5 710.5 321.5 c 4
 720.166015625 322.5 727 331 731 347 c 4
 737.666015625 373 725 385 693 383 c 4
 595 377.666992188 520.666015625 371.666992188 470 365 c 4
 419.333007812 358.333007812 371.5 354.5 326.5 353.5 c 4
 281.5 352.5 239.666015625 354.666992188 201 360 c 4
 174.333007812 364 147.166015625 373.166992188 119.5 387.5 c 4
 91.8330078125 401.833007812 73.3330078125 424.333007812 64 455 c 4
 56 482.333007812 56.3330078125 506.666992188 65 528 c 4
EndSplineSet
Fore
SplineSet
65 528 m 4
 73.666015625 551.333007812 98 559.333007812 138 552 c 4
 146.666015625 550.666992188 152 541.333007812 154 524 c 4
 156 506.666992188 150 488 136 468 c 4
 125.333007812 454 121.833007812 439.333007812 125.5 424 c 4
 129.166015625 408.666992188 149 398.666992188 185 394 c 5
 262.333007812 389.333007812 323 389.333007812 367 394 c 4
 411 398.666992188 470.333007812 404.666992188 545 412 c 4
 589 415.333007812 637.333007812 417.333007812 690 418 c 4
 724 417.333007812 747.5 404.666992188 760.5 380 c 4
 773.5 355.333007812 778.333007812 329.333007812 775 302 c 4
 769.666015625 256 749 234.666992188 713 238 c 4
 704.333007812 238.666992188 695.833007812 244.833007812 687.5 256.5 c 4
 679.166015625 268.166992188 678.666015625 281.666992188 686 297 c 4
 692.666015625 312.333007812 700.833007812 320.5 710.5 321.5 c 4
 720.166015625 322.5 727 331 731 347 c 4
 737.666015625 373 725 385 693 383 c 4
 595 377.666992188 520.666015625 371.666992188 470 365 c 4
 419.333007812 358.333007812 371.5 354.5 326.5 353.5 c 4
 281.5 352.5 239.666015625 354.666992188 201 360 c 4
 174.333007812 364 147.166015625 373.166992188 119.5 387.5 c 4
 91.8330078125 401.833007812 73.3330078125 424.333007812 64 455 c 4
 56 482.333007812 56.3330078125 506.666992188 65 528 c 4
EndSplineSet
EndChar

StartChar: u1D0A8
Encoding: 118952 118952 23
Width: 657
VWidth: 345
Flags: W
HStem: 530 71<278.845 366.527>
VStem: 235 30<317.573 514.232> 250 15<254.53 386.596> 366 80<383.659 526.176> 452 83<146.5 352.656>
LayerCount: 2
Back
SplineSet
177 345 m 4xd8
 151.666992188 327 135 303 127 273 c 4
 121.666992188 249.666992188 121.333007812 227.666992188 126 207 c 4
 131.333007812 185.666992188 154 185.666992188 194 207 c 4
 216.666992188 218.333007812 231.166992188 230 237.5 242 c 4
 243.833007812 254 248 269.5 250 288.5 c 4xb8
 252 307.5 248.333007812 348.666992188 239 412 c 4
 237 424.666992188 235.666992188 446.666992188 235 478 c 4
 235 508 244 537.333007812 262 566 c 4
 272 582 287.666992188 592 309 596 c 4
 329.666992188 599.333007812 347.666992188 601 363 601 c 4
 398.333007812 601 424.333007812 584.333007812 441 551 c 5
 443.666992188 522.333007812 445 500.666992188 445 486 c 4
 444.333007812 468.666992188 444.666992188 452.666992188 446 438 c 5
 446 415.333007812 449.333007812 397 456 383 c 5
 462 375 476.333007812 369.666992188 499 367 c 5
 521.666992188 359 533.666992188 338.333007812 535 305 c 4
 535.666992188 283 535 261.166992188 533 239.5 c 4
 531 217.833007812 531.666992188 196 535 174 c 4
 535.666992188 167.333007812 538.333007812 156 543 140 c 4
 546.333007812 130 558 121.666992188 578 115 c 4
 582.666992188 113.666992188 585.666992188 112.666992188 587 112 c 5
 587 109.333007812 575.166992188 109.5 551.5 112.5 c 4
 527.833007812 115.5 513 118.333007812 507 121 c 4
 479.666992188 133 462.666992188 155 456 187 c 4
 452 207 450.666992188 227.333007812 452 248 c 4
 453.333007812 268.666992188 452 289.333007812 448 310 c 5
 448 336 440 351 424 355 c 5
 409.333007812 356.333007812 395 365.333007812 381 382 c 4
 367.666992188 399.333007812 362.666992188 427.666992188 366 467 c 5
 372.666992188 499 368 518.333007812 352 525 c 4
 346.666992188 527 335 528.666992188 317 530 c 4
 301 530 289 525.666992188 281 517 c 5
 271.666992188 503 267.333007812 487 268 469 c 4
 268 456.333007812 267 437.666992188 265 413 c 5
 267.666992188 355 269.5 310.5 270.5 279.5 c 4
 271.5 248.5 269.333007812 222.5 264 201.5 c 4
 258.666992188 180.5 243.333007812 163.666992188 218 151 c 4
 168.666992188 123.666992188 127.666992188 128.666992188 95 166 c 4
 87.6669921875 176 80 188 72 202 c 5
 65.3330078125 226 64.6669921875 251.666992188 70 279 c 4
 81.3330078125 323.666992188 104 353.666992188 138 369 c 5
 151.333007812 377.666992188 169 383.333007812 191 386 c 5
 202.333007812 385.333007812 212.666992188 383.666992188 222 381 c 5
 240.666992188 373 242.333007812 368.333007812 227 367 c 4
 212.333007812 365 195.666992188 357.666992188 177 345 c 4xd8
EndSplineSet
Fore
SplineSet
177 345 m 4xd8
 151.666992188 327 135 303 127 273 c 4
 121.666992188 249.666992188 121.333007812 227.666992188 126 207 c 4
 131.333007812 185.666992188 154 185.666992188 194 207 c 4
 216.666992188 218.333007812 231.166992188 230 237.5 242 c 4
 243.833007812 254 248 269.5 250 288.5 c 4xb8
 252 307.5 248.333007812 348.666992188 239 412 c 4
 237 424.666992188 235.666992188 446.666992188 235 478 c 4
 235 508 244 537.333007812 262 566 c 4
 272 582 287.666992188 592 309 596 c 4
 329.666992188 599.333007812 347.666992188 601 363 601 c 4
 398.333007812 601 424.333007812 584.333007812 441 551 c 5
 443.666992188 522.333007812 445 500.666992188 445 486 c 4
 444.333007812 468.666992188 444.666992188 452.666992188 446 438 c 5
 446 415.333007812 449.333007812 397 456 383 c 5
 462 375 476.333007812 369.666992188 499 367 c 5
 521.666992188 359 533.666992188 338.333007812 535 305 c 4
 535.666992188 283 535 261.166992188 533 239.5 c 4
 531 217.833007812 531.666992188 196 535 174 c 4
 535.666992188 167.333007812 538.333007812 156 543 140 c 4
 546.333007812 130 558 121.666992188 578 115 c 4
 582.666992188 113.666992188 585.666992188 112.666992188 587 112 c 5
 587 109.333007812 575.166992188 109.5 551.5 112.5 c 4
 527.833007812 115.5 513 118.333007812 507 121 c 4
 479.666992188 133 462.666992188 155 456 187 c 4
 452 207 450.666992188 227.333007812 452 248 c 4
 453.333007812 268.666992188 452 289.333007812 448 310 c 5
 448 336 440 351 424 355 c 5
 409.333007812 356.333007812 395 365.333007812 381 382 c 4
 367.666992188 399.333007812 362.666992188 427.666992188 366 467 c 5
 372.666992188 499 368 518.333007812 352 525 c 4
 346.666992188 527 335 528.666992188 317 530 c 4
 301 530 289 525.666992188 281 517 c 5
 271.666992188 503 267.333007812 487 268 469 c 4
 268 456.333007812 267 437.666992188 265 413 c 5
 267.666992188 355 269.5 310.5 270.5 279.5 c 4
 271.5 248.5 269.333007812 222.5 264 201.5 c 4
 258.666992188 180.5 243.333007812 163.666992188 218 151 c 4
 168.666992188 123.666992188 127.666992188 128.666992188 95 166 c 4
 87.6669921875 176 80 188 72 202 c 5
 65.3330078125 226 64.6669921875 251.666992188 70 279 c 4
 81.3330078125 323.666992188 104 353.666992188 138 369 c 5
 151.333007812 377.666992188 169 383.333007812 191 386 c 5
 202.333007812 385.333007812 212.666992188 383.666992188 222 381 c 5
 240.666992188 373 242.333007812 368.333007812 227 367 c 4
 212.333007812 365 195.666992188 357.666992188 177 345 c 4xd8
EndSplineSet
Validated: 33
EndChar

StartChar: u1D0A9
Encoding: 118953 118953 24
Width: 564
VWidth: 345
Flags: W
VStem: 47 71<493.918 583.062>
LayerCount: 2
Back
SplineSet
47 533 m 4
 45 559 53.333984375 580 72 596 c 4
 86 606.666992188 110.333984375 610 145 606 c 4
 179.666992188 602 210.333984375 580 237 540 c 5
 388 302 l 6
 388.666992188 301.333007812 394.5 316.5 405.5 347.5 c 4
 416.5 378.5 428.666992188 395.333007812 442 398 c 4
 472.666992188 402.666992188 491.666992188 398.333007812 499 385 c 4
 501.666992188 378.333007812 500.666992188 375.333007812 496 376 c 4
 491.333984375 376.666992188 483.666992188 369.666992188 473 355 c 5
 473 355 473 355 460.5 332.5 c 4
 452.166992188 317.5 446.5 300.666992188 443.5 282 c 4
 440.5 263.333007812 443.5 245.666992188 452.5 229 c 4
 461.5 212.333007812 483.333984375 202 518 198 c 5
 524 183.333007812 513.666992188 178.666992188 487 184 c 4
 468.333984375 188.666992188 448.166992188 199.333007812 426.5 216 c 4
 404.833984375 232.666992188 391 247.666992188 385 261 c 5
 297 395 l 5
 223 191 l 5
 152 192 l 5
 262 447 l 5
 239.333984375 504.333007812 208.833984375 546 170.5 572 c 4
 132.166992188 598 114.666992188 580 118 518 c 4
 118.666992188 505.333007812 108 496.166992188 86 490.5 c 4
 64 484.833007812 51 499 47 533 c 4
EndSplineSet
Fore
SplineSet
47 533 m 4
 45 559 53.333984375 580 72 596 c 4
 86 606.666992188 110.333984375 610 145 606 c 4
 179.666992188 602 210.333984375 580 237 540 c 5
 388 302 l 6
 388.666992188 301.333007812 394.5 316.5 405.5 347.5 c 4
 416.5 378.5 428.666992188 395.333007812 442 398 c 4
 472.666992188 402.666992188 491.666992188 398.333007812 499 385 c 4
 501.666992188 378.333007812 500.666992188 375.333007812 496 376 c 4
 491.333984375 376.666992188 483.666992188 369.666992188 473 355 c 5
 473 355 473 355 460.5 332.5 c 4
 452.166992188 317.5 446.5 300.666992188 443.5 282 c 4
 440.5 263.333007812 443.5 245.666992188 452.5 229 c 4
 461.5 212.333007812 483.333984375 202 518 198 c 5
 524 183.333007812 513.666992188 178.666992188 487 184 c 4
 468.333984375 188.666992188 448.166992188 199.333007812 426.5 216 c 4
 404.833984375 232.666992188 391 247.666992188 385 261 c 5
 297 395 l 5
 223 191 l 5
 152 192 l 5
 262 447 l 5
 239.333984375 504.333007812 208.833984375 546 170.5 572 c 4
 132.166992188 598 114.666992188 580 118 518 c 4
 118.666992188 505.333007812 108 496.166992188 86 490.5 c 4
 64 484.833007812 51 499 47 533 c 4
EndSplineSet
Validated: 33
EndChar

StartChar: u1D0D4
Encoding: 118996 118996 25
Width: 0
Flags: W
HStem: 286 25<-45.9977 44.8165> 492 24<-43.9577 43.7252>
VStem: -116 26<354.237 447.208> 89 25<355.538 446.897>
LayerCount: 2
Back
SplineSet
-74 313 m 1
 -176 212 l 1
 -187 199 l 2
 -193.666992188 191.666992188 -200.333007812 191.333007812 -207 198 c 0
 -213.666992188 204.666992188 -213.666992188 212 -207 220 c 2
 -178 247 l 1
 -91 331 l 1
 -107 351.666992188 -115.333007812 375 -116 401 c 0
 -116 432.333007812 -104.5 459.333007812 -81.5 482 c 0
 -58.5 504.666992188 -31.3330078125 516 0 516 c 0
 31.3330078125 516 58.1669921875 504.833007812 80.5 482.5 c 0
 102.833007812 460.166992188 114 433 114 401 c 256
 114 369.666992188 102.833007812 342.666992188 80.5 320 c 0
 58.1669921875 297.333007812 31.3330078125 286 0 286 c 0
 -28 286 -52.6669921875 295 -74 313 c 1
0 492 m 256
 -24.6669921875 492 -45.8330078125 483 -63.5 465 c 0
 -81.1669921875 447 -90 425.666992188 -90 401 c 256
 -90 376.333007812 -81.3330078125 355.166992188 -64 337.5 c 0
 -46.6669921875 319.833007812 -25.3330078125 311 0 311 c 256
 24.6669921875 311 45.6669921875 319.833007812 63 337.5 c 0
 80.3330078125 355.166992188 89 376.333007812 89 401 c 256
 89 425.666992188 80.3330078125 447 63 465 c 0
 45.6669921875 483 24.6669921875 492 0 492 c 256
EndSplineSet
Fore
SplineSet
-74 313 m 1
 -176 212 l 1
 -187 199 l 2
 -193.666992188 191.666992188 -200.333007812 191.333007812 -207 198 c 0
 -213.666992188 204.666992188 -213.666992188 212 -207 220 c 2
 -178 247 l 1
 -91 331 l 1
 -107 351.666992188 -115.333007812 375 -116 401 c 0
 -116 432.333007812 -104.5 459.333007812 -81.5 482 c 0
 -58.5 504.666992188 -31.3330078125 516 0 516 c 0
 31.3330078125 516 58.1669921875 504.833007812 80.5 482.5 c 0
 102.833007812 460.166992188 114 433 114 401 c 256
 114 369.666992188 102.833007812 342.666992188 80.5 320 c 0
 58.1669921875 297.333007812 31.3330078125 286 0 286 c 0
 -28 286 -52.6669921875 295 -74 313 c 1
0 492 m 256
 -24.6669921875 492 -45.8330078125 483 -63.5 465 c 0
 -81.1669921875 447 -90 425.666992188 -90 401 c 256
 -90 376.333007812 -81.3330078125 355.166992188 -64 337.5 c 0
 -46.6669921875 319.833007812 -25.3330078125 311 0 311 c 256
 24.6669921875 311 45.6669921875 319.833007812 63 337.5 c 0
 80.3330078125 355.166992188 89 376.333007812 89 401 c 256
 89 425.666992188 80.3330078125 447 63 465 c 0
 45.6669921875 483 24.6669921875 492 0 492 c 256
EndSplineSet
Validated: 1
EndChar

StartChar: u1D0D0
Encoding: 118992 118992 26
Width: 0
Flags: W
HStem: 290 24<-63.637 25.8165> 492 25<-64.3935 27.4842>
VStem: -132 25<357.169 448.582> 70 25<357.169 448.65>
LayerCount: 2
Back
SplineSet
54 491 m 1
 154 591 l 1
 166 604 l 2
 172.666992188 610.666992188 179.333007812 610.666992188 186 604 c 0
 192.666992188 597.333007812 192.333007812 590.333007812 185 583 c 2
 157 556 l 1
 71 473 l 1
 86.3330078125 452.333007812 94.3330078125 429 95 403 c 0
 95 371.666992188 83.8330078125 345 61.5 323 c 0
 39.1669921875 301 12.3330078125 290 -19 290 c 0
 -50.3330078125 290 -77 301 -99 323 c 0
 -121 345 -132 371.666992188 -132 403 c 0
 -132 433.666992188 -120.833007812 460.333007812 -98.5 483 c 0
 -76.1669921875 505.666992188 -49.6669921875 517 -19 517 c 0
 8.3330078125 517 32.6669921875 508.333007812 54 491 c 1
-19 314 m 0
 5.6669921875 314 26.6669921875 322.666992188 44 340 c 0
 61.3330078125 357.333007812 70 378.333007812 70 403 c 0
 70 427.666992188 61.5 448.666992188 44.5 466 c 0
 27.5 483.333007812 6.3330078125 492 -19 492 c 0
 -43.6669921875 492 -64.5 483.333007812 -81.5 466 c 0
 -98.5 448.666992188 -107 427.666992188 -107 403 c 0
 -107 378.333007812 -98.5 357.333007812 -81.5 340 c 0
 -64.5 322.666992188 -43.6669921875 314 -19 314 c 0
EndSplineSet
Fore
SplineSet
54 491 m 1
 154 591 l 1
 166 604 l 2
 172.666992188 610.666992188 179.333007812 610.666992188 186 604 c 0
 192.666992188 597.333007812 192.333007812 590.333007812 185 583 c 2
 157 556 l 1
 71 473 l 1
 86.3330078125 452.333007812 94.3330078125 429 95 403 c 0
 95 371.666992188 83.8330078125 345 61.5 323 c 0
 39.1669921875 301 12.3330078125 290 -19 290 c 0
 -50.3330078125 290 -77 301 -99 323 c 0
 -121 345 -132 371.666992188 -132 403 c 0
 -132 433.666992188 -120.833007812 460.333007812 -98.5 483 c 0
 -76.1669921875 505.666992188 -49.6669921875 517 -19 517 c 0
 8.3330078125 517 32.6669921875 508.333007812 54 491 c 1
-19 314 m 0
 5.6669921875 314 26.6669921875 322.666992188 44 340 c 0
 61.3330078125 357.333007812 70 378.333007812 70 403 c 0
 70 427.666992188 61.5 448.666992188 44.5 466 c 0
 27.5 483.333007812 6.3330078125 492 -19 492 c 0
 -43.6669921875 492 -64.5 483.333007812 -81.5 466 c 0
 -98.5 448.666992188 -107 427.666992188 -107 403 c 0
 -107 378.333007812 -98.5 357.333007812 -81.5 340 c 0
 -64.5 322.666992188 -43.6669921875 314 -19 314 c 0
EndSplineSet
Validated: 1
EndChar

StartChar: u1D0F1
Encoding: 119025 119025 27
Width: 279
VWidth: 345
Flags: W
HStem: 418 29<-41.6787 0.88916>
VStem: -42 303
LayerCount: 2
Back
SplineSet
-21 447 m 0
 1.66666666667 447 25.5 446.666666667 50.5 446 c 0
 75.5 445.333333333 98 443.666666667 118 441 c 1
 132 441 147.5 413.333333333 164.5 358 c 0
 181.5 302.666666667 201.666666667 254.333333333 225 213 c 0
 233 199 240.333333333 191 247 189 c 0
 253 187 257.666666667 183.666666667 261 179 c 0
 264.333333333 174.333333333 261 170 251 166 c 1
 227.666666667 162 204.333333333 160.166666667 181 160.5 c 0
 157.666666667 160.833333333 135 162.666666667 113 166 c 1
 93 174 76.5 199.5 63.5 242.5 c 0
 50.5 285.5 32.3333333333 336 9 394 c 0
 7 397.333333333 3 401.833333333 -3 407.5 c 0
 -9 413.166666667 -16 416.666666667 -24 418 c 0
 -34.6666666667 420 -40.6666666667 425.333333333 -42 434 c 0
 -43.3333333333 442.666666667 -36.3333333333 447 -21 447 c 0
EndSplineSet
Fore
SplineSet
-21 447 m 0
 1.66666666667 447 25.5 446.666666667 50.5 446 c 0
 75.5 445.333333333 98 443.666666667 118 441 c 1
 132 441 147.5 413.333333333 164.5 358 c 0
 181.5 302.666666667 201.666666667 254.333333333 225 213 c 0
 233 199 240.333333333 191 247 189 c 0
 253 187 257.666666667 183.666666667 261 179 c 0
 264.333333333 174.333333333 261 170 251 166 c 1
 227.666666667 162 204.333333333 160.166666667 181 160.5 c 0
 157.666666667 160.833333333 135 162.666666667 113 166 c 1
 93 174 76.5 199.5 63.5 242.5 c 0
 50.5 285.5 32.3333333333 336 9 394 c 0
 7 397.333333333 3 401.833333333 -3 407.5 c 0
 -9 413.166666667 -16 416.666666667 -24 418 c 0
 -34.6666666667 420 -40.6666666667 425.333333333 -42 434 c 0
 -43.3333333333 442.666666667 -36.3333333333 447 -21 447 c 0
EndSplineSet
Validated: 33
EndChar

StartChar: u1D0F3
Encoding: 119027 119027 28
Width: 279
VWidth: 345
Flags: W
HStem: 418 29<-41.6787 0.88916>
VStem: -42 303
LayerCount: 2
Back
SplineSet
-21 447 m 0
 1.66666666667 447 25.5 446.666666667 50.5 446 c 0
 75.5 445.333333333 98 443.666666667 118 441 c 1
 132 441 147.5 413.333333333 164.5 358 c 0
 181.5 302.666666667 201.666666667 254.333333333 225 213 c 0
 233 199 240.333333333 191 247 189 c 0
 253 187 257.666666667 183.666666667 261 179 c 0
 264.333333333 174.333333333 261 170 251 166 c 1
 227.666666667 162 204.333333333 160.166666667 181 160.5 c 0
 157.666666667 160.833333333 135 162.666666667 113 166 c 1
 93 174 76.5 199.5 63.5 242.5 c 0
 50.5 285.5 32.3333333333 336 9 394 c 0
 7 397.333333333 3 401.833333333 -3 407.5 c 0
 -9 413.166666667 -16 416.666666667 -24 418 c 0
 -34.6666666667 420 -40.6666666667 425.333333333 -42 434 c 0
 -43.3333333333 442.666666667 -36.3333333333 447 -21 447 c 0
EndSplineSet
Fore
SplineSet
-21 447 m 0
 1.66666666667 447 25.5 446.666666667 50.5 446 c 0
 75.5 445.333333333 98 443.666666667 118 441 c 1
 132 441 147.5 413.333333333 164.5 358 c 0
 181.5 302.666666667 201.666666667 254.333333333 225 213 c 0
 233 199 240.333333333 191 247 189 c 0
 253 187 257.666666667 183.666666667 261 179 c 0
 264.333333333 174.333333333 261 170 251 166 c 1
 227.666666667 162 204.333333333 160.166666667 181 160.5 c 0
 157.666666667 160.833333333 135 162.666666667 113 166 c 1
 93 174 76.5 199.5 63.5 242.5 c 0
 50.5 285.5 32.3333333333 336 9 394 c 0
 7 397.333333333 3 401.833333333 -3 407.5 c 0
 -9 413.166666667 -16 416.666666667 -24 418 c 0
 -34.6666666667 420 -40.6666666667 425.333333333 -42 434 c 0
 -43.3333333333 442.666666667 -36.3333333333 447 -21 447 c 0
EndSplineSet
Validated: 33
EndChar

StartChar: u1D0F2
Encoding: 119026 119026 29
Width: 738
VWidth: 345
Flags: W
HStem: 423 29<85.7838 128.574 394.26 436.917>
LayerCount: 2
Back
SplineSet
107 452 m 4
 129.666666667 452 153.666666667 451.666666667 179 451 c 4
 204.333333333 450.333333333 227 448.333333333 247 445 c 5
 261 445 276.5 417.5 293.5 362.5 c 4
 310.5 307.5 330.666666667 259.333333333 354 218 c 4
 362 204 369.333333333 196 376 194 c 4
 382 192 386.666666667 188.5 390 183.5 c 4
 393.333333333 178.5 390 174 380 170 c 5
 356.666666667 166 333.166666667 164.333333333 309.5 165 c 4
 285.833333333 165.666666667 263.333333333 167.333333333 242 170 c 5
 222 178 205.5 203.666666667 192.5 247 c 4
 179.5 290.333333333 161.333333333 340.666666667 138 398 c 4
 136 401.333333333 131.833333333 405.833333333 125.5 411.5 c 4
 119.166666667 417.166666667 112 421 104 423 c 4
 93.3333333333 425 87.1666666667 430.166666667 85.5 438.5 c 4
 83.8333333333 446.833333333 91 451.333333333 107 452 c 4
416 452 m 4
 438.666666667 452 462.5 451.666666667 487.5 451 c 4
 512.5 450.333333333 535.333333333 448.333333333 556 445 c 5
 570 445 585.333333333 417.5 602 362.5 c 4
 618.666666667 307.5 639 259.333333333 663 218 c 4
 671 204 678.333333333 196 685 194 c 4
 691 192 695.5 188.5 698.5 183.5 c 4
 701.5 178.5 698 174 688 170 c 5
 664.666666667 166 641.333333333 164.333333333 618 165 c 4
 594.666666667 165.666666667 572.333333333 167.333333333 551 170 c 5
 531 178 514.333333333 203.666666667 501 247 c 4
 487.666666667 290.333333333 469.333333333 340.666666667 446 398 c 4
 444 401.333333333 440 405.833333333 434 411.5 c 4
 428 417.166666667 420.666666667 421 412 423 c 4
 401.333333333 425 395.333333333 430.166666667 394 438.5 c 4
 392.666666667 446.833333333 400 451.333333333 416 452 c 4
EndSplineSet
Fore
SplineSet
107 452 m 4
 129.666666667 452 153.666666667 451.666666667 179 451 c 4
 204.333333333 450.333333333 227 448.333333333 247 445 c 5
 261 445 276.5 417.5 293.5 362.5 c 4
 310.5 307.5 330.666666667 259.333333333 354 218 c 4
 362 204 369.333333333 196 376 194 c 4
 382 192 386.666666667 188.5 390 183.5 c 4
 393.333333333 178.5 390 174 380 170 c 5
 356.666666667 166 333.166666667 164.333333333 309.5 165 c 4
 285.833333333 165.666666667 263.333333333 167.333333333 242 170 c 5
 222 178 205.5 203.666666667 192.5 247 c 4
 179.5 290.333333333 161.333333333 340.666666667 138 398 c 4
 136 401.333333333 131.833333333 405.833333333 125.5 411.5 c 4
 119.166666667 417.166666667 112 421 104 423 c 4
 93.3333333333 425 87.1666666667 430.166666667 85.5 438.5 c 4
 83.8333333333 446.833333333 91 451.333333333 107 452 c 4
416 452 m 4
 438.666666667 452 462.5 451.666666667 487.5 451 c 4
 512.5 450.333333333 535.333333333 448.333333333 556 445 c 5
 570 445 585.333333333 417.5 602 362.5 c 4
 618.666666667 307.5 639 259.333333333 663 218 c 4
 671 204 678.333333333 196 685 194 c 4
 691 192 695.5 188.5 698.5 183.5 c 4
 701.5 178.5 698 174 688 170 c 5
 664.666666667 166 641.333333333 164.333333333 618 165 c 4
 594.666666667 165.666666667 572.333333333 167.333333333 551 170 c 5
 531 178 514.333333333 203.666666667 501 247 c 4
 487.666666667 290.333333333 469.333333333 340.666666667 446 398 c 4
 444 401.333333333 440 405.833333333 434 411.5 c 4
 428 417.166666667 420.666666667 421 412 423 c 4
 401.333333333 425 395.333333333 430.166666667 394 438.5 c 4
 392.666666667 446.833333333 400 451.333333333 416 452 c 4
EndSplineSet
Validated: 33
EndChar

StartChar: u1D0F4
Encoding: 119028 119028 30
Width: 4
VWidth: 345
Flags: W
LayerCount: 2
Back
SplineSet
-204.377929688 768 m 0
 -198.377929688 765.333007812 -191.7109375 761.166992188 -184.377929688 755.5 c 0
 -177.044921875 749.833007812 -171.044921875 745.333007812 -166.377929688 742 c 0
 -138.377929688 722.666992188 -113.377929688 706.166992188 -91.3779296875 692.5 c 0
 -69.3779296875 678.833007812 -42.7109375 669 -11.3779296875 663 c 0
 3.955078125 660.333007812 20.6220703125 659.5 38.6220703125 660.5 c 0
 56.6220703125 661.5 68.955078125 663.666992188 75.6220703125 667 c 0
 94.955078125 673.666992188 105.455078125 685.5 107.122070312 702.5 c 0
 108.7890625 719.5 106.955078125 733.333007812 101.622070312 744 c 0
 97.6220703125 751.333007812 96.1220703125 759.5 97.1220703125 768.5 c 0
 98.1220703125 777.5 102.622070312 782.666992188 110.622070312 784 c 1
 145.955078125 781.333007812 175.622070312 770.5 199.622070312 751.5 c 0
 223.622070312 732.5 236.2890625 715.666992188 237.622070312 701 c 1
 237.622070312 693 l 2
 237.622070312 681 231.2890625 666.333007812 218.622070312 649 c 0
 205.955078125 631.666992188 185.955078125 619.666992188 158.622070312 613 c 0
 93.955078125 598.333007812 30.6220703125 603 -31.3779296875 627 c 0
 -66.7109375 641 -101.044921875 657 -134.377929688 675 c 0
 -167.7109375 693 -198.044921875 713 -225.377929688 735 c 0
 -234.044921875 741.666992188 -235.877929688 750.333007812 -230.877929688 761 c 0
 -225.877929688 771.666992188 -217.044921875 774 -204.377929688 768 c 0
EndSplineSet
Fore
SplineSet
-204.377929688 768 m 0
 -198.377929688 765.333007812 -191.7109375 761.166992188 -184.377929688 755.5 c 0
 -177.044921875 749.833007812 -171.044921875 745.333007812 -166.377929688 742 c 0
 -138.377929688 722.666992188 -113.377929688 706.166992188 -91.3779296875 692.5 c 0
 -69.3779296875 678.833007812 -42.7109375 669 -11.3779296875 663 c 0
 3.955078125 660.333007812 20.6220703125 659.5 38.6220703125 660.5 c 0
 56.6220703125 661.5 68.955078125 663.666992188 75.6220703125 667 c 0
 94.955078125 673.666992188 105.455078125 685.5 107.122070312 702.5 c 0
 108.7890625 719.5 106.955078125 733.333007812 101.622070312 744 c 0
 97.6220703125 751.333007812 96.1220703125 759.5 97.1220703125 768.5 c 0
 98.1220703125 777.5 102.622070312 782.666992188 110.622070312 784 c 1
 145.955078125 781.333007812 175.622070312 770.5 199.622070312 751.5 c 0
 223.622070312 732.5 236.2890625 715.666992188 237.622070312 701 c 1
 237.622070312 693 l 2
 237.622070312 681 231.2890625 666.333007812 218.622070312 649 c 0
 205.955078125 631.666992188 185.955078125 619.666992188 158.622070312 613 c 0
 93.955078125 598.333007812 30.6220703125 603 -31.3779296875 627 c 0
 -66.7109375 641 -101.044921875 657 -134.377929688 675 c 0
 -167.7109375 693 -198.044921875 713 -225.377929688 735 c 0
 -234.044921875 741.666992188 -235.877929688 750.333007812 -230.877929688 761 c 0
 -225.877929688 771.666992188 -217.044921875 774 -204.377929688 768 c 0
EndSplineSet
Validated: 33
EndChar

StartChar: u1D0F5
Encoding: 119029 119029 31
Width: 0
Flags: W
HStem: 183.5 38<-90.5 156.174>
VStem: -154.5 66.5<34.5 183.5>
LayerCount: 2
Back
SplineSet
-143.5 221.5 m 0
 -94.1669921875 221.5 -44.6669921875 221.666992188 5 222 c 0
 54.6669921875 222.333007812 103.833007812 222.833007812 152.5 223.5 c 1
 155.833007812 218.833007812 157.166992188 212.833007812 156.5 205.5 c 0
 155.833007812 198.166992188 154.833007812 191.833007812 153.5 186.5 c 1
 143.5 184.5 110.666992188 183.5 55 183.5 c 0
 -28.5 183.5 -28.5 183.5 -90.5 183.5 c 1
 -90.5 148.833007812 -89.6669921875 113.5 -88 77.5 c 0
 -86.3330078125 41.5 -87.5 23.1669921875 -91.5 22.5 c 0
 -101.5 22.5 -112.333007812 21.6669921875 -124 20 c 0
 -135.666992188 18.3330078125 -145.833007812 19.1669921875 -154.5 22.5 c 0
 -155.166992188 22.5 -155.833007812 25.8330078125 -156.5 32.5 c 0
 -156.5 32.5 -156.5 32.5 -155.5 33.5 c 0
 -154.5 34.5 -154.5 34.5 -154.5 34.5 c 0
 -154.5 69.8330078125 -154.333007812 98.5 -154 120.5 c 0
 -153.666992188 142.5 -153.5 170.833007812 -153.5 205.5 c 0
 -153.5 215.5 -150.166992188 220.833007812 -143.5 221.5 c 0
EndSplineSet
Fore
SplineSet
-143.5 221.5 m 0
 -94.1669921875 221.5 -44.6669921875 221.666992188 5 222 c 0
 54.6669921875 222.333007812 103.833007812 222.833007812 152.5 223.5 c 1
 155.833007812 218.833007812 157.166992188 212.833007812 156.5 205.5 c 0
 155.833007812 198.166992188 154.833007812 191.833007812 153.5 186.5 c 1
 143.5 184.5 110.666992188 183.5 55 183.5 c 0
 -28.5 183.5 -28.5 183.5 -90.5 183.5 c 1
 -90.5 148.833007812 -89.6669921875 113.5 -88 77.5 c 0
 -86.3330078125 41.5 -87.5 23.1669921875 -91.5 22.5 c 0
 -101.5 22.5 -112.333007812 21.6669921875 -124 20 c 0
 -135.666992188 18.3330078125 -145.833007812 19.1669921875 -154.5 22.5 c 0
 -155.166992188 22.5 -155.833007812 25.8330078125 -156.5 32.5 c 0
 -156.5 32.5 -156.5 32.5 -155.5 33.5 c 0
 -154.5 34.5 -154.5 34.5 -154.5 34.5 c 0
 -154.5 69.8330078125 -154.333007812 98.5 -154 120.5 c 0
 -153.666992188 142.5 -153.5 170.833007812 -153.5 205.5 c 0
 -153.5 215.5 -150.166992188 220.833007812 -143.5 221.5 c 0
EndSplineSet
Validated: 33
EndChar

StartChar: u1D0F0
Encoding: 119024 119024 32
Width: 738
VWidth: 345
Flags: W
HStem: 423 29<85.7838 128.574 394.26 436.917>
LayerCount: 2
Back
SplineSet
107 452 m 4
 129.666666667 452 153.666666667 451.666666667 179 451 c 4
 204.333333333 450.333333333 227 448.333333333 247 445 c 5
 261 445 276.5 417.5 293.5 362.5 c 4
 310.5 307.5 330.666666667 259.333333333 354 218 c 4
 362 204 369.333333333 196 376 194 c 4
 382 192 386.666666667 188.5 390 183.5 c 4
 393.333333333 178.5 390 174 380 170 c 5
 356.666666667 166 333.166666667 164.333333333 309.5 165 c 4
 285.833333333 165.666666667 263.333333333 167.333333333 242 170 c 5
 222 178 205.5 203.666666667 192.5 247 c 4
 179.5 290.333333333 161.333333333 340.666666667 138 398 c 4
 136 401.333333333 131.833333333 405.833333333 125.5 411.5 c 4
 119.166666667 417.166666667 112 421 104 423 c 4
 93.3333333333 425 87.1666666667 430.166666667 85.5 438.5 c 4
 83.8333333333 446.833333333 91 451.333333333 107 452 c 4
416 452 m 4
 438.666666667 452 462.5 451.666666667 487.5 451 c 4
 512.5 450.333333333 535.333333333 448.333333333 556 445 c 5
 570 445 585.333333333 417.5 602 362.5 c 4
 618.666666667 307.5 639 259.333333333 663 218 c 4
 671 204 678.333333333 196 685 194 c 4
 691 192 695.5 188.5 698.5 183.5 c 4
 701.5 178.5 698 174 688 170 c 5
 664.666666667 166 641.333333333 164.333333333 618 165 c 4
 594.666666667 165.666666667 572.333333333 167.333333333 551 170 c 5
 531 178 514.333333333 203.666666667 501 247 c 4
 487.666666667 290.333333333 469.333333333 340.666666667 446 398 c 4
 444 401.333333333 440 405.833333333 434 411.5 c 4
 428 417.166666667 420.666666667 421 412 423 c 4
 401.333333333 425 395.333333333 430.166666667 394 438.5 c 4
 392.666666667 446.833333333 400 451.333333333 416 452 c 4
EndSplineSet
Fore
SplineSet
107 452 m 4
 129.666666667 452 153.666666667 451.666666667 179 451 c 4
 204.333333333 450.333333333 227 448.333333333 247 445 c 5
 261 445 276.5 417.5 293.5 362.5 c 4
 310.5 307.5 330.666666667 259.333333333 354 218 c 4
 362 204 369.333333333 196 376 194 c 4
 382 192 386.666666667 188.5 390 183.5 c 4
 393.333333333 178.5 390 174 380 170 c 5
 356.666666667 166 333.166666667 164.333333333 309.5 165 c 4
 285.833333333 165.666666667 263.333333333 167.333333333 242 170 c 5
 222 178 205.5 203.666666667 192.5 247 c 4
 179.5 290.333333333 161.333333333 340.666666667 138 398 c 4
 136 401.333333333 131.833333333 405.833333333 125.5 411.5 c 4
 119.166666667 417.166666667 112 421 104 423 c 4
 93.3333333333 425 87.1666666667 430.166666667 85.5 438.5 c 4
 83.8333333333 446.833333333 91 451.333333333 107 452 c 4
416 452 m 4
 438.666666667 452 462.5 451.666666667 487.5 451 c 4
 512.5 450.333333333 535.333333333 448.333333333 556 445 c 5
 570 445 585.333333333 417.5 602 362.5 c 4
 618.666666667 307.5 639 259.333333333 663 218 c 4
 671 204 678.333333333 196 685 194 c 4
 691 192 695.5 188.5 698.5 183.5 c 4
 701.5 178.5 698 174 688 170 c 5
 664.666666667 166 641.333333333 164.333333333 618 165 c 4
 594.666666667 165.666666667 572.333333333 167.333333333 551 170 c 5
 531 178 514.333333333 203.666666667 501 247 c 4
 487.666666667 290.333333333 469.333333333 340.666666667 446 398 c 4
 444 401.333333333 440 405.833333333 434 411.5 c 4
 428 417.166666667 420.666666667 421 412 423 c 4
 401.333333333 425 395.333333333 430.166666667 394 438.5 c 4
 392.666666667 446.833333333 400 451.333333333 416 452 c 4
EndSplineSet
Validated: 33
EndChar

StartChar: ison
Encoding: 57344 57344 33
Width: 1268
VWidth: 1392
Flags: W
HStem: -6.95996 93.96<242.934 710.644> 0 118.32<473.463 1066.94> 190.24 80.04<144.331 293.302>
VStem: 30 175.16<104.514 190.571>
AnchorPoint: "yfenAbove" 878.8 409 basechar 0
AnchorPoint: "yfenBelow" 877.8 -272 basechar 0
AnchorPoint: "koronis" 731.8 569 basechar 0
AnchorPoint: "endofonon" 750.8 -294 basechar 0
AnchorPoint: "measureNumber" 30.7998 521 basechar 0
AnchorPoint: "isonIndicator" 30.7998 681 basechar 0
AnchorPoint: "gorgonBottom" 780 -80 basechar 0
AnchorPoint: "heteronConnecting" 1648.8 -251 basechar 0
AnchorPoint: "heteron" 975.8 -25 basechar 0
AnchorPoint: "omalonConnecting" 1419.8 -99 basechar 0
AnchorPoint: "omalon" 979.8 -99 basechar 0
AnchorPoint: "apli" 751.8 -202 basechar 0
AnchorPoint: "antikenoma" 768.8 -67 basechar 0
AnchorPoint: "noteTop" 262.8 444 basechar 0
AnchorPoint: "fthoraBottom" 737.8 -23 basechar 0
AnchorPoint: "fthoraTop" 736.8 275 basechar 0
AnchorPoint: "diesis" 348.8 -99 basechar 0
AnchorPoint: "yfesis" 1264.8 387 basechar 0
AnchorPoint: "psifiston" 788.8 -119 basechar 0
AnchorPoint: "klasmaTop" 750 250 basechar 0
AnchorPoint: "gorgonTop" 780 220 basechar 0
LayerCount: 2
Back
SplineSet
56.7998046875 211 m 1
 31.466796875 257 24.6328125 296.5 36.2998046875 329.5 c 0
 47.966796875 362.5 68.7998046875 380 98.7998046875 382 c 0
 118.1328125 383.333007812 132.966796875 381.833007812 143.299804688 377.5 c 0
 153.6328125 373.166992188 162.6328125 368.833007812 170.299804688 364.5 c 0
 177.966796875 360.166992188 185.299804688 355.5 192.299804688 350.5 c 0
 199.299804688 345.5 205.966796875 340.333007812 212.299804688 335 c 0
 218.6328125 329.666992188 222.966796875 324.833007812 225.299804688 320.5 c 0
 227.6328125 316.166992188 228.6328125 312.166992188 228.299804688 308.5 c 0
 227.966796875 304.833007812 226.6328125 302.333007812 224.299804688 301 c 0
 221.966796875 299.666992188 214.966796875 296.666992188 203.299804688 292 c 0
 191.6328125 287.333007812 176.466796875 279.833007812 157.799804688 269.5 c 0
 139.1328125 259.166992188 130.1328125 241.666992188 130.799804688 217 c 0
 130.799804688 191.666992188 157.1328125 167.833007812 209.799804688 145.5 c 0
 262.466796875 123.166992188 340.799804688 114 444.799804688 118 c 1
 1178.79980469 137 l 2
 1200.79980469 137 1218.46679688 135.5 1231.79980469 132.5 c 0
 1245.1328125 129.5 1256.96679688 125.666992188 1267.29980469 121 c 0
 1277.6328125 116.333007812 1286.6328125 111.833007812 1294.29980469 107.5 c 0
 1301.96679688 103.166992188 1310.79980469 96.5 1320.79980469 87.5 c 0
 1330.79980469 78.5 1342.29980469 67 1355.29980469 53 c 0
 1368.29980469 39 1376.79980469 28.6669921875 1380.79980469 22 c 0
 1384.79980469 15.3330078125 1386.79980469 8.8330078125 1386.79980469 2.5 c 0
 1386.79980469 -3.8330078125 1384.79980469 -8 1380.79980469 -10 c 0
 1376.79980469 -12 1372.46679688 -13 1367.79980469 -13 c 0
 1363.1328125 -13 1358.1328125 -12 1352.79980469 -10 c 0
 1347.46679688 -8 1340.96679688 -5.6669921875 1333.29980469 -3 c 0
 1325.6328125 -0.3330078125 1317.1328125 2.3330078125 1307.79980469 5 c 0
 1298.46679688 7.6669921875 1289.79980469 9.6669921875 1281.79980469 11 c 0
 1273.79980469 12.3330078125 1262.79980469 13.3330078125 1248.79980469 14 c 2
 853.799804688 20 l 2
 792.466796875 20 727.966796875 22.5 660.299804688 27.5 c 0
 592.6328125 32.5 528.799804688 39 468.799804688 47 c 0
 408.799804688 55 356.1328125 63.6669921875 310.799804688 73 c 0
 265.466796875 82.3330078125 234.466796875 90 217.799804688 96 c 0
 189.1328125 108 163.6328125 119.833007812 141.299804688 131.5 c 0
 118.966796875 143.166992188 90.7998046875 169.666992188 56.7998046875 211 c 1
EndSplineSet
Fore
SplineSet
382.639648438 186.1796875 m 0xb0
 382.639648438 217.565429688 270.361328125 270.280273438 183.700195312 270.280273438 c 0
 104.961914062 270.280273438 46.0537109375 228.797851562 45.66015625 228.51953125 c 0
 32.8525390625 219.479492188 30 210.04296875 30 171.099609375 c 0
 30 109.837890625 47.2353515625 95.2431640625 142.520507812 52.779296875 c 0
 206.44921875 24.2900390625 276.571289062 -6.9599609375 424.979492188 -6.9599609375 c 0xb0
 453.979492188 -6.9599609375 610.772460938 -4.6396484375 895.359375 0 c 1
 957.818359375 0 1114.88964844 0 1174.91992188 -31.3203125 c 0
 1192.70605469 -40.6005859375 1205.85253906 -45.240234375 1214.359375 -45.240234375 c 0
 1229.82617188 -45.240234375 1237.55957031 -35.9599609375 1237.55957031 -17.400390625 c 0
 1237.55957031 -17.2138671875 1237.51074219 26.5244140625 1191.16015625 53.3603515625 c 0
 1116.14648438 96.6669921875 987 118.3203125 803.719726562 118.3203125 c 0x70
 714.013671875 118.3203125 598.013671875 112.133789062 455.719726562 99.759765625 c 1
 431.359375 97.4404296875 l 2
 351.706054688 90.48046875 302.40625 87 283.459960938 87 c 0
 247.572265625 87 240.37109375 89.4912109375 220.239257812 107.299804688 c 0
 210.186523438 116.193359375 205.16015625 126.052734375 205.16015625 136.879882812 c 0
 205.16015625 157.502929688 248.35546875 190.240234375 263.740234375 190.240234375 c 0
 285.022460938 190.240234375 330.6171875 157.759765625 351.899414062 157.759765625 c 0
 367.138671875 157.759765625 382.639648438 168.754882812 382.639648438 186.1796875 c 0xb0
EndSplineSet
LCarets2: 1 0
EndChar

StartChar: oligonKentimaBelow
Encoding: 57347 57347 34
Width: 1298
VWidth: 1392
Flags: W
HStem: -258.68 31.3203<1016.24 1043.68> -11.5996 132.239<248.523 766.675> -6.95996 135.72<535.187 1057.8>
AnchorPoint: "apli" 711.8 -412 basechar 0
AnchorPoint: "gorgonBottom" 500 -80 basechar 0
AnchorPoint: "yfenAbove" 878.8 409 basechar 0
AnchorPoint: "yfenBelow" 877.8 -432 basechar 0
AnchorPoint: "koronis" 731.8 569 basechar 0
AnchorPoint: "endofonon" 750.8 -294 basechar 0
AnchorPoint: "measureNumber" 30.7998 521 basechar 0
AnchorPoint: "isonIndicator" 30.7998 681 basechar 0
AnchorPoint: "heteronConnecting" 1640.8 -283 basechar 0
AnchorPoint: "heteron" 975.8 -265 basechar 0
AnchorPoint: "omalon" 981.8 -299 basechar 0
AnchorPoint: "omalonConnecting" 1421.8 -285 basechar 0
AnchorPoint: "antikenoma" 768.8 -287 basechar 0
AnchorPoint: "noteTop" 262.8 444 basechar 0
AnchorPoint: "fthoraTop" 736.8 275 basechar 0
AnchorPoint: "fthoraBottom" 368.8 -125 basechar 0
AnchorPoint: "diesis" 348.8 -99 basechar 0
AnchorPoint: "yfesis" 1264.8 387 basechar 0
AnchorPoint: "klasmaTop" 650 250 basechar 0
AnchorPoint: "gorgonTop" 650 220 basechar 0
AnchorPoint: "psifiston" 838.8 -149 basechar 0
LayerCount: 2
Back
SplineSet
811.799804688 178 m 0
 834.465820312 178 858.465820312 177.833007812 883.799804688 177.5 c 0
 909.1328125 177.166992188 931.799804688 175.666992188 951.799804688 173 c 1
 965.799804688 173 979.1328125 156 991.799804688 122 c 0
 1004.46582031 88 1022.46582031 54 1045.79980469 20 c 0
 1053.79980469 8 1061.1328125 1.3330078125 1067.79980469 0 c 0
 1073.79980469 -1.3330078125 1078.46582031 -4 1081.79980469 -8 c 0
 1085.1328125 -12 1081.79980469 -15.6669921875 1071.79980469 -19 c 1
 1048.46582031 -22.3330078125 1024.96582031 -23.6669921875 1001.29980469 -23 c 0
 977.6328125 -22.3330078125 955.1328125 -21 933.799804688 -19 c 1
 913.799804688 -12.3330078125 899.465820312 3.1669921875 890.799804688 27.5 c 0
 882.1328125 51.8330078125 866.1328125 87.6669921875 842.799804688 135 c 1
 835.465820312 146.333007812 824.1328125 153 808.799804688 155 c 0
 798.1328125 156.333007812 791.965820312 160.5 790.299804688 167.5 c 0
 788.6328125 174.5 795.799804688 178 811.799804688 178 c 0
33.7998046875 382 m 0
 37.1328125 387.333007812 40.9658203125 390.166992188 45.2998046875 390.5 c 0
 49.6328125 390.833007812 54.1328125 389.666992188 58.7998046875 387 c 0
 63.4658203125 384.333007812 69.4658203125 381.166992188 76.7998046875 377.5 c 0
 84.1328125 373.833007812 93.4658203125 370.833007812 104.799804688 368.5 c 0
 116.1328125 366.166992188 132.1328125 365 152.799804688 365 c 2
 1176.79980469 365 l 2
 1195.46582031 365 1212.46582031 363.5 1227.79980469 360.5 c 0
 1243.1328125 357.5 1257.1328125 352.666992188 1269.79980469 346 c 0
 1282.46582031 339.333007812 1292.29980469 333.333007812 1299.29980469 328 c 0
 1306.29980469 322.666992188 1315.79980469 313.5 1327.79980469 300.5 c 0
 1339.79980469 287.5 1350.29980469 275 1359.29980469 263 c 0
 1368.29980469 251 1370.1328125 239.333007812 1364.79980469 228 c 1
 1359.46582031 220 1353.29980469 218.333007812 1346.29980469 223 c 0
 1339.29980469 227.666992188 1331.1328125 231.666992188 1321.79980469 235 c 0
 1312.46582031 238.333007812 1302.29980469 240.666992188 1291.29980469 242 c 0
 1280.29980469 243.333007812 1263.1328125 244 1239.79980469 244 c 2
 230.799804688 244 l 2
 215.465820312 244 201.465820312 245 188.799804688 247 c 0
 176.1328125 249 166.299804688 251.166992188 159.299804688 253.5 c 0
 152.299804688 255.833007812 144.799804688 259 136.799804688 263 c 0
 128.799804688 267 120.299804688 271.833007812 111.299804688 277.5 c 0
 102.299804688 283.166992188 92.7998046875 291.166992188 82.7998046875 301.5 c 0
 72.7998046875 311.833007812 62.6328125 323.833007812 52.2998046875 337.5 c 0
 41.9658203125 351.166992188 35.4658203125 360.666992188 32.7998046875 366 c 0
 30.1328125 371.333007812 30.4658203125 376.666992188 33.7998046875 382 c 0
EndSplineSet
Fore
SplineSet
481.240234375 -11.599609375 m 0xc0
 484.638671875 -11.599609375 656.608398438 -6.9599609375 821.119140625 -6.9599609375 c 0
 988.051757812 -6.9599609375 1105.31933594 -6.9599609375 1215.51953125 -44.66015625 c 0
 1232.16015625 -50.353515625 1252.23632812 -60.3203125 1252.63964844 -60.3203125 c 0
 1262.69238281 -60.3203125 1267.71972656 -52.2001953125 1267.71972656 -35.9599609375 c 256
 1267.71972656 -18.9482421875 1261.53320312 -5.8017578125 1249.16015625 3.48046875 c 0
 1168.73242188 69.2138671875 1079.79882812 109.426757812 982.359375 124.120117188 c 0
 964.572265625 127.212890625 933.639648438 128.759765625 889.559570312 128.759765625 c 0xa0
 787.1796875 128.759765625 677.21875 120.639648438 423.239257812 120.639648438 c 0
 338.172851562 120.639648438 282.87890625 122.186523438 257.359375 125.280273438 c 0
 154.505859375 138.426757812 89.1591796875 152.733398438 61.3193359375 168.200195312 c 0
 58.2255859375 170.51953125 54.166015625 171.6796875 49.1396484375 171.6796875 c 0
 23.259765625 171.6796875 -14.7763671875 61.2255859375 253.879882812 8.1201171875 c 0
 328.892578125 -5.0263671875 404.6796875 -11.599609375 481.240234375 -11.599609375 c 0xc0
877.959960938 -161.8203125 m 0
 902.63671875 -243.048828125 923.61328125 -258.6796875 1002.65917969 -258.6796875 c 0
 1030.11230469 -258.6796875 1043.83984375 -252.879882812 1043.83984375 -241.280273438 c 0
 1043.83984375 -240.484375 1043.51367188 -231.720703125 1029.33984375 -227.359375 c 0
 1003.88964844 -219.530273438 991.979492188 -108.791015625 960.899414062 -76.5595703125 c 0
 925.9296875 -40.294921875 830.450195312 -49.7802734375 822.280273438 -66.1201171875 c 1
 822.280273438 -68.4404296875 l 2
 822.280273438 -81.658203125 843.611328125 -73.5712890625 856.5 -100.33984375 c 0
 861.526367188 -110.780273438 868.6796875 -131.2734375 877.959960938 -161.8203125 c 0
EndSplineSet
EndChar

StartChar: oligon
Encoding: 57345 57345 35
Width: 1298
VWidth: 1392
Flags: W
HStem: -11.5996 132.239<248.523 766.675> -6.95996 135.72<535.187 1057.8>
AnchorPoint: "yfenAbove" 878.8 409 basechar 0
AnchorPoint: "yfenBelow" 877.8 -272 basechar 0
AnchorPoint: "koronis" 634.8 569 basechar 0
AnchorPoint: "endofonon" 750.8 -294 basechar 0
AnchorPoint: "measureNumber" 30.7998 521 basechar 0
AnchorPoint: "isonIndicator" 30.7998 681 basechar 0
AnchorPoint: "gorgonBottom" 700 -80 basechar 0
AnchorPoint: "heteronConnecting" 1640.8 -251 basechar 0
AnchorPoint: "heteron" 1035.8 -5 basechar 0
AnchorPoint: "omalon" 979.8 -99 basechar 0
AnchorPoint: "omalonConnecting" 1419.8 -99 basechar 0
AnchorPoint: "apli" 751.8 -202 basechar 0
AnchorPoint: "antikenoma" 768.8 -67 basechar 0
AnchorPoint: "noteTop" 262.8 444 basechar 0
AnchorPoint: "fthoraTop" 736.8 275 basechar 0
AnchorPoint: "fthoraBottom" 737.8 -23 basechar 0
AnchorPoint: "diesis" 348.8 -99 basechar 0
AnchorPoint: "yfesis" 1264.8 387 basechar 0
AnchorPoint: "klasmaTop" 620 250 basechar 0
AnchorPoint: "psifiston" 788.8 -119 basechar 0
AnchorPoint: "gorgonTop" 680 220 basechar 0
LayerCount: 2
Back
SplineSet
33.7998046875 382 m 0
 37.1328125 387.333007812 40.9658203125 390.166992188 45.2998046875 390.5 c 0
 49.6328125 390.833007812 54.1328125 389.666992188 58.7998046875 387 c 0
 63.4658203125 384.333007812 69.4658203125 381.166992188 76.7998046875 377.5 c 0
 84.1328125 373.833007812 93.4658203125 370.833007812 104.799804688 368.5 c 0
 116.1328125 366.166992188 132.1328125 365 152.799804688 365 c 2
 1176.79980469 365 l 2
 1195.46582031 365 1212.46582031 363.5 1227.79980469 360.5 c 0
 1243.1328125 357.5 1257.1328125 352.666992188 1269.79980469 346 c 0
 1282.46582031 339.333007812 1292.29980469 333.333007812 1299.29980469 328 c 0
 1306.29980469 322.666992188 1315.79980469 313.5 1327.79980469 300.5 c 0
 1339.79980469 287.5 1350.29980469 275 1359.29980469 263 c 0
 1368.29980469 251 1370.1328125 239.333007812 1364.79980469 228 c 1
 1359.46582031 220 1353.29980469 218.333007812 1346.29980469 223 c 0
 1339.29980469 227.666992188 1331.1328125 231.666992188 1321.79980469 235 c 0
 1312.46582031 238.333007812 1302.29980469 240.666992188 1291.29980469 242 c 0
 1280.29980469 243.333007812 1263.1328125 244 1239.79980469 244 c 2
 230.799804688 244 l 2
 215.465820312 244 201.465820312 245 188.799804688 247 c 0
 176.1328125 249 166.299804688 251.166992188 159.299804688 253.5 c 0
 152.299804688 255.833007812 144.799804688 259 136.799804688 263 c 0
 128.799804688 267 120.299804688 271.833007812 111.299804688 277.5 c 0
 102.299804688 283.166992188 92.7998046875 291.166992188 82.7998046875 301.5 c 0
 72.7998046875 311.833007812 62.6328125 323.833007812 52.2998046875 337.5 c 0
 41.9658203125 351.166992188 35.4658203125 360.666992188 32.7998046875 366 c 0
 30.1328125 371.333007812 30.4658203125 376.666992188 33.7998046875 382 c 0
EndSplineSet
Fore
SplineSet
481.240234375 -11.599609375 m 0x80
 484.638671875 -11.599609375 656.608398438 -6.9599609375 821.119140625 -6.9599609375 c 0
 988.051757812 -6.9599609375 1105.31933594 -6.9599609375 1215.51953125 -44.66015625 c 0
 1232.16015625 -50.353515625 1252.23632812 -60.3203125 1252.63964844 -60.3203125 c 0
 1262.69238281 -60.3203125 1267.71972656 -52.2001953125 1267.71972656 -35.9599609375 c 256
 1267.71972656 -18.9482421875 1261.53320312 -5.8017578125 1249.16015625 3.48046875 c 0
 1168.73242188 69.2138671875 1079.79882812 109.426757812 982.359375 124.120117188 c 0
 964.572265625 127.212890625 933.639648438 128.759765625 889.559570312 128.759765625 c 0x40
 787.1796875 128.759765625 677.21875 120.639648438 423.239257812 120.639648438 c 0
 338.172851562 120.639648438 282.87890625 122.186523438 257.359375 125.280273438 c 0
 154.505859375 138.426757812 89.1591796875 152.733398438 61.3193359375 168.200195312 c 0
 58.2255859375 170.51953125 54.166015625 171.6796875 49.1396484375 171.6796875 c 0
 23.259765625 171.6796875 -14.7763671875 61.2255859375 253.879882812 8.1201171875 c 0
 328.892578125 -5.0263671875 404.6796875 -11.599609375 481.240234375 -11.599609375 c 0x80
EndSplineSet
EndChar

StartChar: oligonKentimaAbove
Encoding: 57348 57348 36
Width: 1298
VWidth: 1392
Flags: W
HStem: -11.5996 132.239<248.523 766.677> -6.95996 135.72<535.187 1057.8>
AnchorPoint: "gorgonBottom" 700 -80 basechar 0
AnchorPoint: "yfenAbove" 878.8 679 basechar 0
AnchorPoint: "yfenBelow" 877.8 -272 basechar 0
AnchorPoint: "koronis" 731.8 659 basechar 0
AnchorPoint: "endofonon" 750.8 -294 basechar 0
AnchorPoint: "measureNumber" 30.7998 521 basechar 0
AnchorPoint: "isonIndicator" 30.7998 681 basechar 0
AnchorPoint: "heteronConnecting" 1640.8 -251 basechar 0
AnchorPoint: "heteron" 1035.8 -5 basechar 0
AnchorPoint: "omalon" 979.8 -99 basechar 0
AnchorPoint: "omalonConnecting" 1419.8 -99 basechar 0
AnchorPoint: "antikenoma" 768.8 -67 basechar 0
AnchorPoint: "apli" 751.8 -202 basechar 0
AnchorPoint: "noteTop" 262.8 444 basechar 0
AnchorPoint: "fthoraTop" 1201.8 208 basechar 0
AnchorPoint: "fthoraBottom" 737.8 -23 basechar 0
AnchorPoint: "diesis" 348.8 -99 basechar 0
AnchorPoint: "yfesis" 1264.8 387 basechar 0
AnchorPoint: "klasmaTop" 200 250 basechar 0
AnchorPoint: "klasmaBottom" 680 -70 basechar 0
AnchorPoint: "gorgonTop" 1090 220 basechar 0
AnchorPoint: "psifiston" 788.8 -119 basechar 0
LayerCount: 2
Back
SplineSet
541.799804688 781 m 0
 564.465820312 781 588.465820312 780.833007812 613.799804688 780.5 c 0
 639.1328125 780.166992188 661.799804688 778.333007812 681.799804688 775 c 1
 695.799804688 775 711.299804688 747.5 728.299804688 692.5 c 0
 745.299804688 637.5 765.465820312 589 788.799804688 547 c 0
 796.799804688 533 804.1328125 525.333007812 810.799804688 524 c 0
 816.799804688 522 821.299804688 518.5 824.299804688 513.5 c 0
 827.299804688 508.5 824.1328125 504 814.799804688 500 c 1
 791.465820312 496 767.965820312 494.333007812 744.299804688 495 c 0
 720.6328125 495.666992188 698.1328125 497.333007812 676.799804688 500 c 1
 656.799804688 508 640.299804688 533.5 627.299804688 576.5 c 0
 614.299804688 619.5 596.1328125 670 572.799804688 728 c 0
 570.799804688 731.333007812 566.6328125 735.833007812 560.299804688 741.5 c 0
 553.965820312 747.166992188 546.799804688 751 538.799804688 753 c 0
 528.1328125 755 521.965820312 760.166992188 520.299804688 768.5 c 0
 518.6328125 776.833007812 525.799804688 781 541.799804688 781 c 0
33.7998046875 382 m 0
 37.1328125 387.333007812 40.9658203125 390.166992188 45.2998046875 390.5 c 0
 49.6328125 390.833007812 54.1328125 389.666992188 58.7998046875 387 c 0
 63.4658203125 384.333007812 69.4658203125 381.166992188 76.7998046875 377.5 c 0
 84.1328125 373.833007812 93.4658203125 370.833007812 104.799804688 368.5 c 0
 116.1328125 366.166992188 132.1328125 365 152.799804688 365 c 2
 1176.79980469 365 l 2
 1195.46582031 365 1212.46582031 363.5 1227.79980469 360.5 c 0
 1243.1328125 357.5 1257.1328125 352.666992188 1269.79980469 346 c 0
 1282.46582031 339.333007812 1292.29980469 333.333007812 1299.29980469 328 c 0
 1306.29980469 322.666992188 1315.79980469 313.5 1327.79980469 300.5 c 0
 1339.79980469 287.5 1350.29980469 275 1359.29980469 263 c 0
 1368.29980469 251 1370.1328125 239.333007812 1364.79980469 228 c 1
 1359.46582031 220 1353.29980469 218.333007812 1346.29980469 223 c 0
 1339.29980469 227.666992188 1331.1328125 231.666992188 1321.79980469 235 c 0
 1312.46582031 238.333007812 1302.29980469 240.666992188 1291.29980469 242 c 0
 1280.29980469 243.333007812 1263.1328125 244 1239.79980469 244 c 2
 230.799804688 244 l 2
 215.465820312 244 201.465820312 245 188.799804688 247 c 0
 176.1328125 249 166.299804688 251.166992188 159.299804688 253.5 c 0
 152.299804688 255.833007812 144.799804688 259 136.799804688 263 c 0
 128.799804688 267 120.299804688 271.833007812 111.299804688 277.5 c 0
 102.299804688 283.166992188 92.7998046875 291.166992188 82.7998046875 301.5 c 0
 72.7998046875 311.833007812 62.6328125 323.833007812 52.2998046875 337.5 c 0
 41.9658203125 351.166992188 35.4658203125 360.666992188 32.7998046875 366 c 0
 30.1328125 371.333007812 30.4658203125 376.666992188 33.7998046875 382 c 0
EndSplineSet
Fore
SplineSet
460.359375 433.840820312 m 1x00
 460.359375 431.520507812 l 2
 460.359375 429.315429688 461.823242188 421.497070312 481.239257812 414.700195312 c 0
 528.454101562 398.177734375 518.581054688 234.458984375 604.779296875 207.640625 c 0
 622.1796875 202.227539062 647.505859375 199.520507812 680.759765625 199.520507812 c 0
 714.012695312 199.520507812 730.639648438 206.09375 730.639648438 219.240234375 c 256
 730.639648438 237.928710938 710.864257812 226.311523438 694.6796875 258.680664062 c 0
 667.564453125 312.907226562 660.72265625 408.643554688 613.479492188 433.840820312 c 0
 591.729492188 445.440429688 562.014648438 451.240234375 524.3359375 451.240234375 c 0
 486.657226562 451.240234375 465.33203125 445.440429688 460.359375 433.840820312 c 1x00
481.240234375 -11.599609375 m 0x80
 484.638671875 -11.599609375 656.646484375 -6.9599609375 821.120117188 -6.9599609375 c 0
 988.052734375 -6.9599609375 1105.31933594 -6.9599609375 1215.51953125 -44.66015625 c 0
 1232.16308594 -50.3544921875 1252.23632812 -60.3203125 1252.63964844 -60.3203125 c 0
 1262.69238281 -60.3203125 1267.71972656 -52.2001953125 1267.71972656 -35.9599609375 c 256
 1267.71972656 -18.9482421875 1261.53320312 -5.8017578125 1249.16015625 3.48046875 c 0
 1168.73242188 69.2138671875 1079.79882812 109.426757812 982.359375 124.120117188 c 0
 964.572265625 127.212890625 933.639648438 128.759765625 889.559570312 128.759765625 c 0x40
 787.1796875 128.759765625 677.21875 120.639648438 423.239257812 120.639648438 c 0
 338.172851562 120.639648438 282.87890625 122.186523438 257.359375 125.280273438 c 0
 154.505859375 138.426757812 89.1591796875 152.733398438 61.3193359375 168.200195312 c 0
 58.2255859375 170.51953125 54.166015625 171.6796875 49.1396484375 171.6796875 c 0
 23.259765625 171.6796875 -14.7763671875 61.2255859375 253.879882812 8.1201171875 c 0
 328.892578125 -5.0263671875 404.6796875 -11.599609375 481.240234375 -11.599609375 c 0x80
EndSplineSet
EndChar

StartChar: oligonYpsiliRight
Encoding: 57349 57349 37
Width: 1316
VWidth: 1392
Flags: W
HStem: -11.5996 132.239<248.523 766.675> -6.95996 135.72<535.187 1057.8>
AnchorPoint: "gorgonBottom" 700 -80 basechar 0
AnchorPoint: "yfenAbove" 878.8 971 basechar 0
AnchorPoint: "yfenBelow" 877.8 -272 basechar 0
AnchorPoint: "koronis" 731.8 569 basechar 0
AnchorPoint: "endofonon" 750.8 -294 basechar 0
AnchorPoint: "measureNumber" 30.7998 521 basechar 0
AnchorPoint: "isonIndicator" 30.7998 971 basechar 0
AnchorPoint: "heteronConnecting" 1640.8 -251 basechar 0
AnchorPoint: "heteron" 1035.8 -5 basechar 0
AnchorPoint: "omalon" 979.8 -99 basechar 0
AnchorPoint: "omalonConnecting" 1419.8 -99 basechar 0
AnchorPoint: "antikenoma" 768.8 -67 basechar 0
AnchorPoint: "apli" 751.8 -202 basechar 0
AnchorPoint: "noteTop" 262.8 444 basechar 0
AnchorPoint: "fthoraTop" 505.8 257 basechar 0
AnchorPoint: "fthoraBottom" 737.8 -23 basechar 0
AnchorPoint: "diesis" 348.8 -99 basechar 0
AnchorPoint: "yfesis" 1264.8 387 basechar 0
AnchorPoint: "klasmaTop" 500 250 basechar 0
AnchorPoint: "klasmaBottom" 680 -70 basechar 0
AnchorPoint: "gorgonTop" 400 220 basechar 0
AnchorPoint: "psifiston" 788.8 -119 basechar 0
LayerCount: 2
Back
SplineSet
1375.79980469 1161 m 1
 1386.46582031 1159 1391.1328125 1153.5 1389.79980469 1144.5 c 0
 1388.46582031 1135.5 1381.79980469 1130.66699219 1369.79980469 1130 c 1
 1355.79980469 1125.33300781 1344.6328125 1107.66699219 1336.29980469 1077 c 0
 1327.96582031 1046.33300781 1318.79980469 1014 1308.79980469 980 c 0
 1286.1328125 900.666992188 1265.46582031 836.333007812 1246.79980469 787 c 0
 1228.1328125 737.666992188 1210.46582031 703.166992188 1193.79980469 683.5 c 0
 1177.1328125 663.833007812 1157.1328125 648.666992188 1133.79980469 638 c 0
 1097.79980469 622.666992188 1062.1328125 611.333007812 1026.79980469 604 c 0
 991.465820312 596.666992188 961.1328125 593 935.799804688 593 c 1
 948.465820312 563 969.799804688 542 999.799804688 530 c 0
 1029.79980469 518 1038.46582031 505.333007812 1025.79980469 492 c 0
 1018.46582031 484.666992188 995.299804688 494.333007812 956.299804688 521 c 0
 917.299804688 547.666992188 890.799804688 574 876.799804688 600 c 1
 876.799804688 616.666992188 883.465820312 623.666992188 896.799804688 621 c 0
 910.1328125 618.333007812 924.799804688 616.333007812 940.799804688 615 c 256
 956.1328125 614.333007812 971.965820312 615.333007812 988.299804688 618 c 0
 1004.6328125 620.666992188 1026.46582031 629 1053.79980469 643 c 0
 1067.1328125 649.666992188 1079.79980469 664.833007812 1091.79980469 688.5 c 0
 1103.79980469 712.166992188 1114.46582031 738.333007812 1123.79980469 767 c 0
 1133.1328125 795.666992188 1141.1328125 824.166992188 1147.79980469 852.5 c 0
 1154.46582031 880.833007812 1163.29980469 921.666992188 1174.29980469 975 c 0
 1185.29980469 1028.33300781 1194.79980469 1064 1202.79980469 1082 c 0
 1210.79980469 1100 1221.96582031 1114.66699219 1236.29980469 1126 c 0
 1250.6328125 1137.33300781 1264.29980469 1144.66699219 1277.29980469 1148 c 0
 1290.29980469 1151.33300781 1304.6328125 1153.66699219 1320.29980469 1155 c 0
 1335.96582031 1156.33300781 1354.46582031 1158.33300781 1375.79980469 1161 c 1
33.7998046875 382 m 0
 37.1328125 387.333007812 40.9658203125 390.166992188 45.2998046875 390.5 c 0
 49.6328125 390.833007812 54.1328125 389.666992188 58.7998046875 387 c 0
 63.4658203125 384.333007812 69.4658203125 381.166992188 76.7998046875 377.5 c 0
 84.1328125 373.833007812 93.4658203125 370.833007812 104.799804688 368.5 c 0
 116.1328125 366.166992188 132.1328125 365 152.799804688 365 c 2
 1176.79980469 365 l 2
 1195.46582031 365 1212.46582031 363.5 1227.79980469 360.5 c 0
 1243.1328125 357.5 1257.1328125 352.666992188 1269.79980469 346 c 0
 1282.46582031 339.333007812 1292.29980469 333.333007812 1299.29980469 328 c 0
 1306.29980469 322.666992188 1315.79980469 313.5 1327.79980469 300.5 c 0
 1339.79980469 287.5 1350.29980469 275 1359.29980469 263 c 0
 1368.29980469 251 1370.1328125 239.333007812 1364.79980469 228 c 1
 1359.46582031 220 1353.29980469 218.333007812 1346.29980469 223 c 0
 1339.29980469 227.666992188 1331.1328125 231.666992188 1321.79980469 235 c 0
 1312.46582031 238.333007812 1302.29980469 240.666992188 1291.29980469 242 c 0
 1280.29980469 243.333007812 1263.1328125 244 1239.79980469 244 c 2
 230.799804688 244 l 2
 215.465820312 244 201.465820312 245 188.799804688 247 c 0
 176.1328125 249 166.299804688 251.166992188 159.299804688 253.5 c 0
 152.299804688 255.833007812 144.799804688 259 136.799804688 263 c 0
 128.799804688 267 120.299804688 271.833007812 111.299804688 277.5 c 0
 102.299804688 283.166992188 92.7998046875 291.166992188 82.7998046875 301.5 c 0
 72.7998046875 311.833007812 62.6328125 323.833007812 52.2998046875 337.5 c 0
 41.9658203125 351.166992188 35.4658203125 360.666992188 32.7998046875 366 c 0
 30.1328125 371.333007812 30.4658203125 376.666992188 33.7998046875 382 c 0
EndSplineSet
Fore
SplineSet
1285.12011719 836.940429688 m 0x00
 1285.12011719 911.274414062 1222.24609375 912.919921875 1216.6796875 912.919921875 c 0
 1201.21289062 912.919921875 1182.45898438 907.120117188 1160.41894531 895.51953125 c 0
 1113.75195312 870.958984375 1085.33203125 794.01171875 1075.16015625 664.6796875 c 0
 1060.96679688 500.682617188 1028.59472656 415.155273438 887.240234375 360.1796875 c 0
 866.359375 352.059570312 848.959960938 346.83984375 835.040039062 344.51953125 c 2
 784 336.400390625 l 1
 998.599609375 233.16015625 l 2
 1047.31933594 210.733398438 1080.765625 199.51953125 1098.93945312 199.51953125 c 0
 1175.15234375 199.51953125 1066.46582031 265.836914062 987 288.83984375 c 2
 937.120117188 303.919921875 l 1
 976.559570312 312.040039062 l 2
 1069.81347656 332.245117188 1168.69140625 405.677734375 1196.95996094 477.919921875 c 0
 1226.04589844 557.911132812 1195.43457031 764.537109375 1271.20019531 807.360351562 c 0
 1280.47949219 813.546875 1285.12011719 823.40625 1285.12011719 836.940429688 c 0x00
481.240234375 -11.599609375 m 0x80
 484.638671875 -11.599609375 656.608398438 -6.9599609375 821.119140625 -6.9599609375 c 0
 988.051757812 -6.9599609375 1105.31933594 -6.9599609375 1215.51953125 -44.66015625 c 0
 1232.16015625 -50.353515625 1252.23632812 -60.3203125 1252.63964844 -60.3203125 c 0
 1262.69238281 -60.3203125 1267.71972656 -52.2001953125 1267.71972656 -35.9599609375 c 256
 1267.71972656 -18.9482421875 1261.53320312 -5.8017578125 1249.16015625 3.48046875 c 0
 1168.73242188 69.2138671875 1079.79882812 109.426757812 982.359375 124.120117188 c 0
 964.572265625 127.212890625 933.639648438 128.759765625 889.559570312 128.759765625 c 0x40
 787.1796875 128.759765625 677.21875 120.639648438 423.239257812 120.639648438 c 0
 338.172851562 120.639648438 282.87890625 122.186523438 257.359375 125.280273438 c 0
 154.505859375 138.426757812 89.1591796875 152.733398438 61.3193359375 168.200195312 c 0
 58.2255859375 170.51953125 54.166015625 171.6796875 49.1396484375 171.6796875 c 0
 23.259765625 171.6796875 -14.7763671875 61.2255859375 253.879882812 8.1201171875 c 0
 328.892578125 -5.0263671875 404.6796875 -11.599609375 481.240234375 -11.599609375 c 0x80
EndSplineSet
EndChar

StartChar: oligonYpsiliLeft
Encoding: 57350 57350 38
Width: 1299
VWidth: 1392
Flags: W
HStem: -11.5996 132.239<249.523 767.676> -6.95996 135.72<536.187 1058.8>
AnchorPoint: "gorgonBottom" 700 -80 basechar 0
AnchorPoint: "yfenAbove" 879.8 1053 basechar 0
AnchorPoint: "yfenBelow" 878.8 -272 basechar 0
AnchorPoint: "koronis" 900.8 623 basechar 0
AnchorPoint: "endofonon" 751.8 -294 basechar 0
AnchorPoint: "measureNumber" 31.7998 595 basechar 0
AnchorPoint: "isonIndicator" 31.7998 1051 basechar 0
AnchorPoint: "heteronConnecting" 1641.8 -251 basechar 0
AnchorPoint: "heteron" 1036.8 -5 basechar 0
AnchorPoint: "omalon" 980.8 -99 basechar 0
AnchorPoint: "omalonConnecting" 1420.8 -99 basechar 0
AnchorPoint: "antikenoma" 769.8 -67 basechar 0
AnchorPoint: "apli" 752.8 -202 basechar 0
AnchorPoint: "noteTop" 137.8 518 basechar 0
AnchorPoint: "fthoraTop" 838.8 269 basechar 0
AnchorPoint: "fthoraBottom" 738.8 -23 basechar 0
AnchorPoint: "diesis" 349.8 -99 basechar 0
AnchorPoint: "yfesis" 1265.8 387 basechar 0
AnchorPoint: "klasmaTop" 750 250 basechar 0
AnchorPoint: "klasmaBottom" 680 -70 basechar 0
AnchorPoint: "gorgonTop" 800 220 basechar 0
AnchorPoint: "psifiston" 789.8 -119 basechar 0
LayerCount: 2
Back
SplineSet
34.7998046875 382 m 0
 38.1328125 387.333007812 41.966796875 390.166992188 46.2998046875 390.5 c 0
 50.6328125 390.833007812 55.1328125 389.666992188 59.7998046875 387 c 0
 64.466796875 384.333007812 70.466796875 381.166992188 77.7998046875 377.5 c 0
 85.1328125 373.833007812 94.466796875 370.833007812 105.799804688 368.5 c 0
 117.1328125 366.166992188 133.1328125 365 153.799804688 365 c 2
 1177.79980469 365 l 2
 1196.46679688 365 1213.46679688 363.5 1228.79980469 360.5 c 0
 1244.1328125 357.5 1258.1328125 352.666992188 1270.79980469 346 c 0
 1283.46679688 339.333007812 1293.29980469 333.333007812 1300.29980469 328 c 0
 1307.29980469 322.666992188 1316.79980469 313.5 1328.79980469 300.5 c 0
 1340.79980469 287.5 1351.29980469 275 1360.29980469 263 c 0
 1369.29980469 251 1371.1328125 239.333007812 1365.79980469 228 c 1
 1360.46679688 220 1354.29980469 218.333007812 1347.29980469 223 c 0
 1340.29980469 227.666992188 1332.1328125 231.666992188 1322.79980469 235 c 0
 1313.46679688 238.333007812 1303.29980469 240.666992188 1292.29980469 242 c 0
 1281.29980469 243.333007812 1264.1328125 244 1240.79980469 244 c 2
 231.799804688 244 l 2
 216.466796875 244 202.466796875 245 189.799804688 247 c 0
 177.1328125 249 167.299804688 251.166992188 160.299804688 253.5 c 0
 153.299804688 255.833007812 145.799804688 259 137.799804688 263 c 0
 129.799804688 267 121.299804688 271.833007812 112.299804688 277.5 c 0
 103.299804688 283.166992188 93.7998046875 291.166992188 83.7998046875 301.5 c 0
 73.7998046875 311.833007812 63.6328125 323.833007812 53.2998046875 337.5 c 0
 42.966796875 351.166992188 36.466796875 360.666992188 33.7998046875 366 c 0
 31.1328125 371.333007812 31.466796875 376.666992188 34.7998046875 382 c 0
610.799804688 1161 m 1
 621.466796875 1159 626.1328125 1153.5 624.799804688 1144.5 c 0
 623.466796875 1135.5 616.466796875 1130.66699219 603.799804688 1130 c 1
 589.799804688 1125.33300781 578.6328125 1107.66699219 570.299804688 1077 c 0
 561.966796875 1046.33300781 552.799804688 1014 542.799804688 980 c 0
 520.1328125 900.666992188 499.466796875 836.333007812 480.799804688 787 c 0
 462.1328125 737.666992188 444.466796875 703.166992188 427.799804688 683.5 c 0
 411.1328125 663.833007812 391.1328125 648.666992188 367.799804688 638 c 0
 331.799804688 622.666992188 296.299804688 611.333007812 261.299804688 604 c 0
 226.299804688 596.666992188 195.799804688 593 169.799804688 593 c 1
 182.466796875 563 203.799804688 542 233.799804688 530 c 0
 263.799804688 518 272.466796875 505.333007812 259.799804688 492 c 0
 252.466796875 484.666992188 229.466796875 494.333007812 190.799804688 521 c 0
 152.1328125 547.666992188 125.466796875 574 110.799804688 600 c 1
 110.799804688 616.666992188 117.6328125 623.666992188 131.299804688 621 c 0
 144.966796875 618.333007812 159.466796875 616.333007812 174.799804688 615 c 256
 190.1328125 614.333007812 205.966796875 615.333007812 222.299804688 618 c 0
 238.6328125 620.666992188 260.466796875 629 287.799804688 643 c 0
 301.1328125 649.666992188 313.799804688 664.833007812 325.799804688 688.5 c 0
 337.799804688 712.166992188 348.6328125 738.333007812 358.299804688 767 c 0
 367.966796875 795.666992188 376.1328125 824.166992188 382.799804688 852.5 c 0
 389.466796875 880.833007812 398.299804688 921.666992188 409.299804688 975 c 0
 420.299804688 1028.33300781 429.6328125 1064 437.299804688 1082 c 0
 444.966796875 1100 455.966796875 1114.66699219 470.299804688 1126 c 0
 484.6328125 1137.33300781 498.299804688 1144.66699219 511.299804688 1148 c 0
 524.299804688 1151.33300781 538.799804688 1153.66699219 554.799804688 1155 c 0
 570.799804688 1156.33300781 589.466796875 1158.33300781 610.799804688 1161 c 1
EndSplineSet
Fore
SplineSet
532.120117188 836.940429688 m 4x00
 532.120117188 911.274414062 469.24609375 912.919921875 463.6796875 912.919921875 c 4
 448.212890625 912.919921875 429.459960938 907.120117188 407.418945312 895.51953125 c 4
 360.751953125 870.958984375 332.33203125 794.01171875 322.16015625 664.6796875 c 4
 307.967773438 500.682617188 275.595703125 415.155273438 134.240234375 360.1796875 c 4
 113.360351562 352.059570312 95.9599609375 346.83984375 82.0400390625 344.51953125 c 6
 31 336.400390625 l 5
 245.599609375 233.16015625 l 6
 294.319335938 210.733398438 327.766601562 199.51953125 345.940429688 199.51953125 c 4
 422.153320312 199.51953125 313.466796875 265.836914062 234 288.83984375 c 6
 184.120117188 303.919921875 l 5
 223.559570312 312.040039062 l 6
 316.814453125 332.245117188 415.69140625 405.677734375 443.959960938 477.919921875 c 4
 473.045898438 557.911132812 442.435546875 764.537109375 518.200195312 807.360351562 c 4
 527.48046875 813.546875 532.120117188 823.40625 532.120117188 836.940429688 c 4x00
482.240234375 -11.599609375 m 4x80
 485.639648438 -11.599609375 657.608398438 -6.9599609375 822.120117188 -6.9599609375 c 4
 989.051757812 -6.9599609375 1106.31933594 -6.9599609375 1216.51953125 -44.66015625 c 4
 1233.16113281 -50.353515625 1253.23632812 -60.3203125 1253.63964844 -60.3203125 c 4
 1263.69335938 -60.3203125 1268.71972656 -52.2001953125 1268.71972656 -35.9599609375 c 260
 1268.71972656 -18.9482421875 1262.53320312 -5.8017578125 1250.16015625 3.48046875 c 4
 1169.73339844 69.2138671875 1080.79980469 109.426757812 983.359375 124.120117188 c 4
 965.573242188 127.212890625 934.639648438 128.759765625 890.559570312 128.759765625 c 4x40
 788.1796875 128.759765625 678.21875 120.639648438 424.239257812 120.639648438 c 4
 339.172851562 120.639648438 283.879882812 122.186523438 258.359375 125.280273438 c 4
 155.506835938 138.426757812 90.16015625 152.733398438 62.3193359375 168.200195312 c 4
 59.2265625 170.51953125 55.166015625 171.6796875 50.1396484375 171.6796875 c 4
 24.2607421875 171.6796875 -13.7763671875 61.2255859375 254.879882812 8.1201171875 c 4
 329.892578125 -5.0263671875 405.6796875 -11.599609375 482.240234375 -11.599609375 c 4x80
EndSplineSet
EndChar

StartChar: oligonKentimaYpsiliRight
Encoding: 57351 57351 39
Width: 1316
VWidth: 1392
Flags: W
HStem: -11.5996 132.239<248.523 766.677> -6.95996 135.72<535.187 1057.8>
AnchorPoint: "gorgonBottom" 700 -80 basechar 0
AnchorPoint: "yfenAbove" 878.8 970 basechar 0
AnchorPoint: "yfenBelow" 877.8 -272 basechar 0
AnchorPoint: "koronis" 731.8 679 basechar 0
AnchorPoint: "endofonon" 750.8 -294 basechar 0
AnchorPoint: "measureNumber" 30.7998 521 basechar 0
AnchorPoint: "isonIndicator" 30.7998 971 basechar 0
AnchorPoint: "heteronConnecting" 1640.8 -251 basechar 0
AnchorPoint: "heteron" 1035.8 -5 basechar 0
AnchorPoint: "omalon" 979.8 -99 basechar 0
AnchorPoint: "omalonConnecting" 1419.8 -99 basechar 0
AnchorPoint: "antikenoma" 768.8 -67 basechar 0
AnchorPoint: "apli" 751.8 -202 basechar 0
AnchorPoint: "noteTop" 262.8 444 basechar 0
AnchorPoint: "fthoraTop" 306.8 275 basechar 0
AnchorPoint: "fthoraBottom" 737.8 -23 basechar 0
AnchorPoint: "diesis" 348.8 -99 basechar 0
AnchorPoint: "yfesis" 1264.8 387 basechar 0
AnchorPoint: "klasmaTop" 160 250 basechar 0
AnchorPoint: "klasmaBottom" 680 -70 basechar 0
AnchorPoint: "gorgonTop" 200 220 basechar 0
AnchorPoint: "psifiston" 788.8 -119 basechar 0
LayerCount: 2
Back
SplineSet
541.799804688 781 m 0
 564.465820312 781 588.465820312 780.833007812 613.799804688 780.5 c 0
 639.1328125 780.166992188 661.799804688 778.333007812 681.799804688 775 c 1
 695.799804688 775 711.299804688 747.5 728.299804688 692.5 c 0
 745.299804688 637.5 765.465820312 589 788.799804688 547 c 0
 796.799804688 533 804.1328125 525.333007812 810.799804688 524 c 0
 816.799804688 522 821.299804688 518.5 824.299804688 513.5 c 0
 827.299804688 508.5 824.1328125 504 814.799804688 500 c 1
 791.465820312 496 767.965820312 494.333007812 744.299804688 495 c 0
 720.6328125 495.666992188 698.1328125 497.333007812 676.799804688 500 c 1
 656.799804688 508 640.299804688 533.5 627.299804688 576.5 c 0
 614.299804688 619.5 596.1328125 670 572.799804688 728 c 0
 570.799804688 731.333007812 566.6328125 735.833007812 560.299804688 741.5 c 0
 553.965820312 747.166992188 546.799804688 751 538.799804688 753 c 0
 528.1328125 755 521.965820312 760.166992188 520.299804688 768.5 c 0
 518.6328125 776.833007812 525.799804688 781 541.799804688 781 c 0
33.7998046875 382 m 0
 37.1328125 387.333007812 40.9658203125 390.166992188 45.2998046875 390.5 c 0
 49.6328125 390.833007812 54.1328125 389.666992188 58.7998046875 387 c 0
 63.4658203125 384.333007812 69.4658203125 381.166992188 76.7998046875 377.5 c 0
 84.1328125 373.833007812 93.4658203125 370.833007812 104.799804688 368.5 c 0
 116.1328125 366.166992188 132.1328125 365 152.799804688 365 c 2
 1176.79980469 365 l 2
 1195.46582031 365 1212.46582031 363.5 1227.79980469 360.5 c 0
 1243.1328125 357.5 1257.1328125 352.666992188 1269.79980469 346 c 0
 1282.46582031 339.333007812 1292.29980469 333.333007812 1299.29980469 328 c 0
 1306.29980469 322.666992188 1315.79980469 313.5 1327.79980469 300.5 c 0
 1339.79980469 287.5 1350.29980469 275 1359.29980469 263 c 0
 1368.29980469 251 1370.1328125 239.333007812 1364.79980469 228 c 1
 1359.46582031 220 1353.29980469 218.333007812 1346.29980469 223 c 0
 1339.29980469 227.666992188 1331.1328125 231.666992188 1321.79980469 235 c 0
 1312.46582031 238.333007812 1302.29980469 240.666992188 1291.29980469 242 c 0
 1280.29980469 243.333007812 1263.1328125 244 1239.79980469 244 c 2
 230.799804688 244 l 2
 215.465820312 244 201.465820312 245 188.799804688 247 c 0
 176.1328125 249 166.299804688 251.166992188 159.299804688 253.5 c 0
 152.299804688 255.833007812 144.799804688 259 136.799804688 263 c 0
 128.799804688 267 120.299804688 271.833007812 111.299804688 277.5 c 0
 102.299804688 283.166992188 92.7998046875 291.166992188 82.7998046875 301.5 c 0
 72.7998046875 311.833007812 62.6328125 323.833007812 52.2998046875 337.5 c 0
 41.9658203125 351.166992188 35.4658203125 360.666992188 32.7998046875 366 c 0
 30.1328125 371.333007812 30.4658203125 376.666992188 33.7998046875 382 c 0
1375.79980469 1161 m 1
 1386.46582031 1159 1391.1328125 1153.5 1389.79980469 1144.5 c 0
 1388.46582031 1135.5 1381.79980469 1130.66699219 1369.79980469 1130 c 1
 1355.79980469 1125.33300781 1344.6328125 1107.66699219 1336.29980469 1077 c 0
 1327.96582031 1046.33300781 1318.79980469 1014 1308.79980469 980 c 0
 1286.1328125 900.666992188 1265.46582031 836.333007812 1246.79980469 787 c 0
 1228.1328125 737.666992188 1210.46582031 703.166992188 1193.79980469 683.5 c 0
 1177.1328125 663.833007812 1157.1328125 648.666992188 1133.79980469 638 c 0
 1097.79980469 622.666992188 1062.1328125 611.333007812 1026.79980469 604 c 0
 991.465820312 596.666992188 961.1328125 593 935.799804688 593 c 1
 948.465820312 563 969.799804688 542 999.799804688 530 c 0
 1029.79980469 518 1038.46582031 505.333007812 1025.79980469 492 c 0
 1018.46582031 484.666992188 995.299804688 494.333007812 956.299804688 521 c 0
 917.299804688 547.666992188 890.799804688 574 876.799804688 600 c 1
 876.799804688 616.666992188 883.465820312 623.666992188 896.799804688 621 c 0
 910.1328125 618.333007812 924.799804688 616.333007812 940.799804688 615 c 256
 956.1328125 614.333007812 971.965820312 615.333007812 988.299804688 618 c 0
 1004.6328125 620.666992188 1026.46582031 629 1053.79980469 643 c 0
 1067.1328125 649.666992188 1079.79980469 664.833007812 1091.79980469 688.5 c 0
 1103.79980469 712.166992188 1114.46582031 738.333007812 1123.79980469 767 c 0
 1133.1328125 795.666992188 1141.1328125 824.166992188 1147.79980469 852.5 c 0
 1154.46582031 880.833007812 1163.29980469 921.666992188 1174.29980469 975 c 0
 1185.29980469 1028.33300781 1194.79980469 1064 1202.79980469 1082 c 0
 1210.79980469 1100 1221.96582031 1114.66699219 1236.29980469 1126 c 0
 1250.6328125 1137.33300781 1264.29980469 1144.66699219 1277.29980469 1148 c 0
 1290.29980469 1151.33300781 1304.6328125 1153.66699219 1320.29980469 1155 c 0
 1335.96582031 1156.33300781 1354.46582031 1158.33300781 1375.79980469 1161 c 1
EndSplineSet
Fore
SplineSet
413.958984375 433.840820312 m 5x00
 413.958984375 431.520507812 l 6
 413.958984375 429.315429688 415.422851562 421.49609375 434.83984375 414.700195312 c 4
 482.051757812 398.176757812 472.182617188 234.45703125 558.379882812 207.640625 c 4
 575.779296875 202.227539062 601.10546875 199.520507812 634.359375 199.520507812 c 4
 667.612304688 199.520507812 684.239257812 206.09375 684.239257812 219.240234375 c 260
 684.239257812 237.928710938 664.463867188 226.311523438 648.279296875 258.680664062 c 4
 621.1640625 312.907226562 614.322265625 408.643554688 567.079101562 433.840820312 c 4
 545.329101562 445.440429688 515.614257812 451.240234375 477.936523438 451.240234375 c 4
 440.256835938 451.240234375 418.931640625 445.440429688 413.958984375 433.840820312 c 5x00
1285.12011719 836.940429688 m 4
 1285.12011719 911.274414062 1222.24609375 912.919921875 1216.6796875 912.919921875 c 4
 1201.21289062 912.919921875 1182.45898438 907.120117188 1160.41894531 895.520507812 c 4
 1113.75195312 870.958984375 1085.33203125 794.01171875 1075.16015625 664.6796875 c 4
 1060.96679688 500.682617188 1028.59472656 415.155273438 887.240234375 360.1796875 c 4
 866.359375 352.059570312 848.959960938 346.83984375 835.040039062 344.51953125 c 6
 784 336.400390625 l 5
 998.599609375 233.16015625 l 6
 1047.31933594 210.733398438 1080.765625 199.51953125 1098.93945312 199.51953125 c 4
 1175.15332031 199.51953125 1066.46582031 265.836914062 987 288.83984375 c 6
 937.120117188 303.919921875 l 5
 976.559570312 312.040039062 l 6
 1069.81347656 332.245117188 1168.69140625 405.677734375 1196.95996094 477.919921875 c 4
 1226.04492188 557.909179688 1195.43457031 764.537109375 1271.20019531 807.360351562 c 4
 1280.47949219 813.546875 1285.12011719 823.40625 1285.12011719 836.940429688 c 4
481.240234375 -11.599609375 m 4x80
 484.638671875 -11.599609375 656.646484375 -6.9599609375 821.120117188 -6.9599609375 c 4
 988.052734375 -6.9599609375 1105.31933594 -6.9599609375 1215.51953125 -44.66015625 c 4
 1232.16308594 -50.3544921875 1252.23632812 -60.3203125 1252.63964844 -60.3203125 c 4
 1262.69238281 -60.3203125 1267.71972656 -52.2001953125 1267.71972656 -35.9599609375 c 260
 1267.71972656 -18.9482421875 1261.53320312 -5.8017578125 1249.16015625 3.48046875 c 4
 1168.73242188 69.2138671875 1079.79882812 109.426757812 982.359375 124.120117188 c 4
 964.572265625 127.212890625 933.639648438 128.759765625 889.559570312 128.759765625 c 4x40
 787.1796875 128.759765625 677.21875 120.639648438 423.239257812 120.639648438 c 4
 338.172851562 120.639648438 282.87890625 122.186523438 257.359375 125.280273438 c 4
 154.505859375 138.426757812 89.1591796875 152.733398438 61.3193359375 168.200195312 c 4
 58.2255859375 170.51953125 54.166015625 171.6796875 49.1396484375 171.6796875 c 4
 23.259765625 171.6796875 -14.7763671875 61.2255859375 253.879882812 8.1201171875 c 4
 328.892578125 -5.0263671875 404.6796875 -11.599609375 481.240234375 -11.599609375 c 4x80
EndSplineSet
EndChar

StartChar: oligonKentimaYpsiliMiddle
Encoding: 57352 57352 40
Width: 1298
VWidth: 1392
Flags: W
HStem: -11.5996 132.239<248.523 766.675> -6.95996 135.72<535.187 1057.8>
AnchorPoint: "gorgonBottom" 700 -80 basechar 0
AnchorPoint: "yfenAbove" 878.8 1171 basechar 0
AnchorPoint: "yfenBelow" 877.8 -272 basechar 0
AnchorPoint: "koronis" 223.8 603 basechar 0
AnchorPoint: "klasmaTop" 200 250 basechar 0
AnchorPoint: "measureNumber" 30.7998 521 basechar 0
AnchorPoint: "isonIndicator" 30.7998 1171 basechar 0
AnchorPoint: "heteronConnecting" 1640.8 -251 basechar 0
AnchorPoint: "heteron" 1035.8 -5 basechar 0
AnchorPoint: "omalon" 979.8 -99 basechar 0
AnchorPoint: "omalonConnecting" 1419.8 -99 basechar 0
AnchorPoint: "antikenoma" 768.8 -67 basechar 0
AnchorPoint: "apli" 751.8 -202 basechar 0
AnchorPoint: "noteTop" 262.8 444 basechar 0
AnchorPoint: "fthoraTop" 1175.8 215 basechar 0
AnchorPoint: "fthoraBottom" 737.8 -23 basechar 0
AnchorPoint: "diesis" 348.8 -99 basechar 0
AnchorPoint: "yfesis" 1264.8 387 basechar 0
AnchorPoint: "klasmaBottom" 680 -70 basechar 0
AnchorPoint: "gorgonTop" 1090 220 basechar 0
AnchorPoint: "psifiston" 788.8 -119 basechar 0
LayerCount: 2
Back
SplineSet
588.799804688 665 m 0
 609.465820312 665 630.799804688 664.833007812 652.799804688 664.5 c 0
 674.799804688 664.166992188 694.799804688 662.666992188 712.799804688 660 c 1
 725.465820312 660 738.299804688 638.5 751.299804688 595.5 c 0
 764.299804688 552.5 780.465820312 514.333007812 799.799804688 481 c 0
 805.799804688 469.666992188 811.799804688 463.666992188 817.799804688 463 c 0
 823.1328125 461.666992188 827.1328125 458.833007812 829.799804688 454.5 c 0
 832.465820312 450.166992188 829.465820312 446.666992188 820.799804688 444 c 1
 799.465820312 440.666992188 778.299804688 439.333007812 757.299804688 440 c 0
 736.299804688 440.666992188 716.465820312 442 697.799804688 444 c 1
 679.799804688 450.666992188 665.799804688 470.833007812 655.799804688 504.5 c 0
 645.799804688 538.166992188 631.465820312 577.666992188 612.799804688 623 c 1
 606.799804688 633.666992188 597.1328125 640.333007812 583.799804688 643 c 0
 573.799804688 644.333007812 568.6328125 648.333007812 568.299804688 655 c 0
 567.965820312 661.666992188 574.799804688 665 588.799804688 665 c 0
33.7998046875 382 m 0
 37.1328125 387.333007812 40.9658203125 390.166992188 45.2998046875 390.5 c 0
 49.6328125 390.833007812 54.1328125 389.666992188 58.7998046875 387 c 0
 63.4658203125 384.333007812 69.4658203125 381.166992188 76.7998046875 377.5 c 0
 84.1328125 373.833007812 93.4658203125 370.833007812 104.799804688 368.5 c 0
 116.1328125 366.166992188 132.1328125 365 152.799804688 365 c 2
 1176.79980469 365 l 2
 1195.46582031 365 1212.46582031 363.5 1227.79980469 360.5 c 0
 1243.1328125 357.5 1257.1328125 352.666992188 1269.79980469 346 c 0
 1282.46582031 339.333007812 1292.29980469 333.333007812 1299.29980469 328 c 0
 1306.29980469 322.666992188 1315.79980469 313.5 1327.79980469 300.5 c 0
 1339.79980469 287.5 1350.29980469 275 1359.29980469 263 c 0
 1368.29980469 251 1370.1328125 239.333007812 1364.79980469 228 c 1
 1359.46582031 220 1353.29980469 218.333007812 1346.29980469 223 c 0
 1339.29980469 227.666992188 1331.1328125 231.666992188 1321.79980469 235 c 0
 1312.46582031 238.333007812 1302.29980469 240.666992188 1291.29980469 242 c 0
 1280.29980469 243.333007812 1263.1328125 244 1239.79980469 244 c 2
 230.799804688 244 l 2
 215.465820312 244 201.465820312 245 188.799804688 247 c 0
 176.1328125 249 166.299804688 251.166992188 159.299804688 253.5 c 0
 152.299804688 255.833007812 144.799804688 259 136.799804688 263 c 0
 128.799804688 267 120.299804688 271.833007812 111.299804688 277.5 c 0
 102.299804688 283.166992188 92.7998046875 291.166992188 82.7998046875 301.5 c 0
 72.7998046875 311.833007812 62.6328125 323.833007812 52.2998046875 337.5 c 0
 41.9658203125 351.166992188 35.4658203125 360.666992188 32.7998046875 366 c 0
 30.1328125 371.333007812 30.4658203125 376.666992188 33.7998046875 382 c 0
1026.79980469 1268 m 1
 1036.79980469 1266.66699219 1041.1328125 1262 1039.79980469 1254 c 0
 1038.46582031 1246 1032.1328125 1241.66699219 1020.79980469 1241 c 1
 1008.1328125 1237 997.799804688 1222.16699219 989.799804688 1196.5 c 0
 981.799804688 1170.83300781 973.465820312 1143.66699219 964.799804688 1115 c 0
 944.1328125 1047.66699219 925.1328125 993.166992188 907.799804688 951.5 c 0
 890.465820312 909.833007812 873.965820312 880.833007812 858.299804688 864.5 c 0
 842.6328125 848.166992188 824.1328125 835.666992188 802.799804688 827 c 0
 769.465820312 813.666992188 736.6328125 803.833007812 704.299804688 797.5 c 0
 671.965820312 791.166992188 643.799804688 788 619.799804688 788 c 1
 631.799804688 762 651.465820312 744.166992188 678.799804688 734.5 c 0
 706.1328125 724.833007812 714.1328125 714.333007812 702.799804688 703 c 0
 696.1328125 697 674.799804688 705.333007812 638.799804688 728 c 0
 602.799804688 750.666992188 578.1328125 773 564.799804688 795 c 1
 564.799804688 809 571.1328125 814.833007812 583.799804688 812.5 c 0
 596.465820312 810.166992188 609.799804688 808.333007812 623.799804688 807 c 0
 638.465820312 806.333007812 653.299804688 807.166992188 668.299804688 809.5 c 0
 683.299804688 811.833007812 703.465820312 818.666992188 728.799804688 830 c 0
 741.465820312 836 753.299804688 849 764.299804688 869 c 0
 775.299804688 889 785.1328125 911.166992188 793.799804688 935.5 c 0
 802.465820312 959.833007812 809.965820312 983.833007812 816.299804688 1007.5 c 0
 822.6328125 1031.16699219 830.799804688 1065.5 840.799804688 1110.5 c 0
 850.799804688 1155.5 859.465820312 1185.66699219 866.799804688 1201 c 0
 874.1328125 1216.33300781 884.299804688 1228.66699219 897.299804688 1238 c 0
 910.299804688 1247.33300781 922.799804688 1253.33300781 934.799804688 1256 c 0
 946.799804688 1258.66699219 960.299804688 1260.83300781 975.299804688 1262.5 c 0
 990.299804688 1264.16699219 1007.46582031 1266 1026.79980469 1268 c 1
EndSplineSet
Fore
SplineSet
925.51953125 1103.74023438 m 4x00
 925.51953125 1178.07128906 862.65625 1179.71972656 857.080078125 1179.71972656 c 4
 841.61328125 1179.71972656 822.859375 1173.91992188 800.819335938 1162.3203125 c 4
 754.151367188 1137.7578125 725.731445312 1060.81152344 715.559570312 931.48046875 c 4
 701.3671875 767.474609375 668.98828125 681.947265625 527.639648438 626.98046875 c 4
 506.758789062 618.860351562 489.359375 613.639648438 475.439453125 611.3203125 c 6
 424.399414062 603.200195312 l 5
 639 499.959960938 l 6
 687.719726562 477.533203125 721.166015625 466.3203125 739.33984375 466.3203125 c 4
 815.552734375 466.3203125 706.869140625 532.635742188 627.399414062 555.639648438 c 6
 577.51953125 570.719726562 l 5
 616.959960938 578.83984375 l 6
 710.212890625 599.044921875 809.08984375 672.477539062 837.359375 744.719726562 c 4
 866.447265625 824.706054688 835.83203125 1031.33496094 911.599609375 1074.16015625 c 4
 920.87890625 1080.34667969 925.51953125 1090.20703125 925.51953125 1103.74023438 c 4x00
460.359375 433.83984375 m 5
 460.359375 431.51953125 l 6
 460.359375 429.3203125 461.819335938 421.497070312 481.239257812 414.69921875 c 4
 528.454101562 398.174804688 518.58203125 234.45703125 604.779296875 207.639648438 c 4
 622.1796875 202.2265625 647.505859375 199.51953125 680.759765625 199.51953125 c 4
 714.012695312 199.51953125 730.639648438 206.092773438 730.639648438 219.240234375 c 4
 730.639648438 239.69140625 710.938476562 226.163085938 694.6796875 258.6796875 c 4
 667.5703125 312.8984375 660.71875 408.645507812 613.479492188 433.83984375 c 4
 591.729492188 445.440429688 562.015625 451.240234375 524.3359375 451.240234375 c 4
 486.657226562 451.240234375 465.331054688 445.440429688 460.359375 433.83984375 c 5
481.240234375 -11.599609375 m 4x80
 484.638671875 -11.599609375 656.608398438 -6.9599609375 821.119140625 -6.9599609375 c 4
 988.051757812 -6.9599609375 1105.31933594 -6.9599609375 1215.51953125 -44.66015625 c 4
 1232.16015625 -50.353515625 1252.23632812 -60.3203125 1252.63964844 -60.3203125 c 4
 1262.69238281 -60.3203125 1267.71972656 -52.2001953125 1267.71972656 -35.9599609375 c 260
 1267.71972656 -18.9482421875 1261.53320312 -5.8017578125 1249.16015625 3.48046875 c 4
 1168.73242188 69.2138671875 1079.79882812 109.426757812 982.359375 124.120117188 c 4
 964.572265625 127.212890625 933.639648438 128.759765625 889.559570312 128.759765625 c 4x40
 787.1796875 128.759765625 677.21875 120.639648438 423.239257812 120.639648438 c 4
 338.172851562 120.639648438 282.87890625 122.186523438 257.359375 125.280273438 c 4
 154.505859375 138.426757812 89.1591796875 152.733398438 61.3193359375 168.200195312 c 4
 58.2255859375 170.51953125 54.166015625 171.6796875 49.1396484375 171.6796875 c 4
 23.259765625 171.6796875 -14.7763671875 61.2255859375 253.879882812 8.1201171875 c 4
 328.892578125 -5.0263671875 404.6796875 -11.599609375 481.240234375 -11.599609375 c 4x80
EndSplineSet
EndChar

StartChar: oligonDoubleYpsili
Encoding: 57353 57353 41
Width: 1317
VWidth: 1392
Flags: W
HStem: -11.5996 132.239<249.523 767.676> -6.95996 135.72<536.187 1058.8>
AnchorPoint: "gorgonBottom" 700 -80 basechar 0
AnchorPoint: "yfenAbove" 879.8 1039 basechar 0
AnchorPoint: "yfenBelow" 878.8 -272 basechar 0
AnchorPoint: "koronis" 732.8 1029 basechar 0
AnchorPoint: "endofonon" 751.8 -294 basechar 0
AnchorPoint: "measureNumber" 31.7998 568 basechar 0
AnchorPoint: "isonIndicator" 31.7998 1041 basechar 0
AnchorPoint: "heteronConnecting" 1641.8 -251 basechar 0
AnchorPoint: "heteron" 1036.8 -5 basechar 0
AnchorPoint: "omalon" 980.8 -99 basechar 0
AnchorPoint: "omalonConnecting" 1420.8 -99 basechar 0
AnchorPoint: "antikenoma" 769.8 -67 basechar 0
AnchorPoint: "apli" 752.8 -202 basechar 0
AnchorPoint: "noteTop" 143.8 540 basechar 0
AnchorPoint: "fthoraTop" 627.8 275 basechar 0
AnchorPoint: "fthoraBottom" 738.8 -23 basechar 0
AnchorPoint: "diesis" 349.8 -99 basechar 0
AnchorPoint: "yfesis" 1265.8 387 basechar 0
AnchorPoint: "klasmaBottom" 680 -70 basechar 0
AnchorPoint: "gorgonTop" 600 220 basechar 0
AnchorPoint: "psifiston" 789.8 -119 basechar 0
LayerCount: 2
Back
SplineSet
34.7998046875 382 m 0
 38.1328125 387.333007812 41.966796875 390.166992188 46.2998046875 390.5 c 0
 50.6328125 390.833007812 55.1328125 389.666992188 59.7998046875 387 c 0
 64.466796875 384.333007812 70.466796875 381.166992188 77.7998046875 377.5 c 0
 85.1328125 373.833007812 94.466796875 370.833007812 105.799804688 368.5 c 0
 117.1328125 366.166992188 133.1328125 365 153.799804688 365 c 2
 1177.79980469 365 l 2
 1196.46679688 365 1213.46679688 363.5 1228.79980469 360.5 c 0
 1244.1328125 357.5 1258.1328125 352.666992188 1270.79980469 346 c 0
 1283.46679688 339.333007812 1293.29980469 333.333007812 1300.29980469 328 c 0
 1307.29980469 322.666992188 1316.79980469 313.5 1328.79980469 300.5 c 0
 1340.79980469 287.5 1351.29980469 275 1360.29980469 263 c 0
 1369.29980469 251 1371.1328125 239.333007812 1365.79980469 228 c 1
 1360.46679688 220 1354.29980469 218.333007812 1347.29980469 223 c 0
 1340.29980469 227.666992188 1332.1328125 231.666992188 1322.79980469 235 c 0
 1313.46679688 238.333007812 1303.29980469 240.666992188 1292.29980469 242 c 0
 1281.29980469 243.333007812 1264.1328125 244 1240.79980469 244 c 2
 231.799804688 244 l 2
 216.466796875 244 202.466796875 245 189.799804688 247 c 0
 177.1328125 249 167.299804688 251.166992188 160.299804688 253.5 c 0
 153.299804688 255.833007812 145.799804688 259 137.799804688 263 c 0
 129.799804688 267 121.299804688 271.833007812 112.299804688 277.5 c 0
 103.299804688 283.166992188 93.7998046875 291.166992188 83.7998046875 301.5 c 0
 73.7998046875 311.833007812 63.6328125 323.833007812 53.2998046875 337.5 c 0
 42.966796875 351.166992188 36.466796875 360.666992188 33.7998046875 366 c 0
 31.1328125 371.333007812 31.466796875 376.666992188 34.7998046875 382 c 0
1376.79980469 1161 m 1
 1387.46679688 1159 1392.1328125 1153.5 1390.79980469 1144.5 c 0
 1389.46679688 1135.5 1382.79980469 1130.66699219 1370.79980469 1130 c 1
 1356.79980469 1125.33300781 1345.6328125 1107.66699219 1337.29980469 1077 c 0
 1328.96679688 1046.33300781 1319.79980469 1014 1309.79980469 980 c 0
 1287.1328125 900.666992188 1266.46679688 836.333007812 1247.79980469 787 c 0
 1229.1328125 737.666992188 1211.46679688 703.166992188 1194.79980469 683.5 c 0
 1178.1328125 663.833007812 1158.1328125 648.666992188 1134.79980469 638 c 0
 1098.79980469 622.666992188 1063.1328125 611.333007812 1027.79980469 604 c 0
 992.466796875 596.666992188 962.1328125 593 936.799804688 593 c 1
 949.466796875 563 970.799804688 542 1000.79980469 530 c 0
 1030.79980469 518 1039.46679688 505.333007812 1026.79980469 492 c 0
 1019.46679688 484.666992188 996.299804688 494.333007812 957.299804688 521 c 0
 918.299804688 547.666992188 891.799804688 574 877.799804688 600 c 1
 877.799804688 616.666992188 884.466796875 623.666992188 897.799804688 621 c 0
 911.1328125 618.333007812 925.799804688 616.333007812 941.799804688 615 c 256
 957.1328125 614.333007812 972.966796875 615.333007812 989.299804688 618 c 0
 1005.6328125 620.666992188 1027.46679688 629 1054.79980469 643 c 0
 1068.1328125 649.666992188 1080.79980469 664.833007812 1092.79980469 688.5 c 0
 1104.79980469 712.166992188 1115.46679688 738.333007812 1124.79980469 767 c 0
 1134.1328125 795.666992188 1142.1328125 824.166992188 1148.79980469 852.5 c 0
 1155.46679688 880.833007812 1164.29980469 921.666992188 1175.29980469 975 c 0
 1186.29980469 1028.33300781 1195.79980469 1064 1203.79980469 1082 c 0
 1211.79980469 1100 1222.96679688 1114.66699219 1237.29980469 1126 c 0
 1251.6328125 1137.33300781 1265.29980469 1144.66699219 1278.29980469 1148 c 0
 1291.29980469 1151.33300781 1305.6328125 1153.66699219 1321.29980469 1155 c 0
 1336.96679688 1156.33300781 1355.46679688 1158.33300781 1376.79980469 1161 c 1
610.799804688 1161 m 1
 621.466796875 1159 626.1328125 1153.5 624.799804688 1144.5 c 0
 623.466796875 1135.5 616.466796875 1130.66699219 603.799804688 1130 c 1
 589.799804688 1125.33300781 578.6328125 1107.66699219 570.299804688 1077 c 0
 561.966796875 1046.33300781 552.799804688 1014 542.799804688 980 c 0
 520.1328125 900.666992188 499.466796875 836.333007812 480.799804688 787 c 0
 462.1328125 737.666992188 444.466796875 703.166992188 427.799804688 683.5 c 0
 411.1328125 663.833007812 391.1328125 648.666992188 367.799804688 638 c 0
 331.799804688 622.666992188 296.299804688 611.333007812 261.299804688 604 c 0
 226.299804688 596.666992188 195.799804688 593 169.799804688 593 c 1
 182.466796875 563 203.799804688 542 233.799804688 530 c 0
 263.799804688 518 272.466796875 505.333007812 259.799804688 492 c 0
 252.466796875 484.666992188 229.466796875 494.333007812 190.799804688 521 c 0
 152.1328125 547.666992188 125.466796875 574 110.799804688 600 c 1
 110.799804688 616.666992188 117.6328125 623.666992188 131.299804688 621 c 0
 144.966796875 618.333007812 159.466796875 616.333007812 174.799804688 615 c 256
 190.1328125 614.333007812 205.966796875 615.333007812 222.299804688 618 c 0
 238.6328125 620.666992188 260.466796875 629 287.799804688 643 c 0
 301.1328125 649.666992188 313.799804688 664.833007812 325.799804688 688.5 c 0
 337.799804688 712.166992188 348.6328125 738.333007812 358.299804688 767 c 0
 367.966796875 795.666992188 376.1328125 824.166992188 382.799804688 852.5 c 0
 389.466796875 880.833007812 398.299804688 921.666992188 409.299804688 975 c 0
 420.299804688 1028.33300781 429.6328125 1064 437.299804688 1082 c 0
 444.966796875 1100 455.966796875 1114.66699219 470.299804688 1126 c 0
 484.6328125 1137.33300781 498.299804688 1144.66699219 511.299804688 1148 c 0
 524.299804688 1151.33300781 538.799804688 1153.66699219 554.799804688 1155 c 0
 570.799804688 1156.33300781 589.466796875 1158.33300781 610.799804688 1161 c 1
EndSplineSet
Fore
SplineSet
532.120117188 836.940429688 m 4x00
 532.120117188 911.274414062 469.24609375 912.919921875 463.6796875 912.919921875 c 4
 448.212890625 912.919921875 429.459960938 907.120117188 407.418945312 895.51953125 c 4
 360.751953125 870.958984375 332.33203125 794.01171875 322.16015625 664.6796875 c 4
 307.967773438 500.682617188 275.595703125 415.155273438 134.240234375 360.1796875 c 4
 113.360351562 352.059570312 95.9599609375 346.83984375 82.0400390625 344.51953125 c 6
 31 336.400390625 l 5
 245.599609375 233.16015625 l 6
 294.319335938 210.733398438 327.766601562 199.51953125 345.940429688 199.51953125 c 4
 422.153320312 199.51953125 313.466796875 265.836914062 234 288.83984375 c 6
 184.120117188 303.919921875 l 5
 223.559570312 312.040039062 l 6
 316.814453125 332.245117188 415.69140625 405.677734375 443.959960938 477.919921875 c 4
 473.045898438 557.911132812 442.435546875 764.537109375 518.200195312 807.360351562 c 4
 527.48046875 813.546875 532.120117188 823.40625 532.120117188 836.940429688 c 4x00
1286.12011719 836.940429688 m 4
 1286.12011719 911.274414062 1223.24609375 912.919921875 1217.6796875 912.919921875 c 4
 1202.21289062 912.919921875 1183.45996094 907.120117188 1161.41894531 895.51953125 c 4
 1114.75195312 870.958984375 1086.33203125 794.01171875 1076.16015625 664.6796875 c 4
 1061.96777344 500.682617188 1029.59570312 415.155273438 888.240234375 360.1796875 c 4
 867.360351562 352.059570312 849.959960938 346.83984375 836.040039062 344.51953125 c 6
 785 336.400390625 l 5
 999.599609375 233.16015625 l 6
 1048.31933594 210.733398438 1081.76660156 199.51953125 1099.94042969 199.51953125 c 4
 1176.15332031 199.51953125 1067.46679688 265.836914062 988 288.83984375 c 6
 938.120117188 303.919921875 l 5
 977.559570312 312.040039062 l 6
 1070.81445312 332.245117188 1169.69140625 405.677734375 1197.95996094 477.919921875 c 4
 1227.04589844 557.911132812 1196.43554688 764.537109375 1272.20019531 807.360351562 c 4
 1281.48046875 813.546875 1286.12011719 823.40625 1286.12011719 836.940429688 c 4
482.240234375 -11.599609375 m 4x80
 485.639648438 -11.599609375 657.608398438 -6.9599609375 822.120117188 -6.9599609375 c 4
 989.051757812 -6.9599609375 1106.31933594 -6.9599609375 1216.51953125 -44.66015625 c 4
 1233.16113281 -50.353515625 1253.23632812 -60.3203125 1253.63964844 -60.3203125 c 4
 1263.69335938 -60.3203125 1268.71972656 -52.2001953125 1268.71972656 -35.9599609375 c 260
 1268.71972656 -18.9482421875 1262.53320312 -5.8017578125 1250.16015625 3.48046875 c 4
 1169.73339844 69.2138671875 1080.79980469 109.426757812 983.359375 124.120117188 c 4
 965.573242188 127.212890625 934.639648438 128.759765625 890.559570312 128.759765625 c 4x40
 788.1796875 128.759765625 678.21875 120.639648438 424.239257812 120.639648438 c 4
 339.172851562 120.639648438 283.879882812 122.186523438 258.359375 125.280273438 c 4
 155.506835938 138.426757812 90.16015625 152.733398438 62.3193359375 168.200195312 c 4
 59.2265625 170.51953125 55.166015625 171.6796875 50.1396484375 171.6796875 c 4
 24.2607421875 171.6796875 -13.7763671875 61.2255859375 254.879882812 8.1201171875 c 4
 329.892578125 -5.0263671875 405.6796875 -11.599609375 482.240234375 -11.599609375 c 4x80
EndSplineSet
EndChar

StartChar: oligonKentimataDoubleYpsili
Encoding: 57354 57354 42
Width: 1478
VWidth: 1392
Flags: W
HStem: -6.95996 134.56<224.486 489.566 1046.95 1214.56> 414.699 36.541<430.652 469.821 662.652 701.821>
AnchorPoint: "gorgonBottom" 780 -80 basechar 0
AnchorPoint: "yfenAbove" 879.007 1139 basechar 0
AnchorPoint: "yfenBelow" 878.007 -272 basechar 0
AnchorPoint: "koronis" 732.007 1139 basechar 0
AnchorPoint: "endofonon" 751.007 -294 basechar 0
AnchorPoint: "measureNumber" 31.0068 643 basechar 0
AnchorPoint: "isonIndicator" 31.0068 1141 basechar 0
AnchorPoint: "heteronConnecting" 1641.01 -251 basechar 0
AnchorPoint: "heteron" 1036.01 -5 basechar 0
AnchorPoint: "omalon" 980.007 -99 basechar 0
AnchorPoint: "omalonConnecting" 1420.01 -99 basechar 0
AnchorPoint: "antikenoma" 769.007 -67 basechar 0
AnchorPoint: "apli" 752.007 -202 basechar 0
AnchorPoint: "noteTop" 105.007 448 basechar 0
AnchorPoint: "fthoraTop" 263.007 839 basechar 0
AnchorPoint: "fthoraBottom" 738.007 -23 basechar 0
AnchorPoint: "diesis" 349.007 -99 basechar 0
AnchorPoint: "yfesis" 1317.01 387 basechar 0
AnchorPoint: "klasmaBottom" 730 -70 basechar 0
AnchorPoint: "psifiston" 789.007 -119 basechar 0
LayerCount: 2
Back
SplineSet
320.006835938 695 m 0
 340.006835938 695 361.006835938 694.666992188 383.006835938 694 c 0
 405.006835938 693.333007812 424.672851562 691.333007812 442.006835938 688 c 1
 454.672851562 688 468.006835938 666.666992188 482.006835938 624 c 0
 496.006835938 581.333007812 512.672851562 539.666992188 532.006835938 499 c 0
 538.006835938 485 544.33984375 477 551.006835938 475 c 0
 556.33984375 473 560.33984375 469.5 563.006835938 464.5 c 0
 565.672851562 459.5 562.672851562 455 554.006835938 451 c 1
 534.006835938 447 513.506835938 445.333007812 492.506835938 446 c 0
 471.506835938 446.666992188 451.672851562 448.333007812 433.006835938 451 c 1
 415.672851562 459 402.006835938 478.166992188 392.006835938 508.5 c 0
 382.006835938 538.833007812 366.672851562 583 346.006835938 641 c 0
 344.672851562 644.333007812 341.172851562 649.5 335.506835938 656.5 c 0
 329.83984375 663.5 323.672851562 667.666992188 317.006835938 669 c 0
 307.672851562 670.333007812 302.33984375 674.833007812 301.006835938 682.5 c 0
 299.672851562 690.166992188 306.006835938 694.333007812 320.006835938 695 c 0
591.006835938 695 m 0
 611.006835938 695 631.83984375 694.666992188 653.506835938 694 c 0
 675.172851562 693.333007812 695.006835938 691.333007812 713.006835938 688 c 1
 725.672851562 688 738.83984375 666.666992188 752.506835938 624 c 0
 766.172851562 581.333007812 782.672851562 539.666992188 802.006835938 499 c 0
 808.006835938 485 814.33984375 477 821.006835938 475 c 0
 826.33984375 473 830.33984375 469.5 833.006835938 464.5 c 0
 835.672851562 459.5 832.672851562 455 824.006835938 451 c 1
 804.006835938 447 783.672851562 445.333007812 763.006835938 446 c 0
 742.33984375 446.666992188 722.672851562 448.333007812 704.006835938 451 c 1
 686.672851562 459 673.006835938 478.166992188 663.006835938 508.5 c 0
 653.006835938 538.833007812 637.672851562 583 617.006835938 641 c 0
 615.006835938 644.333007812 611.172851562 649.5 605.506835938 656.5 c 0
 599.83984375 663.5 593.672851562 667.666992188 587.006835938 669 c 0
 577.672851562 670.333007812 572.506835938 674.833007812 571.506835938 682.5 c 0
 570.506835938 690.166992188 577.006835938 694.333007812 591.006835938 695 c 0
34.0068359375 382 m 0
 37.33984375 387.333007812 41.1728515625 390.166992188 45.5068359375 390.5 c 0
 49.83984375 390.833007812 54.33984375 389.666992188 59.0068359375 387 c 0
 63.6728515625 384.333007812 69.6728515625 381.166992188 77.0068359375 377.5 c 0
 84.33984375 373.833007812 93.6728515625 370.833007812 105.006835938 368.5 c 0
 116.33984375 366.166992188 132.33984375 365 153.006835938 365 c 2
 1177.00683594 365 l 2
 1195.67285156 365 1212.67285156 363.5 1228.00683594 360.5 c 0
 1243.33984375 357.5 1257.33984375 352.666992188 1270.00683594 346 c 0
 1282.67285156 339.333007812 1292.50683594 333.333007812 1299.50683594 328 c 0
 1306.50683594 322.666992188 1316.00683594 313.5 1328.00683594 300.5 c 0
 1340.00683594 287.5 1350.50683594 275 1359.50683594 263 c 0
 1368.50683594 251 1370.33984375 239.333007812 1365.00683594 228 c 1
 1359.67285156 220 1353.50683594 218.333007812 1346.50683594 223 c 0
 1339.50683594 227.666992188 1331.33984375 231.666992188 1322.00683594 235 c 0
 1312.67285156 238.333007812 1302.50683594 240.666992188 1291.50683594 242 c 0
 1280.50683594 243.333007812 1263.33984375 244 1240.00683594 244 c 2
 231.006835938 244 l 2
 215.672851562 244 201.672851562 245 189.006835938 247 c 0
 176.33984375 249 166.506835938 251.166992188 159.506835938 253.5 c 0
 152.506835938 255.833007812 145.006835938 259 137.006835938 263 c 0
 129.006835938 267 120.506835938 271.833007812 111.506835938 277.5 c 0
 102.506835938 283.166992188 93.0068359375 291.166992188 83.0068359375 301.5 c 0
 73.0068359375 311.833007812 62.83984375 323.833007812 52.5068359375 337.5 c 0
 42.1728515625 351.166992188 35.6728515625 360.666992188 33.0068359375 366 c 0
 30.33984375 371.333007812 30.6728515625 376.666992188 34.0068359375 382 c 0
1430.00683594 1161 m 1
 1440.67285156 1159 1445.33984375 1153.5 1444.00683594 1144.5 c 0
 1442.67285156 1135.5 1436.00683594 1130.66699219 1424.00683594 1130 c 1
 1410.00683594 1125.33300781 1398.67285156 1107.66699219 1390.00683594 1077 c 0
 1381.33984375 1046.33300781 1372.33984375 1014 1363.00683594 980 c 0
 1340.33984375 900.666992188 1319.67285156 836.333007812 1301.00683594 787 c 0
 1282.33984375 737.666992188 1264.50683594 703.166992188 1247.50683594 683.5 c 0
 1230.50683594 663.833007812 1210.33984375 648.666992188 1187.00683594 638 c 0
 1151.00683594 622.666992188 1115.50683594 611.333007812 1080.50683594 604 c 0
 1045.50683594 596.666992188 1015.33984375 593 990.006835938 593 c 1
 1002.67285156 563 1023.83984375 542 1053.50683594 530 c 0
 1083.17285156 518 1091.67285156 505.333007812 1079.00683594 492 c 0
 1071.67285156 484.666992188 1048.67285156 494.333007812 1010.00683594 521 c 0
 971.33984375 547.666992188 944.672851562 574 930.006835938 600 c 1
 930.006835938 616.666992188 936.83984375 623.666992188 950.506835938 621 c 0
 964.172851562 618.333007812 978.672851562 616.333007812 994.006835938 615 c 256
 1009.33984375 614.333007812 1025.33984375 615.333007812 1042.00683594 618 c 0
 1058.67285156 620.666992188 1080.67285156 629 1108.00683594 643 c 0
 1121.33984375 649.666992188 1133.83984375 664.833007812 1145.50683594 688.5 c 0
 1157.17285156 712.166992188 1167.83984375 738.333007812 1177.50683594 767 c 0
 1187.17285156 795.666992188 1195.33984375 824.166992188 1202.00683594 852.5 c 0
 1208.67285156 880.833007812 1217.50683594 921.666992188 1228.50683594 975 c 0
 1239.50683594 1028.33300781 1248.83984375 1064 1256.50683594 1082 c 0
 1264.17285156 1100 1275.17285156 1114.66699219 1289.50683594 1126 c 0
 1303.83984375 1137.33300781 1317.50683594 1144.66699219 1330.50683594 1148 c 0
 1343.50683594 1151.33300781 1358.00683594 1153.66699219 1374.00683594 1155 c 0
 1390.00683594 1156.33300781 1408.67285156 1158.33300781 1430.00683594 1161 c 1
823.006835938 1270 m 1
 832.33984375 1268.66699219 836.506835938 1264.5 835.506835938 1257.5 c 0
 834.506835938 1250.5 828.33984375 1246.66699219 817.006835938 1246 c 1
 805.006835938 1242 795.172851562 1228.83300781 787.506835938 1206.5 c 0
 779.83984375 1184.16699219 771.672851562 1160.33300781 763.006835938 1135 c 0
 743.006835938 1075.66699219 724.83984375 1027.66699219 708.506835938 991 c 0
 692.172851562 954.333007812 676.672851562 928.666992188 662.006835938 914 c 0
 647.33984375 899.333007812 629.672851562 888 609.006835938 880 c 0
 577.006835938 868.666992188 545.672851562 860.166992188 515.006835938 854.5 c 0
 484.33984375 848.833007812 457.672851562 846 435.006835938 846 c 1
 446.33984375 823.333007812 465.172851562 807.666992188 491.506835938 799 c 0
 517.83984375 790.333007812 525.33984375 781 514.006835938 771 c 0
 507.33984375 765.666992188 487.006835938 773 453.006835938 793 c 0
 419.006835938 813 395.672851562 832.666992188 383.006835938 852 c 1
 383.006835938 864.666992188 388.83984375 869.833007812 400.506835938 867.5 c 0
 412.172851562 865.166992188 425.006835938 863.666992188 439.006835938 863 c 0
 453.006835938 862.333007812 467.172851562 863 481.506835938 865 c 0
 495.83984375 867 515.006835938 873.333007812 539.006835938 884 c 0
 551.006835938 889.333007812 562.172851562 900.666992188 572.506835938 918 c 0
 582.83984375 935.333007812 592.172851562 954.833007812 600.506835938 976.5 c 0
 608.83984375 998.166992188 616.006835938 1019.5 622.006835938 1040.5 c 0
 628.006835938 1061.5 635.672851562 1091.83300781 645.006835938 1131.5 c 0
 654.33984375 1171.16699219 662.506835938 1197.66699219 669.506835938 1211 c 0
 676.506835938 1224.33300781 686.33984375 1235.16699219 699.006835938 1243.5 c 0
 711.672851562 1251.83300781 723.83984375 1257.16699219 735.506835938 1259.5 c 0
 747.172851562 1261.83300781 760.006835938 1263.66699219 774.006835938 1265 c 0
 788.006835938 1266.33300781 804.33984375 1268 823.006835938 1270 c 1
EndSplineSet
Fore
SplineSet
995.327148438 1150.140625 m 4
 995.327148438 1224.47460938 932.453125 1226.12011719 926.88671875 1226.12011719 c 4
 911.419921875 1226.12011719 892.666015625 1220.3203125 870.625976562 1208.71972656 c 4
 823.958984375 1184.15917969 795.5390625 1107.21191406 785.3671875 977.879882812 c 4
 771.173828125 813.876953125 738.795898438 728.348632812 597.447265625 673.379882812 c 4
 576.56640625 665.259765625 559.166992188 660.040039062 545.247070312 657.719726562 c 6
 494.20703125 649.599609375 l 5
 708.806640625 546.360351562 l 6
 757.526367188 523.93359375 790.97265625 512.719726562 809.146484375 512.719726562 c 4
 885.359375 512.719726562 776.672851562 579.037109375 697.20703125 602.040039062 c 6
 647.327148438 617.120117188 l 5
 686.766601562 625.240234375 l 6
 780.020507812 645.4453125 878.8984375 718.877929688 907.166992188 791.120117188 c 4
 936.255859375 871.119140625 905.639648438 1077.73828125 981.407226562 1120.55957031 c 4
 990.686523438 1126.74609375 995.327148438 1136.60644531 995.327148438 1150.140625 c 4
1447.7265625 836.940429688 m 4
 1447.7265625 911.274414062 1384.85644531 912.919921875 1379.28710938 912.919921875 c 4
 1363.8203125 912.919921875 1345.06640625 907.120117188 1323.02636719 895.51953125 c 4
 1276.35839844 870.958007812 1247.93847656 794.01171875 1237.76660156 664.6796875 c 4
 1223.57421875 500.6796875 1191.20019531 415.153320312 1049.84667969 360.1796875 c 4
 1028.96582031 352.059570312 1011.56640625 346.83984375 997.646484375 344.51953125 c 6
 946.606445312 336.400390625 l 5
 1161.20703125 233.16015625 l 6
 1209.92675781 210.733398438 1243.37304688 199.51953125 1261.546875 199.51953125 c 4
 1337.75878906 199.51953125 1229.07714844 265.8359375 1149.60644531 288.83984375 c 6
 1099.7265625 303.919921875 l 5
 1139.16699219 312.040039062 l 6
 1232.41992188 332.245117188 1331.29785156 405.677734375 1359.56640625 477.919921875 c 4
 1388.65234375 557.893554688 1358.04003906 764.53515625 1433.80664062 807.360351562 c 4
 1443.0859375 813.546875 1447.7265625 823.40625 1447.7265625 836.940429688 c 4
430.407226562 433.83984375 m 5
 430.407226562 431.51953125 l 6
 430.407226562 429.318359375 431.8671875 421.49609375 451.286132812 414.69921875 c 4
 498.499023438 398.174804688 488.633789062 234.455078125 574.826171875 207.639648438 c 4
 592.2265625 202.2265625 617.552734375 199.51953125 650.806640625 199.51953125 c 4
 684.059570312 199.51953125 700.686523438 206.092773438 700.686523438 219.240234375 c 4
 700.686523438 239.69140625 680.985351562 226.163085938 664.7265625 258.6796875 c 4
 637.61328125 312.91015625 630.765625 408.645507812 583.526367188 433.83984375 c 4
 561.77734375 445.440429688 532.0625 451.240234375 494.3828125 451.240234375 c 4
 456.703125 451.240234375 435.377929688 445.440429688 430.407226562 433.83984375 c 5
662.407226562 433.83984375 m 5
 662.407226562 431.51953125 l 6
 662.407226562 429.318359375 663.8671875 421.49609375 683.286132812 414.69921875 c 4
 730.499023438 398.174804688 720.633789062 234.455078125 806.826171875 207.639648438 c 4
 824.2265625 202.2265625 849.552734375 199.51953125 882.806640625 199.51953125 c 4
 916.059570312 199.51953125 932.686523438 206.092773438 932.686523438 219.240234375 c 4
 932.686523438 239.69140625 912.985351562 226.163085938 896.7265625 258.6796875 c 4
 869.61328125 312.91015625 862.765625 408.645507812 815.526367188 433.83984375 c 4
 793.77734375 445.440429688 764.0625 451.240234375 726.3828125 451.240234375 c 4
 688.703125 451.240234375 667.377929688 445.440429688 662.407226562 433.83984375 c 5
1133.3671875 124.120117188 m 4
 1114.80664062 126.439453125 1085.99902344 127.599609375 1046.94628906 127.599609375 c 4
 1007.89355469 127.599609375 800.833007812 125.279296875 425.766601562 120.639648438 c 5
 339.153320312 120.639648438 283.0859375 122.186523438 257.56640625 125.280273438 c 4
 152.392578125 138.426757812 87.0458984375 152.733398438 61.5263671875 168.200195312 c 4
 58.4326171875 170.51953125 53.986328125 171.6796875 48.1865234375 171.6796875 c 4
 21.2373046875 171.6796875 -9.9267578125 54.0078125 259.88671875 7.5390625 c 4
 329.486328125 -4.447265625 406.046875 -10.4404296875 489.56640625 -10.4404296875 c 6
 532.487304688 -10.4404296875 l 5
 625.286132812 -8.1201171875 746.69921875 -6.9599609375 896.7265625 -6.9599609375 c 4
 1046.75292969 -6.9599609375 1127.953125 -7.3466796875 1140.32714844 -8.1201171875 c 4
 1239.89746094 -14.953125 1315.296875 -27.1337890625 1366.52636719 -44.66015625 c 4
 1383.16699219 -50.353515625 1403.24316406 -60.3203125 1403.64648438 -60.3203125 c 4
 1412.92578125 -60.3203125 1417.56640625 -52.0068359375 1417.56640625 -35.380859375 c 4
 1417.56640625 -18.75390625 1411.76660156 -5.7998046875 1400.16699219 3.48046875 c 4
 1322.83300781 69.2138671875 1233.90039062 109.426757812 1133.3671875 124.120117188 c 4
EndSplineSet
EndChar

StartChar: isonApostrofos
Encoding: 57376 57376 43
Width: 1592
VWidth: 1392
Flags: W
HStem: -370.04 290<973.66 1327.46> -6.95996 93.96<242.935 710.644> 0 118.32<473.463 1066.94> 190.24 80.04<144.329 293.303>
VStem: 30 175.16<104.514 190.571>
AnchorPoint: "yfenAbove" 638.8 659 basechar 0
AnchorPoint: "yfenBelow" 702.8 -468 basechar 0
AnchorPoint: "koronis" 578.8 649 basechar 0
AnchorPoint: "apli" 1192.8 -656 basechar 0
AnchorPoint: "measureNumber" 30.7998 541 basechar 0
AnchorPoint: "isonIndicator" 30.7998 663 basechar 0
AnchorPoint: "noteTop" 270.8 429 basechar 0
AnchorPoint: "fthoraTop" 592.8 275 basechar 0
AnchorPoint: "fthoraBottom" 368.8 -79 basechar 0
AnchorPoint: "diesis" 348.8 -99 basechar 0
LayerCount: 2
Back
SplineSet
1092.79980469 -220 m 1
 1085.46679688 -214 1084.96679688 -208.5 1091.29980469 -203.5 c 0
 1097.6328125 -198.5 1105.79980469 -196 1115.79980469 -196 c 0
 1126.46679688 -196 1141.6328125 -186.166992188 1161.29980469 -166.5 c 0
 1180.96679688 -146.833007812 1193.79980469 -123 1199.79980469 -95 c 0
 1209.79980469 -46.3330078125 1184.46679688 -6.3330078125 1123.79980469 25 c 0
 1057.79980469 57.6669921875 972.799804688 79.3330078125 868.799804688 90 c 0
 851.466796875 91.3330078125 831.966796875 92 810.299804688 92 c 0
 788.6328125 92 776.466796875 92.3330078125 773.799804688 93 c 0
 764.466796875 96.3330078125 760.799804688 102 762.799804688 110 c 0
 764.799804688 118 769.799804688 122.666992188 777.799804688 124 c 0
 785.1328125 124 803.1328125 123.166992188 831.799804688 121.5 c 0
 860.466796875 119.833007812 892.1328125 116.666992188 926.799804688 112 c 0
 966.1328125 106 1005.96679688 98 1046.29980469 88 c 0
 1086.6328125 78 1124.1328125 66.3330078125 1158.79980469 53 c 0
 1198.1328125 37.6669921875 1229.46679688 22.1669921875 1252.79980469 6.5 c 0
 1276.1328125 -9.1669921875 1297.79980469 -29.6669921875 1317.79980469 -55 c 0
 1337.1328125 -81.6669921875 1345.1328125 -108 1341.79980469 -134 c 0
 1338.46679688 -160 1327.1328125 -180 1307.79980469 -194 c 0
 1290.46679688 -207.333007812 1270.1328125 -216.333007812 1246.79980469 -221 c 0
 1223.46679688 -225.666992188 1201.1328125 -228 1179.79980469 -228 c 256
 1147.79980469 -228 1147.79980469 -228 1136.29980469 -228 c 0
 1128.6328125 -228 1114.1328125 -225.333007812 1092.79980469 -220 c 1
51.7998046875 441 m 1
 26.466796875 487 19.6328125 526.5 31.2998046875 559.5 c 0
 42.966796875 592.5 63.7998046875 610 93.7998046875 612 c 0
 113.1328125 613.333007812 127.966796875 611.833007812 138.299804688 607.5 c 0
 148.6328125 603.166992188 157.799804688 598.833007812 165.799804688 594.5 c 0
 173.799804688 590.166992188 181.299804688 585.5 188.299804688 580.5 c 0
 195.299804688 575.5 201.799804688 570.333007812 207.799804688 565 c 0
 213.799804688 559.666992188 217.966796875 554.833007812 220.299804688 550.5 c 0
 222.6328125 546.166992188 223.6328125 542.166992188 223.299804688 538.5 c 0
 222.966796875 534.833007812 221.6328125 532.333007812 219.299804688 531 c 0
 216.966796875 529.666992188 209.966796875 526.666992188 198.299804688 522 c 0
 186.6328125 517.333007812 171.466796875 509.833007812 152.799804688 499.5 c 0
 134.1328125 489.166992188 125.1328125 471.666992188 125.799804688 447 c 0
 125.799804688 421.666992188 152.1328125 397.833007812 204.799804688 375.5 c 0
 257.466796875 353.166992188 335.799804688 344 439.799804688 348 c 2
 886.799804688 367 l 2
 908.799804688 367 926.299804688 365.5 939.299804688 362.5 c 0
 952.299804688 359.5 964.1328125 355.666992188 974.799804688 351 c 0
 985.466796875 346.333007812 994.466796875 341.833007812 1001.79980469 337.5 c 0
 1009.1328125 333.166992188 1017.79980469 326.5 1027.79980469 317.5 c 0
 1037.79980469 308.5 1049.29980469 297 1062.29980469 283 c 0
 1075.29980469 269 1083.96679688 258.666992188 1088.29980469 252 c 0
 1092.6328125 245.333007812 1094.79980469 238.833007812 1094.79980469 232.5 c 0
 1094.79980469 226.166992188 1092.6328125 222 1088.29980469 220 c 0
 1083.96679688 218 1079.46679688 217 1074.79980469 217 c 0
 1070.1328125 217 1065.1328125 218 1059.79980469 220 c 0
 1054.46679688 222 1047.96679688 224.333007812 1040.29980469 227 c 0
 1032.6328125 229.666992188 1024.1328125 232.333007812 1014.79980469 235 c 0
 1005.46679688 237.666992188 996.799804688 239.666992188 988.799804688 241 c 0
 980.799804688 242.333007812 969.799804688 243.333007812 955.799804688 244 c 2
 848.799804688 250 l 1
 787.466796875 250 722.966796875 252.5 655.299804688 257.5 c 0
 587.6328125 262.5 523.799804688 269 463.799804688 277 c 0
 403.799804688 285 351.1328125 293.666992188 305.799804688 303 c 0
 260.466796875 312.333007812 229.466796875 320 212.799804688 326 c 0
 184.1328125 338 158.6328125 349.833007812 136.299804688 361.5 c 0
 113.966796875 373.166992188 85.7998046875 399.666992188 51.7998046875 441 c 1
EndSplineSet
Fore
SplineSet
1319.91992188 -262.159179688 m 0x98
 1319.91992188 -306.388671875 1202.75976562 -289.033203125 1202.75976562 -335.240234375 c 0
 1202.75976562 -347.978515625 1218.5 -370.040039062 1327.45996094 -370.040039062 c 0
 1451.73046875 -370.040039062 1562.36035156 -326.306640625 1562.36035156 -277.239257812 c 0
 1562.36035156 -261 1551.14648438 -242.439453125 1528.71972656 -221.559570312 c 256
 1456.38867188 -154.215820312 1117.6171875 -80.0400390625 973.66015625 -80.0400390625 c 0
 899.692382812 -80.0400390625 888.400390625 -93.869140625 888.400390625 -120.639648438 c 0
 888.400390625 -190.546875 1210.99804688 -135.834960938 1295.55957031 -220.400390625 c 0
 1311.79980469 -236.639648438 1319.91992188 -250.559570312 1319.91992188 -262.159179688 c 0x98
382.639648438 186.1796875 m 0
 382.639648438 217.56640625 270.361328125 270.280273438 183.700195312 270.280273438 c 0
 104.95703125 270.280273438 46.05078125 228.794921875 45.66015625 228.51953125 c 0
 32.8525390625 219.479492188 30 210.04296875 30 171.099609375 c 0
 30 109.838867188 47.232421875 95.2451171875 142.51953125 52.779296875 c 0
 206.452148438 24.2880859375 276.573242188 -6.9599609375 424.979492188 -6.9599609375 c 0xd8
 453.979492188 -6.9599609375 610.772460938 -4.6396484375 895.359375 0 c 1
 957.818359375 0 1114.88964844 0 1174.91992188 -31.3203125 c 0
 1192.70605469 -40.6005859375 1205.85253906 -45.240234375 1214.359375 -45.240234375 c 0
 1229.82617188 -45.240234375 1237.55957031 -35.9599609375 1237.55957031 -17.400390625 c 0
 1237.55957031 -17.2138671875 1237.51074219 26.5244140625 1191.16015625 53.3603515625 c 0
 1116.14648438 96.6669921875 987 118.3203125 803.719726562 118.3203125 c 0xb8
 714.013671875 118.3203125 598.013671875 112.133789062 455.719726562 99.759765625 c 1
 431.359375 97.4404296875 l 2
 351.706054688 90.48046875 302.40625 87 283.459960938 87 c 0xd8
 247.572265625 87 240.37109375 89.4912109375 220.239257812 107.299804688 c 0
 210.186523438 116.193359375 205.16015625 126.052734375 205.16015625 136.879882812 c 0
 205.16015625 157.502929688 248.35546875 190.240234375 263.740234375 190.240234375 c 0
 285.0234375 190.240234375 330.6171875 157.759765625 351.900390625 157.759765625 c 0
 367.137695312 157.759765625 382.639648438 168.75390625 382.639648438 186.1796875 c 0
EndSplineSet
EndChar

StartChar: apostrofosSyndesmos
Encoding: 57378 57378 44
Width: 1615
VWidth: 1392
Flags: W
HStem: -254.04 290<996.859 1350.66> -68.4404 290<115.26 469.06>
AnchorPoint: "yfenAbove" 878.8 659 basechar 0
AnchorPoint: "yfenBelow" 1335.8 -346 basechar 0
AnchorPoint: "koronis" 578.8 649 basechar 0
AnchorPoint: "apli" 1350.8 -370 basechar 0
AnchorPoint: "measureNumber" 30.7998 571 basechar 0
AnchorPoint: "isonIndicator" 30.7998 663 basechar 0
AnchorPoint: "noteTop" 142.8 467 basechar 0
AnchorPoint: "fthoraTop" 535.8 410 basechar 0
AnchorPoint: "fthoraBottom" 321.8 -139 basechar 0
AnchorPoint: "gorgonTop" 1300 100 basechar 0
AnchorPoint: "diesis" 281.8 -105 basechar 0
LayerCount: 2
Back
SplineSet
816.799804688 -219 m 1
 809.466796875 -213 809.1328125 -207.666992188 815.799804688 -203 c 0
 822.466796875 -198.333007812 830.799804688 -196 840.799804688 -196 c 0
 851.466796875 -196 866.6328125 -186 886.299804688 -166 c 0
 905.966796875 -146 918.799804688 -122 924.799804688 -94 c 0
 934.799804688 -45.3330078125 909.1328125 -5.3330078125 847.799804688 26 c 0
 781.799804688 58.6669921875 697.1328125 80.3330078125 593.799804688 91 c 0
 576.466796875 92.3330078125 556.799804688 93 534.799804688 93 c 0
 512.799804688 93 500.466796875 93.3330078125 497.799804688 94 c 0
 488.466796875 97.3330078125 484.966796875 103 487.299804688 111 c 0
 489.6328125 119 494.466796875 123.333007812 501.799804688 124 c 0
 509.1328125 124.666992188 527.299804688 124.166992188 556.299804688 122.5 c 0
 585.299804688 120.833007812 616.799804688 117.666992188 650.799804688 113 c 0
 690.1328125 107 729.966796875 99 770.299804688 89 c 0
 810.6328125 79 848.466796875 67.3330078125 883.799804688 54 c 0
 923.1328125 38.6669921875 954.466796875 23.1669921875 977.799804688 7.5 c 0
 1001.1328125 -8.1669921875 1022.46679688 -28.6669921875 1041.79980469 -54 c 0
 1061.1328125 -80.6669921875 1069.29980469 -107 1066.29980469 -133 c 0
 1063.29980469 -159 1051.79980469 -179.333007812 1031.79980469 -194 c 0
 1014.46679688 -207.333007812 994.299804688 -216.166992188 971.299804688 -220.5 c 0
 948.299804688 -224.833007812 926.1328125 -227 904.799804688 -227 c 256
 883.466796875 -227 868.799804688 -226.833007812 860.799804688 -226.5 c 0
 852.799804688 -226.166992188 838.1328125 -223.666992188 816.799804688 -219 c 1
357.799804688 206 m 1
 350.466796875 212 350.1328125 217.5 356.799804688 222.5 c 0
 363.466796875 227.5 371.799804688 230 381.799804688 230 c 0
 392.466796875 230 407.6328125 239.666992188 427.299804688 259 c 0
 446.966796875 278.333007812 459.799804688 302.333007812 465.799804688 331 c 0
 475.799804688 379.666992188 450.1328125 419.666992188 388.799804688 451 c 0
 323.466796875 483.666992188 238.799804688 505 134.799804688 515 c 0
 116.799804688 517 97.1328125 517.833007812 75.7998046875 517.5 c 0
 54.466796875 517.166992188 42.1328125 517.666992188 38.7998046875 519 c 0
 29.466796875 522.333007812 25.966796875 528 28.2998046875 536 c 0
 30.6328125 544 35.466796875 548.333007812 42.7998046875 549 c 256
 50.1328125 549.666992188 68.1328125 549.166992188 96.7998046875 547.5 c 0
 125.466796875 545.833007812 157.1328125 542.666992188 191.799804688 538 c 0
 231.1328125 532 270.966796875 524 311.299804688 514 c 0
 351.6328125 504 389.466796875 492.333007812 424.799804688 479 c 0
 464.1328125 463.666992188 495.466796875 448.166992188 518.799804688 432.5 c 0
 542.1328125 416.833007812 563.466796875 396 582.799804688 370 c 0
 602.1328125 343.333007812 610.299804688 317.166992188 607.299804688 291.5 c 0
 604.299804688 265.833007812 593.1328125 246 573.799804688 232 c 0
 556.466796875 218.666992188 536.1328125 209.666992188 512.799804688 205 c 0
 489.466796875 200.333007812 467.1328125 198 445.799804688 198 c 0
 414.799804688 198 414.799804688 198 402.299804688 198 c 0
 393.966796875 198 379.1328125 200.666992188 357.799804688 206 c 1
EndSplineSet
Fore
SplineSet
1343.11914062 -146.159179688 m 0x80
 1343.11914062 -190.388671875 1225.95898438 -173.033203125 1225.95898438 -219.240234375 c 0
 1225.95898438 -231.962890625 1241.66113281 -254.040039062 1350.65917969 -254.040039062 c 0
 1474.9296875 -254.040039062 1585.55957031 -210.306640625 1585.55957031 -161.239257812 c 0
 1585.55957031 -145 1574.34570312 -126.439453125 1551.91894531 -105.559570312 c 256
 1479.58789062 -38.2158203125 1140.81640625 35.9599609375 996.859375 35.9599609375 c 0
 922.891601562 35.9599609375 911.599609375 22.130859375 911.599609375 -4.6396484375 c 0
 911.599609375 -74.5478515625 1234.19335938 -19.833984375 1318.75976562 -104.400390625 c 0
 1334.99902344 -120.639648438 1343.11914062 -134.559570312 1343.11914062 -146.159179688 c 0x80
461.51953125 39.4404296875 m 0
 461.51953125 -4.7890625 344.359375 12.5654296875 344.359375 -33.6396484375 c 0
 344.359375 -46.3798828125 360.100585938 -68.4404296875 469.059570312 -68.4404296875 c 0
 593.330078125 -68.4404296875 703.959960938 -24.70703125 703.959960938 24.3603515625 c 0
 703.959960938 40.599609375 692.74609375 59.16015625 670.319335938 80.0400390625 c 256
 597.98828125 147.383789062 259.216796875 221.559570312 115.259765625 221.559570312 c 0x40
 41.2919921875 221.559570312 30 207.73046875 30 180.959960938 c 0
 30 111.052734375 352.59765625 165.764648438 437.159179688 81.19921875 c 0
 453.399414062 64.9599609375 461.51953125 51.0400390625 461.51953125 39.4404296875 c 0
EndSplineSet
EndChar

StartChar: yporroi
Encoding: 57379 57379 45
Width: 370
VWidth: 1392
Flags: W
HStem: -80.04 56.8398<40.2394 120.566> 162.4 45.2393<270.784 339.585>
VStem: 128.049 153.119<-16.3648 146.16> 128.049 145<-1.30277 109.04 138.04 160.804>
AnchorPoint: "diesisSecondary" 523.648 655 basechar 0
AnchorPoint: "yfesisSecondary" -82.3516 -455 basechar 0
AnchorPoint: "yfesis" 244.648 377 basechar 0
AnchorPoint: "barline" 222.648 358 basechar 0
AnchorPoint: "yfenAbove" 153.648 655 basechar 0
AnchorPoint: "yfenBelow" 95.6484 -272 basechar 0
AnchorPoint: "koronis" 146.648 649 basechar 0
AnchorPoint: "endofonon" 128.648 -378 basechar 0
AnchorPoint: "heteronConnecting" 519.648 -251 basechar 0
AnchorPoint: "measureNumber" 18.6484 251 basechar 0
AnchorPoint: "isonIndicator" 18.6484 653 basechar 0
AnchorPoint: "heteron" 252.648 -318 basechar 0
AnchorPoint: "apli" 97.6484 -190 basechar 0
AnchorPoint: "antikenoma" 133.648 -132 basechar 0
AnchorPoint: "noteTop" 92.6484 443 basechar 0
AnchorPoint: "fthoraTop" 244.648 377 basechar 0
AnchorPoint: "fthoraBottom" 84.6484 -131 basechar 0
AnchorPoint: "diesis" 203.648 -172 basechar 0
AnchorPoint: "gorgonTop" 250 290 basechar 0
LayerCount: 2
Back
Refer: 11 118867 N 1 0 0 1 -63.3519 -2 2
Fore
SplineSet
199.96875 207.639648438 m 4xd0
 136.6953125 207.639648438 122.248046875 194.563476562 122.248046875 146.16015625 c 5
 128.048828125 44.080078125 l 5
 128.048828125 -3.1982421875 117.2109375 -23.2001953125 72.9482421875 -23.2001953125 c 4
 37.5673828125 -23.2001953125 27.2158203125 -26.767578125 30.6083984375 -41.1796875 c 4
 37.9990234375 -72.5869140625 76.12109375 -80.0400390625 180.248046875 -80.0400390625 c 260
 221.266601562 -80.0400390625 242.844726562 -75.4423828125 260.868164062 -57.419921875 c 4
 277.411132812 -40.8779296875 281.16796875 -30.265625 281.16796875 -2.3203125 c 260xe0
 281.16796875 19.72265625 281.16796875 19.72265625 273.048828125 109.040039062 c 6
 270.728515625 138.040039062 l 5
 270.728515625 156.083984375 278.990234375 162.400390625 305.528320312 162.400390625 c 4
 334.365234375 162.400390625 340.328125 166.389648438 340.328125 178.060546875 c 4
 340.328125 193.893554688 339.916992188 207.639648438 199.96875 207.639648438 c 4xd0
EndSplineSet
EndChar

